#N canvas 778 180 581 471 12;
#X declare -lib Gem;
#N canvas 340 107 682 322 gemwin 0;
#X obj 102 122 tgl 15 0 \$0-gemstart \$0-gemstart empty 17 7 0 10 #fcfcfc #000000 #000000 0 1;
#X obj 102 161 r \$0-gemstart;
#X obj 102 182 select 1 0;
#X msg 102 214 create \, 1;
#X msg 177 215 destroy;
#X obj 102 239 t a;
#X obj 318 54 inlet;
#X obj 318 255 gemwin;
#X obj 318 100 t a a;
#X obj 318 287 outlet;
#X obj 350 128 route create destroy;
#X obj 350 150 t b;
#X msg 350 172 1;
#X obj 390 150 t b;
#X msg 390 172 0;
#X obj 350 195 t f;
#X msg 350 219 set \$1;
#X text 118 122 rendering;
#X connect 1 0 2 0;
#X connect 2 0 3 0;
#X connect 2 1 4 0;
#X connect 3 0 5 0;
#X connect 4 0 5 0;
#X connect 5 0 8 0;
#X connect 6 0 8 0;
#X connect 7 0 9 0;
#X connect 8 0 7 0;
#X connect 8 1 10 0;
#X connect 10 0 11 0;
#X connect 10 1 13 0;
#X connect 11 0 12 0;
#X connect 12 0 15 0;
#X connect 13 0 14 0;
#X connect 14 0 15 0;
#X connect 15 0 16 0;
#X connect 16 0 0 0;
#X coords 0 -1 1 1 85 40 1 100 100;
#X restore 18 24 pd gemwin;
#X obj 19 131 gemhead;
#X obj 19 179 pix_add;
#X obj 119 101 gemhead;
#X obj 101 211 gemhead;
#X obj 101 259 pix_add;
#X obj 20 335 pix_draw;
#X obj 201 181 gemhead;
#X obj 147 28 declare -lib Gem;
#X obj 20 305 pix_multiply;
#X obj 19 155 pix_image ../../../imagenes/arte/alpha_v3_neg.jpg;
#X obj 101 235 pix_image ../../../imagenes/arte/alpha_v3.jpg;
#X obj 119 125 pix_image ../../../imagenes/pillow/images/trail.jpg;
#X obj 201 205 pix_image ../../../imagenes/pillow/images/trail_neg.jpg;
#X connect 1 0 10 0;
#X connect 2 0 9 0;
#X connect 3 0 12 0;
#X connect 4 0 11 0;
#X connect 5 0 9 1;
#X connect 7 0 13 0;
#X connect 9 0 6 0;
#X connect 10 0 2 0;
#X connect 11 0 5 0;
#X connect 12 0 2 1;
#X connect 13 0 5 1;
