#N canvas 12 111 537 538 12;
#X obj 117 361 t b f;
#X msg 61 433 view \$1 \$2 \$3 \$4 \$5;
#X floatatom 85 94 5 -10 10 0 - - - 0;
#X obj 88 71 hsl 81 19 -20 20 0 0 empty empty empty -2 -10 0 12 #fcfcfc #000000 #000000 0 1;
#X floatatom 178 94 5 -10 10 0 - - - 0;
#X obj 181 71 hsl 81 19 -20 20 0 0 empty empty empty -2 -10 0 12 #fcfcfc #000000 #000000 0 1;
#X floatatom 272 94 5 -10 10 0 - - - 0;
#X obj 275 71 hsl 81 19 -20 20 0 0 empty empty empty -2 -10 0 12 #fcfcfc #000000 #000000 0 1;
#X text 82 49 trasladar la camara;
#X floatatom 83 188 5 0 0 0 - - - 0;
#X floatatom 175 188 5 0 0 0 - - - 0;
#X obj 178 165 hsl 81 19 -89.99 89.99 0 0 empty empty empty -2 -10 0 12 #fcfcfc #000000 #000000 0 1;
#X text 80 142 rotar la camara;
#X obj 85 117 s camX;
#X obj 178 117 s camY;
#X obj 272 117 s camZ;
#X obj 83 211 s camPhi;
#X obj 175 211 s camTheta;
#X obj 173 361 t b f;
#X obj 232 360 t b f;
#X obj 306 361 t b f;
#X obj 61 403 pack f f f f f;
#X obj 61 338 r camX;
#X obj 117 338 r camY;
#X obj 173 338 r camZ;
#X obj 232 337 r camPhi;
#X obj 306 337 r camTheta;
#X msg 229 434 lighting \$1;
#X obj 438 72 tgl 19 0 empty empty empty 0 -10 0 12 #fcfcfc #000000 #000000 0 1;
#X obj 438 96 s toggleLight;
#X obj 229 408 r toggleLight;
#X obj 86 166 hsl 81 19 0 360 0 0 empty empty empty -2 -10 0 12 #fcfcfc #000000 #000000 0 1;
#X obj 61 463 s cam/light;
#X obj 85 6 loadbang;
#X msg 85 30 0;
#X msg 85 30;
#X msg 125 29 5;
#X connect 0 0 21 0;
#X connect 0 1 21 1;
#X connect 1 0 32 0;
#X connect 2 0 13 0;
#X connect 3 0 2 0;
#X connect 4 0 14 0;
#X connect 5 0 4 0;
#X connect 6 0 15 0;
#X connect 7 0 6 0;
#X connect 9 0 16 0;
#X connect 10 0 17 0;
#X connect 11 0 10 0;
#X connect 18 0 21 0;
#X connect 18 1 21 2;
#X connect 19 0 21 0;
#X connect 19 1 21 3;
#X connect 20 0 21 0;
#X connect 20 1 21 4;
#X connect 21 0 1 0;
#X connect 22 0 21 0;
#X connect 23 0 0 0;
#X connect 24 0 18 0;
#X connect 25 0 19 0;
#X connect 26 0 20 0;
#X connect 27 0 32 0;
#X connect 28 0 29 0;
#X connect 30 0 27 0;
#X connect 31 0 9 0;
#X connect 33 0 34 0;
#X connect 33 0 35 0;
#X connect 33 0 36 0;
#X connect 34 0 3 0;
#X connect 34 0 5 0;
#X connect 36 0 7 0;
