#N canvas 644 90 697 467 12;
#X declare -lib Gem;
#X obj 33 41 part_head;
#X msg 129 24 0.9 0.83 0.6;
#X msg 131 51 0.93 0.6 0.4;
#X obj 349 27 declare -lib Gem;
#X obj 33 17 gemhead;
#X obj 33 65 part_color;
#X obj 33 173 part_render;
#X obj 188 224 gemhead 1;
#X msg 273 377 1 1 1;
#X msg 220 375 1 0 1;
#X text 324 371 change the lights color;
#X floatatom 264 225 0 0 0 0 - - - 0;
#X obj 188 405 light;
#X msg 309 306 2;
#X msg 352 306 3;
#X msg 265 308 1.1;
#X text 264 287 change the position of the light;
#X obj 188 265 rotateXYZ 0 -60 0;
#X obj 188 345 translateXYZ 2 0 0;
#X obj 33 197 sphere;
#X obj 33 125 part_source 20;
#X obj 33 149 part_killold 20;
#X obj 33 88 part_velocity blob 1 1 1 2;
#X connect 0 0 5 0;
#X connect 1 0 5 1;
#X connect 2 0 5 2;
#X connect 4 0 0 0;
#X connect 5 0 22 0;
#X connect 6 0 19 0;
#X connect 7 0 17 0;
#X connect 8 0 12 1;
#X connect 9 0 12 1;
#X connect 11 0 17 2;
#X connect 13 0 18 1;
#X connect 14 0 18 1;
#X connect 15 0 18 1;
#X connect 17 0 18 0;
#X connect 18 0 12 0;
#X connect 20 0 21 0;
#X connect 21 0 6 0;
#X connect 22 0 20 0;
