#N canvas 935 227 467 400 12;
#X declare -lib Gem;
#X obj 12 12 declare -lib Gem;
#N canvas 87 154 247 179 Gem.init 0;
#X obj 118 46 loadbang;
#X msg 118 81 reset;
#X obj 118 113 outlet;
#X connect 0 0 1 0;
#X connect 1 0 2 0;
#X restore 15 67 pd Gem.init;
#N canvas 340 107 682 322 gemwin 0;
#X obj 102 122 tgl 15 0 \$0-gemstart \$0-gemstart empty 17 7 0 10 #fcfcfc #000000 #000000 0 1;
#X obj 102 161 r \$0-gemstart;
#X obj 102 182 select 1 0;
#X msg 102 214 create \, 1;
#X msg 177 215 destroy;
#X obj 102 239 t a;
#X obj 318 54 inlet;
#X obj 318 255 gemwin;
#X obj 318 100 t a a;
#X obj 318 287 outlet;
#X obj 350 128 route create destroy;
#X obj 350 150 t b;
#X msg 350 172 1;
#X obj 390 150 t b;
#X msg 390 172 0;
#X obj 350 195 t f;
#X msg 350 219 set \$1;
#X text 118 122 rendering;
#X connect 1 0 2 0;
#X connect 2 0 3 0;
#X connect 2 1 4 0;
#X connect 3 0 5 0;
#X connect 4 0 5 0;
#X connect 5 0 8 0;
#X connect 6 0 8 0;
#X connect 7 0 9 0;
#X connect 8 0 7 0;
#X connect 8 1 10 0;
#X connect 10 0 11 0;
#X connect 10 1 13 0;
#X connect 11 0 12 0;
#X connect 12 0 15 0;
#X connect 13 0 14 0;
#X connect 14 0 15 0;
#X connect 15 0 16 0;
#X connect 16 0 0 0;
#X coords 0 -1 1 1 85 40 1 100 100;
#X restore 15 86 pd gemwin;
#X obj 15 48 r cam/light;
#X obj 170 13 gemhead;
#X obj 170 63 rotateXYZ 0 0 0;
#X obj 15 153 gemhead 1;
#X floatatom 91 154 0 0 0 0 - - - 0;
#X obj 15 224 light;
#X obj 15 177 rotateXYZ 0 -60 0;
#X obj 15 201 translateXYZ 2 0 0;
#N canvas 738 207 515 420 selectRotation 0;
#X obj 30 226 tgl 19 0 empty empty empty 0 -10 0 12 #fcfcfc #000000 #000000 0 1;
#X obj 111 227 tgl 19 0 empty empty empty 0 -10 0 12 #fcfcfc #000000 #000000 0 1;
#X obj 196 226 tgl 19 0 empty empty empty 0 -10 0 12 #fcfcfc #000000 #000000 0 1;
#X obj 30 368 outlet;
#X obj 30 250 metro 50;
#X floatatom 30 297 5 0 0 0 - - - 0;
#X obj 41 319 + 1;
#X obj 111 370 outlet;
#X obj 196 368 outlet;
#X obj 111 251 metro 50;
#X floatatom 111 298 5 0 0 0 - - - 0;
#X obj 122 320 + 1;
#X obj 195 249 metro 50;
#X floatatom 195 296 5 0 0 0 - - - 0;
#X obj 206 318 + 1;
#X msg 111 203 0;
#X msg 196 203 0;
#X msg 30 203 0;
#X msg 65 203 1;
#X msg 144 203 1;
#X msg 232 203 1;
#X obj 30 273 int 0;
#X obj 111 274 int 0;
#X obj 195 272 int 0;
#X obj 65 56 random 3;
#X obj 65 155 select 0 1 2;
#X msg 65 227 0;
#X msg 144 227 0;
#X msg 232 227 0;
#X obj 175 154 r reset;
#X floatatom 65 80 5 0 0 0 - - - 0;
#X floatatom 65 129 5 0 0 0 - - - 0;
#X obj 21 103 expr if ($f1 == $f2 \, ($f1+1)%3 \, $f1);
#X obj 65 33 r sample1;
#X connect 0 0 4 0;
#X connect 1 0 9 0;
#X connect 2 0 12 0;
#X connect 4 0 21 0;
#X connect 5 0 3 0;
#X connect 6 0 21 1;
#X connect 9 0 22 0;
#X connect 10 0 7 0;
#X connect 11 0 22 1;
#X connect 12 0 23 0;
#X connect 13 0 8 0;
#X connect 14 0 23 1;
#X connect 15 0 1 0;
#X connect 16 0 2 0;
#X connect 17 0 0 0;
#X connect 18 0 0 0;
#X connect 18 0 26 0;
#X connect 19 0 1 0;
#X connect 19 0 27 0;
#X connect 20 0 2 0;
#X connect 20 0 28 0;
#X connect 21 0 5 0;
#X connect 21 0 6 0;
#X connect 22 0 10 0;
#X connect 22 0 11 0;
#X connect 23 0 13 0;
#X connect 23 0 14 0;
#X connect 24 0 30 0;
#X connect 25 0 18 0;
#X connect 25 0 16 0;
#X connect 25 0 15 0;
#X connect 25 1 19 0;
#X connect 25 1 16 0;
#X connect 25 1 17 0;
#X connect 25 2 20 0;
#X connect 25 2 17 0;
#X connect 25 2 15 0;
#X connect 26 0 10 0;
#X connect 26 0 13 0;
#X connect 27 0 5 0;
#X connect 27 0 13 0;
#X connect 28 0 5 0;
#X connect 28 0 10 0;
#X connect 29 0 17 0;
#X connect 29 0 26 0;
#X connect 29 0 27 0;
#X connect 29 0 28 0;
#X connect 29 0 15 0;
#X connect 29 0 16 0;
#X connect 30 0 32 0;
#X connect 31 0 32 1;
#X connect 31 0 25 0;
#X connect 32 0 31 0;
#X connect 33 0 24 0;
#X restore 204 38 pd selectRotation;
#N canvas 684 318 450 300 selectColor 0;
#X obj 48 208 outlet;
#X obj 101 208 outlet;
#X obj 154 208 outlet;
#X obj 46 52 random 100;
#X floatatom 46 76 5 0 0 0 - - - 0;
#X obj 46 99 / 100;
#X floatatom 46 123 5 0 0 0 - - - 0;
#X obj 126 52 random 100;
#X floatatom 126 76 5 0 0 0 - - - 0;
#X obj 126 99 / 100;
#X floatatom 126 123 5 0 0 0 - - - 0;
#X obj 204 52 random 100;
#X floatatom 204 76 5 0 0 0 - - - 0;
#X obj 204 99 / 100;
#X floatatom 204 123 5 0 0 0 - - - 0;
#X obj 126 27 r reset;
#X msg 185 27 1;
#X obj 46 28 r sample2;
#X connect 3 0 4 0;
#X connect 4 0 5 0;
#X connect 5 0 6 0;
#X connect 6 0 0 0;
#X connect 7 0 8 0;
#X connect 8 0 9 0;
#X connect 9 0 10 0;
#X connect 10 0 1 0;
#X connect 11 0 12 0;
#X connect 12 0 13 0;
#X connect 13 0 14 0;
#X connect 14 0 2 0;
#X connect 15 0 16 0;
#X connect 16 0 6 0;
#X connect 16 0 14 0;
#X connect 16 0 10 0;
#X connect 17 0 3 0;
#X connect 17 0 7 0;
#X connect 17 0 11 0;
#X restore 196 90 pd selectColor;
#X obj 170 115 colorRGB 1 1 1 1;
#N canvas 208 233 450 300 selectSegments 0;
#X obj 92 156 + 5;
#X floatatom 92 180 5 0 0 0 - - - 0;
#X obj 92 203 outlet;
#X floatatom 92 84 5 0 0 0 - - - 0;
#X floatatom 92 133 5 0 0 0 - - - 0;
#X obj 48 107 expr if ($f1 == $f2 \, ($f1+1)%20 \, $f1);
#X obj 93 61 random 10;
#X obj 176 154 r reset;
#X msg 142 154 10;
#X obj 93 37 r sample3;
#X connect 0 0 1 0;
#X connect 1 0 2 0;
#X connect 3 0 5 0;
#X connect 4 0 0 0;
#X connect 4 0 5 1;
#X connect 5 0 4 0;
#X connect 6 0 3 0;
#X connect 7 0 8 0;
#X connect 8 0 1 0;
#X connect 9 0 6 0;
#X restore 224 192 pd selectSegments;
#X msg 194 164 draw line;
#X obj 194 140 loadbang;
#X obj 171 216 teapot 2;
#X connect 1 0 2 0;
#X connect 3 0 2 0;
#X connect 4 0 5 0;
#X connect 5 0 13 0;
#X connect 6 0 9 0;
#X connect 7 0 9 2;
#X connect 9 0 10 0;
#X connect 10 0 8 0;
#X connect 11 0 5 1;
#X connect 11 1 5 2;
#X connect 11 2 5 3;
#X connect 12 0 13 1;
#X connect 12 1 13 2;
#X connect 12 2 13 3;
#X connect 13 0 17 0;
#X connect 14 0 17 2;
#X connect 15 0 17 0;
#X connect 16 0 15 0;
