#N canvas 613 223 693 522 12;
#X declare -lib Gem;
#X obj 151 97 gemhead;
#X obj 12 12 declare -lib Gem;
#N canvas 87 154 247 179 Gem.init 0;
#X obj 118 46 loadbang;
#X msg 118 81 reset;
#X obj 118 113 outlet;
#X connect 0 0 1 0;
#X connect 1 0 2 0;
#X restore 15 67 pd Gem.init;
#N canvas 340 107 682 322 gemwin 0;
#X obj 102 122 tgl 15 0 \$0-gemstart \$0-gemstart empty 17 7 0 10 #fcfcfc #000000 #000000 0 1;
#X obj 102 161 r \$0-gemstart;
#X obj 102 182 select 1 0;
#X msg 102 214 create \, 1;
#X msg 177 215 destroy;
#X obj 102 239 t a;
#X obj 318 54 inlet;
#X obj 318 255 gemwin;
#X obj 318 100 t a a;
#X obj 318 287 outlet;
#X obj 350 128 route create destroy;
#X obj 350 150 t b;
#X msg 350 172 1;
#X obj 390 150 t b;
#X msg 390 172 0;
#X obj 350 195 t f;
#X msg 350 219 set \$1;
#X text 118 122 rendering;
#X connect 1 0 2 0;
#X connect 2 0 3 0;
#X connect 2 1 4 0;
#X connect 3 0 5 0;
#X connect 4 0 5 0;
#X connect 5 0 8 0;
#X connect 6 0 8 0;
#X connect 7 0 9 0;
#X connect 8 0 7 0;
#X connect 8 1 10 0;
#X connect 10 0 11 0;
#X connect 10 1 13 0;
#X connect 11 0 12 0;
#X connect 12 0 15 0;
#X connect 13 0 14 0;
#X connect 14 0 15 0;
#X connect 15 0 16 0;
#X connect 16 0 0 0;
#X coords 0 -1 1 1 85 40 1 100 100;
#X restore 15 86 pd gemwin;
#X obj 416 61 tgl 30 0 empty empty empty 0 -10 0 12 #fcfcfc #000000 #000000 0 1;
#X obj 416 96 s rotX;
#X obj 473 61 tgl 30 0 empty empty empty 0 -10 0 12 #fcfcfc #000000 #000000 0 1;
#X obj 529 61 tgl 30 0 empty empty empty 0 -10 0 12 #fcfcfc #000000 #000000 0 1;
#X obj 473 96 s rotY;
#X obj 529 96 s rotZ;
#X obj 152 146 pix_texture;
#N canvas 350 466 450 300 rot_XYZ 0;
#X obj 28 17 inlet;
#X obj 73 17 inlet;
#X obj 118 17 inlet;
#X obj 28 262 outlet;
#X obj 80 262 outlet;
#X obj 132 262 outlet;
#X obj 28 43 ||;
#X obj 73 43 t b f;
#X obj 28 67 ||;
#X obj 118 43 t b f;
#X obj 78 116 r rotX;
#X obj 86 140 r rotY;
#X obj 28 188 int 1;
#X floatatom 28 212 5 0 0 0 - - - 0;
#X obj 28 116 spigot;
#X obj 36 140 spigot;
#X obj 71 188 int 1;
#X floatatom 71 212 5 0 0 0 - - - 0;
#X obj 82 234 + 1;
#X obj 114 188 int 1;
#X floatatom 114 212 5 0 0 0 - - - 0;
#X obj 125 234 + 1;
#X obj 45 163 spigot;
#X obj 95 163 r rotZ;
#X obj 39 234 + 1;
#X obj 28 91 metro 24;
#X connect 0 0 6 0;
#X connect 1 0 7 0;
#X connect 2 0 9 0;
#X connect 6 0 8 0;
#X connect 7 0 6 0;
#X connect 7 1 6 1;
#X connect 8 0 25 0;
#X connect 9 0 8 0;
#X connect 9 1 8 1;
#X connect 10 0 14 1;
#X connect 11 0 15 1;
#X connect 12 0 13 0;
#X connect 12 0 24 0;
#X connect 13 0 3 0;
#X connect 14 0 12 0;
#X connect 15 0 16 0;
#X connect 16 0 17 0;
#X connect 16 0 18 0;
#X connect 17 0 4 0;
#X connect 18 0 16 1;
#X connect 19 0 20 0;
#X connect 19 0 21 0;
#X connect 20 0 5 0;
#X connect 21 0 19 1;
#X connect 22 0 19 0;
#X connect 23 0 22 1;
#X connect 24 0 12 1;
#X connect 25 0 14 0;
#X connect 25 0 15 0;
#X connect 25 0 22 0;
#X restore 187 245 pd rot_XYZ;
#X obj 188 172 r rotX;
#X obj 188 197 r rotY;
#X obj 188 221 r rotZ;
#X obj 153 294 translateXYZ 0 0 0;
#X obj 15 48 r cam/light;
#X obj 153 270 rotateXYZ 180 0 0;
#X obj 529 9 tgl 19 0 empty empty empty 0 -10 0 12 #fcfcfc #000000 #000000 0 1;
#X obj 529 34 metro 10;
#X obj 153 318 sphere 20 100;
#X obj 152 122 pix_image ../../imagenes/arte/textura_v1.png;
#X connect 0 0 21 0;
#X connect 2 0 3 0;
#X connect 4 0 5 0;
#X connect 6 0 8 0;
#X connect 7 0 9 0;
#X connect 10 0 17 0;
#X connect 11 0 17 1;
#X connect 11 1 17 2;
#X connect 11 2 17 3;
#X connect 12 0 11 0;
#X connect 13 0 11 1;
#X connect 14 0 11 2;
#X connect 15 0 20 0;
#X connect 16 0 3 0;
#X connect 17 0 15 0;
#X connect 18 0 19 0;
#X connect 19 0 7 0;
#X connect 21 0 10 0;
