#N canvas 113 193 474 390 12;
#X obj 94 151 hsl 128 17 0 500 0 0 empty empty empty -2 -8 0 10 #191919 #ffffff #ffffff 0 1;
#X floatatom 91 176 11 0 0 0 - - - 16;
#X obj 91 216 s decay;
#X obj 264 151 hsl 128 17 1 100 1 0 empty empty empty -2 -8 0 10 #191919 #ffffff #ffffff 0 1;
#X floatatom 261 176 11 0 0 0 - - - 16;
#X obj 261 216 s q1;
#X obj 264 260 hsl 128 17 1 100 1 0 empty empty empty -2 -8 0 10 #191919 #ffffff #ffffff 0 1;
#X floatatom 261 285 11 0 0 0 - - - 16;
#X obj 261 325 s q2;
#N canvas 288 137 775 508 303_module 0;
#X obj 122 138 bng 44 250 50 0 empty empty empty 0 -10 0 12 #fcfcfc #000000 #000000;
#X obj 325 352 *~;
#X obj 325 451 dac~;
#X obj 323 113 phasor~;
#X floatatom 122 115 6 0 0 0 - - - 0;
#X obj 323 239 vcf~;
#X obj 352 178 loadbang;
#X msg 352 208 9;
#X obj 225 239 vcf~;
#X obj 254 178 loadbang;
#X msg 254 208 25;
#X msg 457 178 1;
#X floatatom 633 238 7 0 0 0 - - - 16;
#X obj 523 115 delay;
#X obj 633 54 r decay;
#X obj 597 344 *~ 4000;
#X obj 597 375 +~ 500;
#X obj 597 409 throw~ filter;
#X obj 335 148 catch~ filter;
#X msg 523 178 0;
#X obj 458 283 line~;
#X obj 457 115 delay 1;
#X obj 287 208 r q1;
#X obj 393 208 r q2;
#X obj 457 15 r bang;
#X obj 323 7 r midi;
#X obj 323 31 mtof;
#X obj 325 427 *~ 0.7;
#X obj 325 376 rev1~;
#X obj 355 352 r reverb;
#X obj 220 406 *~;
#X obj 472 417 *~;
#X obj 482 368 > 0;
#X obj 230 357 < 1;
#X connect 0 0 13 0;
#X connect 0 0 12 0;
#X connect 0 0 21 0;
#X connect 1 0 28 0;
#X connect 1 0 30 0;
#X connect 3 0 5 0;
#X connect 3 0 8 0;
#X connect 4 0 3 0;
#X connect 5 0 1 0;
#X connect 6 0 7 0;
#X connect 7 0 5 2;
#X connect 8 0 1 0;
#X connect 9 0 10 0;
#X connect 10 0 8 2;
#X connect 11 0 20 0;
#X connect 12 0 13 1;
#X connect 12 0 20 1;
#X connect 13 0 19 0;
#X connect 14 0 12 0;
#X connect 15 0 16 0;
#X connect 16 0 17 0;
#X connect 18 0 5 1;
#X connect 18 0 8 1;
#X connect 19 0 20 0;
#X connect 20 0 1 1;
#X connect 20 0 15 0;
#X connect 21 0 11 0;
#X connect 21 0 12 0;
#X connect 22 0 8 2;
#X connect 23 0 5 2;
#X connect 24 0 0 0;
#X connect 25 0 26 0;
#X connect 25 0 0 0;
#X connect 26 0 4 0;
#X connect 27 0 2 0;
#X connect 27 0 2 1;
#X connect 28 0 31 0;
#X connect 29 0 28 1;
#X connect 29 0 32 0;
#X connect 29 0 33 0;
#X connect 30 0 27 0;
#X connect 31 0 27 0;
#X connect 32 0 31 1;
#X connect 33 0 30 1;
#X coords 0 -1 1 1 91 99 2 100 100;
#X restore 91 29 pd 303_module;
#X obj 94 260 hsl 128 17 0 100 0 0 empty empty empty -2 -8 0 10 #191919 #ffffff #ffffff 0 1;
#X floatatom 91 285 11 0 0 0 - - - 16;
#X obj 91 325 s reverb;
#X connect 0 0 1 0;
#X connect 1 0 2 0;
#X connect 3 0 4 0;
#X connect 4 0 5 0;
#X connect 6 0 7 0;
#X connect 7 0 8 0;
#X connect 10 0 11 0;
#X connect 11 0 12 0;
