#N canvas 182 200 953 563 12;
#X obj 277 42 bng 44 250 50 0 empty empty empty 0 -10 0 12 #fcfcfc #000000 #000000;
#X obj 145 352 *~;
#X obj 145 451 dac~;
#X obj 143 113 phasor~;
#X floatatom 143 90 5 0 0 0 - - - 0;
#X obj 143 239 vcf~;
#X obj 172 178 loadbang;
#X msg 172 208 9;
#X obj 45 239 vcf~;
#X obj 74 178 loadbang;
#X msg 74 208 25;
#X obj 584 119 s freq;
#X obj 143 66 r freq;
#X obj 584 54 hsl 128 17 0 500 0 0 empty empty empty -2 -8 0 10 #191919 #ffffff #ffffff 0 1;
#X floatatom 584 79 12 0 0 0 - - - 16;
#X msg 277 178 1;
#X floatatom 453 238 7 0 0 0 - - - 16;
#X obj 343 115 delay;
#X obj 584 163 hsl 128 17 0 500 0 0 empty empty empty -2 -8 0 10 #191919 #ffffff #ffffff 0 1;
#X floatatom 584 188 11 0 0 0 - - - 16;
#X obj 584 228 s decay, f 8;
#X obj 453 54 r decay;
#X obj 417 344 *~ 4000;
#X obj 417 375 +~ 500;
#X obj 417 409 throw~ filter;
#X obj 155 148 catch~ filter;
#X msg 343 178 0;
#X obj 278 283 line~;
#X obj 277 115 delay 1;
#X obj 766 54 hsl 128 17 1 100 1 0 empty empty empty -2 -8 0 10 #191919 #ffffff #ffffff 0 1;
#X floatatom 766 79 11 0 0 0 - - - 16;
#X obj 766 119 s q1;
#X obj 766 163 hsl 128 17 1 100 1 0 empty empty empty -2 -8 0 10 #191919 #ffffff #ffffff 0 1;
#X floatatom 766 188 11 0 0 0 - - - 16;
#X obj 107 208 r q1;
#X obj 766 228 s q2;
#X obj 213 208 r q2;
#X obj 277 15 r bang;
#X obj 143 7 r midi;
#X obj 143 31 mtof;
#X obj 145 427 *~ 0.7;
#X connect 0 0 17 0;
#X connect 0 0 16 0;
#X connect 0 0 28 0;
#X connect 1 0 40 0;
#X connect 3 0 5 0;
#X connect 3 0 8 0;
#X connect 4 0 3 0;
#X connect 5 0 1 0;
#X connect 6 0 7 0;
#X connect 7 0 5 2;
#X connect 8 0 1 0;
#X connect 9 0 10 0;
#X connect 10 0 8 2;
#X connect 12 0 4 0;
#X connect 13 0 14 0;
#X connect 14 0 11 0;
#X connect 15 0 27 0;
#X connect 16 0 17 1;
#X connect 16 0 27 1;
#X connect 17 0 26 0;
#X connect 18 0 19 0;
#X connect 19 0 20 0;
#X connect 21 0 16 0;
#X connect 22 0 23 0;
#X connect 23 0 24 0;
#X connect 25 0 5 1;
#X connect 25 0 8 1;
#X connect 26 0 27 0;
#X connect 27 0 1 1;
#X connect 27 0 22 0;
#X connect 28 0 15 0;
#X connect 28 0 16 0;
#X connect 29 0 30 0;
#X connect 30 0 31 0;
#X connect 32 0 33 0;
#X connect 33 0 35 0;
#X connect 34 0 8 2;
#X connect 36 0 5 2;
#X connect 37 0 0 0;
#X connect 38 0 39 0;
#X connect 38 0 0 0;
#X connect 39 0 4 0;
#X connect 40 0 2 0;
#X connect 40 0 2 1;
