#N canvas 47 74 798 543 12;
#X obj 241 88 bng 19 250 50 0 empty empty empty 0 -10 0 12 #fcfcfc #000000 #000000;
#X obj 242 283 line~;
#X obj 143 85 noise~;
#X obj 143 109 *~ 0.5;
#X obj 145 352 *~;
#X obj 145 376 *~ 0.25;
#X obj 145 400 dac~;
#X obj 307 139 bng 19 250 50 0 empty empty empty 0 -10 0 12 #fcfcfc #000000 #000000;
#X obj 421 194 bng 19 250 50 0 empty empty empty 0 -10 0 12 #fcfcfc #000000 #000000;
#X msg 241 157 1 5;
#X obj 307 115 delay 5;
#X msg 307 178 0.5 100;
#X obj 421 170 delay 100;
#X msg 421 218 0 150;
#X obj 143 133 hip~ 4000;
#X connect 0 0 9 0;
#X connect 0 0 10 0;
#X connect 1 0 4 1;
#X connect 2 0 3 0;
#X connect 3 0 14 0;
#X connect 4 0 5 0;
#X connect 5 0 6 0;
#X connect 5 0 6 1;
#X connect 7 0 11 0;
#X connect 7 0 12 0;
#X connect 8 0 13 0;
#X connect 9 0 1 0;
#X connect 10 0 7 0;
#X connect 11 0 1 0;
#X connect 12 0 8 0;
#X connect 13 0 1 0;
#X connect 14 0 4 0;
