#N canvas 47 74 1078 543 12;
#X obj 115 260 vline~;
#X floatatom 115 125 5 0 100 2 ATK\ amount - - 0;
#X floatatom 115 161 5 0 100000 2 ATK\ time - - 0;
#X floatatom 205 125 5 0 100 2 DEC\ amount - - 0;
#X floatatom 205 161 5 0 100000 2 DEC\ time - - 0;
#X floatatom 295 161 5 0 100000 2 SUS\ time - - 0;
#X floatatom 385 161 5 0 100000 2 REL\ time - - 0;
#X obj 115 210 pack;
#X obj 205 212 pack f f f;
#X obj 295 184 +;
#X obj 295 208 +;
#X obj 115 74 inlet;
#X obj 115 186 / 100;
#X obj 205 184 / 100;
#X obj 352 209 pack f f f;
#X obj 115 284 *~;
#X obj 115 308 *~;
#X msg 352 184 0;
#X obj 115 337 snapshot~;
#X obj 198 287 metro 1;
#X obj 198 311 bng 19 250 50 0 empty empty empty 0 -10 0 12 #fcfcfc #000000 #000000;
#X obj 115 365 outlet;
#X obj 198 263 tgl 19 0 empty empty empty 0 -10 0 12 #fcfcfc #000000 #000000 0 1;
#X obj 289 247 +;
#X obj 289 271 +;
#X obj 289 295 +;
#X msg 289 320;
#X connect 0 0 15 0;
#X connect 0 0 15 1;
#X connect 1 0 12 0;
#X connect 2 0 7 1;
#X connect 2 0 9 1;
#X connect 2 0 8 2;
#X connect 2 0 23 0;
#X connect 3 0 13 0;
#X connect 4 0 8 1;
#X connect 4 0 10 1;
#X connect 4 0 23 1;
#X connect 5 0 9 0;
#X connect 5 0 24 1;
#X connect 6 0 14 1;
#X connect 6 0 25 1;
#X connect 7 0 0 0;
#X connect 8 0 0 0;
#X connect 9 0 10 0;
#X connect 10 0 14 2;
#X connect 11 0 3 0;
#X connect 11 0 17 0;
#X connect 11 0 1 0;
#X connect 12 0 7 0;
#X connect 13 0 8 0;
#X connect 14 0 0 0;
#X connect 15 0 16 0;
#X connect 15 0 16 1;
#X connect 16 0 18 0;
#X connect 17 0 14 0;
#X connect 18 0 21 0;
#X connect 19 0 20 0;
#X connect 20 0 18 0;
#X connect 22 0 19 0;
#X connect 23 0 24 0;
#X connect 24 0 25 0;
#X coords 0 -1 1 1 368 92 2 100 100;
