#N canvas 0 25 1440 737 12;
#X obj 139 136 bng 19 250 50 0 empty empty empty 0 -10 0 12 #fcfcfc #000000 #000000;
#X obj 139 199 int 1;
#X obj 91 111 sel 0;
#X obj 91 135 bng 19 250 50 0 empty empty empty 0 -10 0 12 #fcfcfc #000000 #000000;
#X msg 91 159 -1;
#X obj 22 111 loadbang;
#X floatatom 139 223 5 0 0 0 - - - 0;
#X obj 139 246 % 16;
#X floatatom 139 294 5 0 0 0 - - - 0;
#X obj 139 385 sel 1;
#X obj 211 385 sel 2;
#X obj 282 385 sel 3;
#X obj 353 385 sel 4;
#X obj 425 384 sel 5;
#X obj 499 384 sel 6;
#X obj 570 384 sel 7;
#X obj 643 384 sel 8;
#X obj 791 383 sel 10;
#X obj 860 383 sel 11;
#X obj 934 383 sel 12;
#X obj 1005 383 sel 13;
#X obj 1078 383 sel 14;
#X obj 1147 382 sel 15;
#X obj 1222 382 sel 16;
#X obj 719 383 sel 9;
#X obj 218 227 + 1;
#X obj 139 409 bng 19 250 50 0 empty empty empty 0 -10 0 12 #fcfcfc #000000 #000000;
#X obj 211 409 bng 19 250 50 0 empty empty empty 0 -10 0 12 #fcfcfc #000000 #000000;
#X obj 282 409 bng 19 250 50 0 empty empty empty 0 -10 0 12 #fcfcfc #000000 #000000;
#X obj 353 409 bng 19 250 50 0 empty empty empty 0 -10 0 12 #fcfcfc #000000 #000000;
#X obj 425 408 bng 19 250 50 0 empty empty empty 0 -10 0 12 #fcfcfc #000000 #000000;
#X obj 499 408 bng 19 250 50 0 empty empty empty 0 -10 0 12 #fcfcfc #000000 #000000;
#X obj 570 408 bng 19 250 50 0 empty empty empty 0 -10 0 12 #fcfcfc #000000 #000000;
#X obj 643 408 bng 19 250 50 0 empty empty empty 0 -10 0 12 #fcfcfc #000000 #000000;
#X obj 719 407 bng 19 250 50 0 empty empty empty 0 -10 0 12 #fcfcfc #000000 #000000;
#X obj 791 407 bng 19 250 50 0 empty empty empty 0 -10 0 12 #fcfcfc #000000 #000000;
#X obj 860 407 bng 19 250 50 0 empty empty empty 0 -10 0 12 #fcfcfc #000000 #000000;
#X obj 934 407 bng 19 250 50 0 empty empty empty 0 -10 0 12 #fcfcfc #000000 #000000;
#X obj 1005 407 bng 19 250 50 0 empty empty empty 0 -10 0 12 #fcfcfc #000000 #000000;
#X obj 1078 407 bng 19 250 50 0 empty empty empty 0 -10 0 12 #fcfcfc #000000 #000000;
#X obj 1147 406 bng 19 250 50 0 empty empty empty 0 -10 0 12 #fcfcfc #000000 #000000;
#X obj 1222 406 bng 19 250 50 0 empty empty empty 0 -10 0 12 #fcfcfc #000000 #000000;
#X obj 137 547 spigot;
#X obj 176 513 tgl 25 0 empty empty empty 0 -10 0 12 #fcfcfc #000000 #000000 0 1;
#X obj 211 546 spigot;
#X obj 250 512 tgl 25 0 empty empty empty 0 -10 0 12 #fcfcfc #000000 #000000 0 1;
#X obj 282 545 spigot;
#X obj 321 511 tgl 25 0 empty empty empty 0 -10 0 12 #fcfcfc #000000 #000000 0 1;
#X obj 353 544 spigot;
#X obj 392 510 tgl 25 0 empty empty empty 0 -10 0 12 #fcfcfc #000000 #000000 0 1;
#X obj 426 543 spigot;
#X obj 465 509 tgl 25 0 empty empty empty 0 -10 0 12 #fcfcfc #000000 #000000 0 1;
#X obj 498 544 spigot;
#X obj 537 510 tgl 25 0 empty empty empty 0 -10 0 12 #fcfcfc #000000 #000000 0 1;
#X obj 569 543 spigot;
#X obj 608 509 tgl 25 0 empty empty empty 0 -10 0 12 #fcfcfc #000000 #000000 0 1;
#X obj 642 542 spigot;
#X obj 681 508 tgl 25 0 empty empty empty 0 -10 0 12 #fcfcfc #000000 #000000 0 1;
#X obj 139 270 + 1;
#X obj 717 542 spigot;
#X obj 756 508 tgl 25 0 empty empty empty 0 -10 0 12 #fcfcfc #000000 #000000 0 1;
#X obj 791 541 spigot;
#X obj 830 507 tgl 25 0 empty empty empty 0 -10 0 12 #fcfcfc #000000 #000000 0 1;
#X obj 862 540 spigot;
#X obj 901 506 tgl 25 0 empty empty empty 0 -10 0 12 #fcfcfc #000000 #000000 0 1;
#X obj 933 539 spigot;
#X obj 972 505 tgl 25 0 empty empty empty 0 -10 0 12 #fcfcfc #000000 #000000 0 1;
#X obj 1006 538 spigot;
#X obj 1045 504 tgl 25 0 empty empty empty 0 -10 0 12 #fcfcfc #000000 #000000 0 1;
#X obj 1078 539 spigot;
#X obj 1117 505 tgl 25 0 empty empty empty 0 -10 0 12 #fcfcfc #000000 #000000 0 1;
#X obj 1149 538 spigot;
#X obj 1188 504 tgl 25 0 empty empty empty 0 -10 0 12 #fcfcfc #000000 #000000 0 1;
#X obj 1222 537 spigot;
#X obj 1261 503 tgl 25 0 empty empty empty 0 -10 0 12 #fcfcfc #000000 #000000 0 1;
#X obj 139 111 metro 1 120 permin, f 19;
#X obj 91 58 tgl 19 0 empty empty empty 17 7 0 10 #dfdfdf #000000 #000000 0 1;
#X msg 269 36 4;
#X msg 139 86 tempo \$1 permin;
#X floatatom 139 64 5 0 0 0 - - - 0;
#X floatatom 269 85 5 0 0 0 - - - 0;
#X obj 269 61 expr 1/$f1;
#X obj 269 14 loadbang;
#X obj 1222 567 spigot;
#X obj 1326 495 tgl 35 0 empty empty empty 0 -10 0 12 #ffffff #ff0400 #000000 0 1;
#X obj 1326 471 loadbang;
#X obj 415 79 hsl 162 19 1 250 0 0 empty empty empty -2 -10 0 12 #fcfcfc #000000 #000000 0 1;
#X obj 412 103 s bpm;
#X obj 140 40 r bpm;
#X obj 412 32 loadbang;
#X msg 412 56 120;
#X obj 29 158 s reset;
#X msg 139 433 44;
#X msg 211 433 46;
#X msg 282 433 48;
#X msg 353 433 49;
#X msg 425 432 51;
#X msg 499 432 53;
#X msg 570 432 55;
#X msg 643 432 56;
#X msg 719 431 58;
#X msg 791 431 56;
#X msg 860 431 55;
#X msg 934 431 53;
#X msg 1005 431 51;
#X msg 1078 431 49;
#X msg 1147 430 48;
#X msg 1222 430 46;
#X obj 1222 591 s midi;
#X connect 0 0 1 0;
#X connect 1 0 6 0;
#X connect 1 0 25 0;
#X connect 2 0 3 0;
#X connect 2 0 91 0;
#X connect 3 0 4 0;
#X connect 4 0 1 0;
#X connect 5 0 3 0;
#X connect 6 0 7 0;
#X connect 7 0 58 0;
#X connect 8 0 9 0;
#X connect 8 0 10 0;
#X connect 8 0 24 0;
#X connect 8 0 23 0;
#X connect 8 0 22 0;
#X connect 8 0 21 0;
#X connect 8 0 20 0;
#X connect 8 0 19 0;
#X connect 8 0 18 0;
#X connect 8 0 17 0;
#X connect 8 0 16 0;
#X connect 8 0 15 0;
#X connect 8 0 14 0;
#X connect 8 0 13 0;
#X connect 8 0 12 0;
#X connect 8 0 11 0;
#X connect 9 0 26 0;
#X connect 10 0 27 0;
#X connect 11 0 28 0;
#X connect 12 0 29 0;
#X connect 13 0 30 0;
#X connect 14 0 31 0;
#X connect 15 0 32 0;
#X connect 16 0 33 0;
#X connect 17 0 35 0;
#X connect 18 0 36 0;
#X connect 19 0 37 0;
#X connect 20 0 38 0;
#X connect 21 0 39 0;
#X connect 22 0 40 0;
#X connect 23 0 41 0;
#X connect 24 0 34 0;
#X connect 25 0 1 1;
#X connect 26 0 92 0;
#X connect 27 0 93 0;
#X connect 28 0 94 0;
#X connect 29 0 95 0;
#X connect 30 0 96 0;
#X connect 31 0 97 0;
#X connect 32 0 98 0;
#X connect 33 0 99 0;
#X connect 34 0 100 0;
#X connect 35 0 101 0;
#X connect 36 0 102 0;
#X connect 37 0 103 0;
#X connect 38 0 104 0;
#X connect 39 0 105 0;
#X connect 40 0 106 0;
#X connect 41 0 107 0;
#X connect 42 0 83 0;
#X connect 43 0 42 1;
#X connect 44 0 83 0;
#X connect 45 0 44 1;
#X connect 46 0 83 0;
#X connect 47 0 46 1;
#X connect 48 0 83 0;
#X connect 49 0 48 1;
#X connect 50 0 83 0;
#X connect 51 0 50 1;
#X connect 52 0 83 0;
#X connect 53 0 52 1;
#X connect 54 0 83 0;
#X connect 55 0 54 1;
#X connect 56 0 83 0;
#X connect 57 0 56 1;
#X connect 58 0 8 0;
#X connect 59 0 83 0;
#X connect 60 0 59 1;
#X connect 61 0 83 0;
#X connect 62 0 61 1;
#X connect 63 0 83 0;
#X connect 64 0 63 1;
#X connect 65 0 83 0;
#X connect 66 0 65 1;
#X connect 67 0 83 0;
#X connect 68 0 67 1;
#X connect 69 0 83 0;
#X connect 70 0 69 1;
#X connect 71 0 83 0;
#X connect 72 0 71 1;
#X connect 73 0 83 0;
#X connect 74 0 73 1;
#X connect 75 0 0 0;
#X connect 76 0 75 0;
#X connect 76 0 2 0;
#X connect 77 0 81 0;
#X connect 78 0 75 0;
#X connect 79 0 78 0;
#X connect 80 0 75 1;
#X connect 81 0 80 0;
#X connect 82 0 77 0;
#X connect 83 0 108 0;
#X connect 84 0 83 1;
#X connect 85 0 84 0;
#X connect 86 0 87 0;
#X connect 88 0 79 0;
#X connect 89 0 90 0;
#X connect 90 0 86 0;
#X connect 92 0 42 0;
#X connect 93 0 44 0;
#X connect 94 0 46 0;
#X connect 95 0 48 0;
#X connect 96 0 50 0;
#X connect 97 0 52 0;
#X connect 98 0 54 0;
#X connect 99 0 56 0;
#X connect 100 0 59 0;
#X connect 101 0 61 0;
#X connect 102 0 63 0;
#X connect 103 0 65 0;
#X connect 104 0 67 0;
#X connect 105 0 69 0;
#X connect 106 0 71 0;
#X connect 107 0 73 0;
