#N canvas 63 88 563 432 12;
#X obj 37 173 *~;
#X obj 263 198 oscope;
#X obj 37 279 dac~;
#X obj 170 55 adsr;
#X obj 170 29 bng 19 250 50 0 empty empty empty 0 -10 0 12 #fcfcfc #000000 #000000;
#X msg 37 10 100;
#X obj 176 156 *~ 500;
#X obj 37 37 phasor~;
#X connect 0 0 1 0;
#X connect 0 0 2 0;
#X connect 0 0 2 1;
#X connect 3 0 6 0;
#X connect 3 0 0 1;
#X connect 4 0 3 0;
#X connect 5 0 7 0;
#X connect 6 0 7 0;
#X connect 7 0 0 0;
