#N canvas 63 88 865 586 12;
#X obj 17 188 osc~;
#X obj 17 363 dac~;
#X obj 17 309 *~ 0.1;
#X obj 59 238 hsl 101 19 0 100 0 0 empty empty empty -2 -10 0 12 #fcfcfc #000000 #000000 0 1;
#X obj 56 262 / 100;
#X floatatom 56 286 5 0 0 0 - - - 0;
#X obj 20 141 hsl 150 19 100 1000 0 0 empty empty empty -2 -10 0 12 #fcfcfc #000000 #000000 0 1;
#X floatatom 17 165 5 0 0 0 - - - 0;
#X obj 17 212 clip~ -1 1;
#X obj 96 35 metro;
#X obj 96 59 snapshot~;
#X obj 96 10 tgl 19 0 empty empty empty 0 -10 0 12 #fcfcfc #000000 #000000 0 1;
#X obj 16 35 osc~ 0.05;
#X obj 96 83 * 10;
#X obj 550 43 oscope;
#X obj 205 187 osc~;
#X obj 205 308 *~ 0.1;
#X obj 247 237 hsl 101 19 0 100 0 0 empty empty empty -2 -10 0 12 #fcfcfc #000000 #000000 0 1;
#X obj 244 261 / 100;
#X floatatom 244 285 5 0 0 0 - - - 0;
#X obj 208 140 hsl 150 19 100 1000 0 0 empty empty empty -2 -10 0 12 #fcfcfc #000000 #000000 0 1;
#X floatatom 205 164 5 0 0 0 - - - 0;
#X obj 205 211 clip~ -1 1;
#X obj 284 34 metro;
#X obj 284 58 snapshot~;
#X obj 284 9 tgl 19 0 empty empty empty 0 -10 0 12 #fcfcfc #000000 #000000 0 1;
#X obj 96 107 + 150;
#X obj 284 82 * 40;
#X obj 284 106 + 150;
#X obj 205 332 s~ \$0-out2;
#X obj 17 333 s~ \$0-out1;
#X obj 550 17 r~ \$0-out1;
#X obj 550 303 oscope;
#X obj 550 277 r~ \$0-out2;
#X obj 204 34 osc~ 0.04;
#X connect 0 0 8 0;
#X connect 2 0 1 0;
#X connect 2 0 1 1;
#X connect 2 0 30 0;
#X connect 3 0 4 0;
#X connect 4 0 5 0;
#X connect 5 0 2 1;
#X connect 6 0 7 0;
#X connect 7 0 0 0;
#X connect 8 0 2 0;
#X connect 9 0 10 0;
#X connect 10 0 13 0;
#X connect 11 0 9 0;
#X connect 12 0 10 0;
#X connect 13 0 26 0;
#X connect 15 0 22 0;
#X connect 16 0 1 0;
#X connect 16 0 1 1;
#X connect 16 0 29 0;
#X connect 17 0 18 0;
#X connect 18 0 19 0;
#X connect 19 0 16 1;
#X connect 20 0 21 0;
#X connect 21 0 15 0;
#X connect 22 0 16 0;
#X connect 23 0 24 0;
#X connect 24 0 27 0;
#X connect 25 0 23 0;
#X connect 26 0 6 0;
#X connect 27 0 28 0;
#X connect 28 0 20 0;
#X connect 31 0 14 0;
#X connect 33 0 32 0;
#X connect 34 0 24 0;
