#N canvas 0 25 1440 738 12;
#X obj 12 133 bng 19 250 50 0 empty empty empty 0 -10 0 12 #fcfcfc #000000 #000000;
#X obj 12 196 int 1;
#X obj 79 135 sel 0;
#X msg 79 160 -1;
#X floatatom 12 220 5 0 0 0 - - - 0;
#X obj 12 243 % 16;
#X floatatom 12 291 5 0 0 0 - - - 0;
#X obj 12 382 sel 1;
#X obj 93 382 sel 2;
#X obj 174 383 sel 3;
#X obj 254 386 sel 4;
#X obj 335 385 sel 5;
#X obj 416 385 sel 6;
#X obj 499 385 sel 7;
#X obj 579 385 sel 8;
#X obj 735 384 sel 10;
#X obj 814 384 sel 11;
#X obj 894 384 sel 12;
#X obj 973 384 sel 13;
#X obj 1055 384 sel 14;
#X obj 1133 383 sel 15;
#X obj 1212 383 sel 16;
#X obj 658 384 sel 9;
#X obj 91 224 + 1;
#X obj 12 406 bng 19 250 50 0 empty empty empty 0 -10 0 12 #fcfcfc #000000 #000000;
#X obj 93 406 bng 19 250 50 0 empty empty empty 0 -10 0 12 #fcfcfc #000000 #000000;
#X obj 174 407 bng 19 250 50 0 empty empty empty 0 -10 0 12 #fcfcfc #000000 #000000;
#X obj 254 410 bng 19 250 50 0 empty empty empty 0 -10 0 12 #fcfcfc #000000 #000000;
#X obj 335 409 bng 19 250 50 0 empty empty empty 0 -10 0 12 #fcfcfc #000000 #000000;
#X obj 416 409 bng 19 250 50 0 empty empty empty 0 -10 0 12 #fcfcfc #000000 #000000;
#X obj 499 409 bng 19 250 50 0 empty empty empty 0 -10 0 12 #fcfcfc #000000 #000000;
#X obj 579 409 bng 19 250 50 0 empty empty empty 0 -10 0 12 #fcfcfc #000000 #000000;
#X obj 658 408 bng 19 250 50 0 empty empty empty 0 -10 0 12 #fcfcfc #000000 #000000;
#X obj 735 408 bng 19 250 50 0 empty empty empty 0 -10 0 12 #fcfcfc #000000 #000000;
#X obj 814 408 bng 19 250 50 0 empty empty empty 0 -10 0 12 #fcfcfc #000000 #000000;
#X obj 894 408 bng 19 250 50 0 empty empty empty 0 -10 0 12 #fcfcfc #000000 #000000;
#X obj 973 408 bng 19 250 50 0 empty empty empty 0 -10 0 12 #fcfcfc #000000 #000000;
#X obj 1055 408 bng 19 250 50 0 empty empty empty 0 -10 0 12 #fcfcfc #000000 #000000;
#X obj 1133 407 bng 19 250 50 0 empty empty empty 0 -10 0 12 #fcfcfc #000000 #000000;
#X obj 1212 407 bng 19 250 50 0 empty empty empty 0 -10 0 12 #fcfcfc #000000 #000000;
#X obj 12 430 s one;
#X obj 93 430 s two;
#X obj 174 431 s three;
#X obj 254 434 s four;
#X obj 335 433 s five;
#X obj 416 433 s six;
#X obj 499 433 s seven;
#X obj 658 432 s nine;
#X obj 735 432 s ten;
#X obj 579 433 s eight;
#X obj 894 432 s twelve;
#X obj 814 432 s eleven;
#X obj 973 432 s thirt;
#X obj 1055 432 s fourt;
#X obj 1133 431 s fift;
#X obj 1212 431 s sixt;
#X obj 10 484 r one;
#X obj 93 482 r two;
#X obj 174 483 r three;
#X obj 255 483 r four;
#X obj 336 484 r five;
#X obj 417 484 r six;
#X obj 498 484 r seven;
#X obj 578 481 r eight;
#X obj 12 267 + 1;
#X obj 656 483 r nine;
#X obj 735 481 r ten;
#X obj 814 481 r eleven;
#X obj 893 481 r twelve;
#X obj 974 480 r thirt;
#X obj 1055 479 r fourt;
#X obj 1134 479 r fift;
#X obj 1214 476 r sixt;
#X obj 12 108 metro 1 120 permin, f 19;
#X msg 142 33 4;
#X msg 12 83 tempo \$1 permin;
#X floatatom 12 61 5 0 0 0 - - - 0;
#X floatatom 142 82 5 0 0 0 - - - 0;
#X obj 142 58 expr 1/$f1;
#X obj 142 11 loadbang;
#X obj 1308 500 tgl 35 0 empty empty kick 0 50 0 15 #ffffff #ff0400 #000000 0 1;
#X obj 1308 476 loadbang;
#X obj 10 508 random 100;
#X obj 10 589 <;
#X floatatom 28 565 5 0 0 0 - - - 0;
#X obj 93 508 random 100;
#X obj 93 589 <;
#X floatatom 111 565 5 0 0 0 - - - 0;
#X obj 174 508 random 100;
#X obj 174 589 <;
#X floatatom 192 565 5 0 0 0 - - - 0;
#X obj 255 507 random 100;
#X obj 255 588 <;
#X floatatom 273 564 5 0 0 0 - - - 0;
#X obj 336 507 random 100;
#X obj 336 588 <;
#X floatatom 354 564 5 0 0 0 - - - 0;
#X obj 417 507 random 100;
#X obj 417 588 <;
#X floatatom 435 564 5 0 0 0 - - - 0;
#X obj 498 507 random 100;
#X obj 498 588 <;
#X floatatom 516 564 5 0 0 0 - - - 0;
#X obj 577 507 random 100;
#X obj 577 588 <;
#X floatatom 595 564 5 0 0 0 - - - 0;
#X obj 656 506 random 100;
#X obj 656 587 <;
#X floatatom 674 563 5 0 0 0 - - - 0;
#X obj 735 506 random 100;
#X obj 735 587 <;
#X floatatom 753 563 5 0 0 0 - - - 0;
#X obj 814 505 random 100;
#X obj 814 586 <;
#X floatatom 832 562 5 0 0 0 - - - 0;
#X obj 893 504 random 100;
#X obj 893 585 <;
#X floatatom 911 561 5 0 0 0 - - - 0;
#X obj 974 504 random 100;
#X obj 974 585 <;
#X floatatom 992 561 5 0 0 0 - - - 0;
#X obj 1055 504 random 100;
#X obj 1055 585 <;
#X floatatom 1073 561 5 0 0 0 - - - 0;
#X obj 1134 504 random 100;
#X obj 1134 585 <;
#X floatatom 1152 561 5 0 0 0 - - - 0;
#X obj 1214 503 random 100;
#X obj 1214 584 <;
#X floatatom 1232 560 5 0 0 0 - - - 0;
#X obj 79 56 r on;
#X obj 249 56 tgl 30 0 empty empty empty 0 -10 0 12 #dfdfdf #000000 #000000 0 1;
#X obj 249 90 s on;
#X floatatom 294 87 5 0 0 0 - - - 0;
#X obj 294 13 loadbang;
#X msg 294 37 120;
#X obj 1214 634 sel 1;
#X obj 1214 658 spigot;
#X obj 28 536 r p(k1);
#X obj 111 536 r p(k2);
#X obj 192 536 r p(k3);
#X obj 273 535 r p(k4);
#X obj 354 535 r p(k5);
#X obj 435 534 r p(k6);
#X obj 516 535 r p(k7);
#X obj 595 535 r p(k8);
#X obj 674 535 r p(k9);
#X obj 753 535 r p(k10);
#X obj 832 535 r p(k11);
#X obj 911 535 r p(k12);
#X obj 993 534 r p(k13);
#X obj 1073 533 r p(k14);
#X obj 1152 533 r p(k15);
#X obj 1232 533 r p(k16);
#X obj 7 727 r one;
#X obj 90 725 r two;
#X obj 171 726 r three;
#X obj 252 726 r four;
#X obj 333 727 r five;
#X obj 414 727 r six;
#X obj 495 727 r seven;
#X obj 575 724 r eight;
#X obj 653 726 r nine;
#X obj 732 724 r ten;
#X obj 811 724 r eleven;
#X obj 890 724 r twelve;
#X obj 971 723 r thirt;
#X obj 1052 722 r fourt;
#X obj 1131 722 r fift;
#X obj 1211 719 r sixt;
#X obj 1305 743 tgl 35 0 empty empty snare 0 50 0 15 #ffffff #ff0400 #000000 0 1;
#X obj 1305 719 loadbang;
#X obj 7 751 random 100;
#X obj 7 832 <;
#X floatatom 25 808 5 0 0 0 - - - 0;
#X obj 90 751 random 100;
#X obj 90 832 <;
#X floatatom 108 808 5 0 0 0 - - - 0;
#X obj 171 751 random 100;
#X obj 171 832 <;
#X floatatom 189 808 5 0 0 0 - - - 0;
#X obj 252 750 random 100;
#X obj 252 831 <;
#X floatatom 270 807 5 0 0 0 - - - 0;
#X obj 333 750 random 100;
#X obj 333 831 <;
#X floatatom 351 807 5 0 0 0 - - - 0;
#X obj 414 750 random 100;
#X obj 414 831 <;
#X floatatom 432 807 5 0 0 0 - - - 0;
#X obj 495 750 random 100;
#X obj 495 831 <;
#X floatatom 513 807 5 0 0 0 - - - 0;
#X obj 574 750 random 100;
#X obj 574 831 <;
#X floatatom 592 807 5 0 0 0 - - - 0;
#X obj 653 749 random 100;
#X obj 653 830 <;
#X floatatom 671 806 5 0 0 0 - - - 0;
#X obj 732 749 random 100;
#X obj 732 830 <;
#X floatatom 750 806 5 0 0 0 - - - 0;
#X obj 811 748 random 100;
#X obj 811 829 <;
#X floatatom 829 805 5 0 0 0 - - - 0;
#X obj 890 747 random 100;
#X obj 890 828 <;
#X floatatom 908 804 5 0 0 0 - - - 0;
#X obj 971 747 random 100;
#X obj 971 828 <;
#X floatatom 989 804 5 0 0 0 - - - 0;
#X obj 1052 747 random 100;
#X obj 1052 828 <;
#X floatatom 1070 804 5 0 0 0 - - - 0;
#X obj 1131 747 random 100;
#X obj 1131 828 <;
#X floatatom 1149 804 5 0 0 0 - - - 0;
#X obj 1211 746 random 100;
#X obj 1211 827 <;
#X floatatom 1229 803 5 0 0 0 - - - 0;
#X obj 1211 877 sel 1;
#X obj 1211 901 spigot;
#X obj 8 969 r one;
#X obj 91 967 r two;
#X obj 172 968 r three;
#X obj 253 968 r four;
#X obj 334 969 r five;
#X obj 415 969 r six;
#X obj 496 969 r seven;
#X obj 576 966 r eight;
#X obj 654 968 r nine;
#X obj 733 966 r ten;
#X obj 812 966 r eleven;
#X obj 891 966 r twelve;
#X obj 972 965 r thirt;
#X obj 1053 964 r fourt;
#X obj 1132 964 r fift;
#X obj 1212 961 r sixt;
#X obj 1306 985 tgl 35 0 empty empty hihat 0 50 0 15 #ffffff #ff0400 #000000 0 1;
#X obj 1306 961 loadbang;
#X obj 8 993 random 100;
#X obj 8 1074 <;
#X floatatom 26 1050 5 0 0 0 - - - 0;
#X obj 91 993 random 100;
#X obj 91 1074 <;
#X floatatom 109 1050 5 0 0 0 - - - 0;
#X obj 172 993 random 100;
#X obj 172 1074 <;
#X floatatom 190 1050 5 0 0 0 - - - 0;
#X obj 253 992 random 100;
#X obj 253 1073 <;
#X floatatom 271 1049 5 0 0 0 - - - 0;
#X obj 334 992 random 100;
#X obj 334 1073 <;
#X floatatom 352 1049 5 0 0 0 - - - 0;
#X obj 415 992 random 100;
#X obj 415 1073 <;
#X floatatom 433 1049 5 0 0 0 - - - 0;
#X obj 496 992 random 100;
#X obj 496 1073 <;
#X floatatom 514 1049 5 0 0 0 - - - 0;
#X obj 575 992 random 100;
#X obj 575 1073 <;
#X floatatom 593 1049 5 0 0 0 - - - 0;
#X obj 654 991 random 100;
#X obj 654 1072 <;
#X floatatom 672 1048 5 0 0 0 - - - 0;
#X obj 733 991 random 100;
#X obj 733 1072 <;
#X floatatom 751 1048 5 0 0 0 - - - 0;
#X obj 812 990 random 100;
#X obj 812 1071 <;
#X floatatom 830 1047 5 0 0 0 - - - 0;
#X obj 891 989 random 100;
#X obj 891 1070 <;
#X floatatom 909 1046 5 0 0 0 - - - 0;
#X obj 972 989 random 100;
#X obj 972 1070 <;
#X floatatom 990 1046 5 0 0 0 - - - 0;
#X obj 1053 989 random 100;
#X obj 1053 1070 <;
#X floatatom 1071 1046 5 0 0 0 - - - 0;
#X obj 1132 989 random 100;
#X obj 1132 1070 <;
#X floatatom 1150 1046 5 0 0 0 - - - 0;
#X obj 1212 988 random 100;
#X obj 1212 1069 <;
#X floatatom 1230 1045 5 0 0 0 - - - 0;
#X obj 1212 1119 sel 1;
#X obj 1212 1143 spigot;
#X obj 25 779 r p(s1);
#X obj 108 779 r p(s2);
#X obj 189 779 r p(s3);
#X obj 270 778 r p(s4);
#X obj 351 778 r p(s5);
#X obj 432 777 r p(s6);
#X obj 513 778 r p(s7);
#X obj 592 778 r p(s8);
#X obj 671 778 r p(s9);
#X obj 750 778 r p(s10);
#X obj 829 778 r p(s11);
#X obj 908 778 r p(s12);
#X obj 990 777 r p(s13);
#X obj 1070 776 r p(s14);
#X obj 1149 776 r p(s15);
#X obj 1229 776 r p(s16);
#X obj 26 1021 r p(h1);
#X obj 109 1021 r p(h2);
#X obj 190 1021 r p(h3);
#X obj 271 1020 r p(h4);
#X obj 352 1020 r p(h5);
#X obj 433 1019 r p(h6);
#X obj 514 1020 r p(h7);
#X obj 593 1020 r p(h8);
#X obj 672 1020 r p(h9);
#X obj 751 1020 r p(h10);
#X obj 830 1020 r p(h11);
#X obj 909 1020 r p(h12);
#X obj 991 1019 r p(h13);
#X obj 1071 1018 r p(h14);
#X obj 1150 1018 r p(h15);
#X obj 1230 1018 r p(h16);
#X obj 297 62 hsl 151 19 50 200 0 0 empty empty empty -2 -10 0 12 #fcfcfc #000000 #000000 0 1;
#X obj 294 110 s bpm_gen;
#X obj 12 38 r bpm_gen;
#N canvas 9 81 1263 588 presets 0;
#X obj 1061 91 bng 30 250 50 0 empty empty four\ on\ the\ floor 0 -10 0 12 #ffe3c6 #000000 #000000;
#X msg 1061 135 100;
#X obj 1061 167 s p(k1);
#X obj 1061 238 s p(k13);
#X obj 1061 191 s p(k5);
#X obj 1061 215 s p(k9);
#X obj 37 86 bng 30 250 50 0 empty empty random\ kick 0 -10 0 12 #ffe3c6 #000000 #000000;
#X obj 37 162 s p(k1);
#X obj 37 208 s p(k2);
#X obj 37 254 s p(k3);
#X obj 37 301 s p(k4);
#X obj 37 137 random 100;
#X obj 37 185 random 100;
#X obj 37 231 random 100;
#X obj 37 278 random 100;
#X obj 118 137 random 100;
#X obj 118 185 random 100;
#X obj 118 231 random 100;
#X obj 118 278 random 100;
#X obj 198 137 random 100;
#X obj 198 185 random 100;
#X obj 198 231 random 100;
#X obj 198 278 random 100;
#X obj 277 137 random 100;
#X obj 277 185 random 100;
#X obj 277 231 random 100;
#X obj 277 278 random 100;
#X obj 118 162 s p(k5);
#X obj 118 208 s p(k6);
#X obj 118 254 s p(k7);
#X obj 118 301 s p(k8);
#X obj 198 162 s p(k9);
#X obj 198 208 s p(k10);
#X obj 198 254 s p(k11);
#X obj 198 301 s p(k12);
#X obj 277 162 s p(k13);
#X obj 277 208 s p(k14);
#X obj 277 254 s p(k15);
#X obj 277 301 s p(k16);
#X obj 377 86 bng 30 250 50 0 empty empty random\ snare 0 -10 0 12 #ffe3c6 #000000 #000000;
#X obj 377 137 random 100;
#X obj 377 185 random 100;
#X obj 377 231 random 100;
#X obj 377 278 random 100;
#X obj 458 137 random 100;
#X obj 458 185 random 100;
#X obj 458 231 random 100;
#X obj 458 278 random 100;
#X obj 538 137 random 100;
#X obj 538 185 random 100;
#X obj 538 231 random 100;
#X obj 538 278 random 100;
#X obj 617 137 random 100;
#X obj 617 185 random 100;
#X obj 617 231 random 100;
#X obj 617 278 random 100;
#X obj 377 162 s p(s1);
#X obj 377 208 s p(s2);
#X obj 377 254 s p(s3);
#X obj 377 301 s p(s4);
#X obj 458 162 s p(s5);
#X obj 458 208 s p(s6);
#X obj 458 254 s p(s7);
#X obj 458 301 s p(s8);
#X obj 538 162 s p(s9);
#X obj 538 208 s p(s10);
#X obj 538 254 s p(s11);
#X obj 538 301 s p(s12);
#X obj 617 162 s p(s13);
#X obj 617 208 s p(s14);
#X obj 617 254 s p(s15);
#X obj 617 301 s p(s16);
#X obj 715 85 bng 30 250 50 0 empty empty random\ hihat 0 -10 0 12 #ffe3c6 #000000 #000000;
#X obj 715 136 random 100;
#X obj 715 184 random 100;
#X obj 715 230 random 100;
#X obj 715 277 random 100;
#X obj 796 136 random 100;
#X obj 796 184 random 100;
#X obj 796 230 random 100;
#X obj 796 277 random 100;
#X obj 876 136 random 100;
#X obj 876 184 random 100;
#X obj 876 230 random 100;
#X obj 876 277 random 100;
#X obj 955 136 random 100;
#X obj 955 184 random 100;
#X obj 955 230 random 100;
#X obj 955 277 random 100;
#X obj 715 161 s p(h1);
#X obj 715 207 s p(h2);
#X obj 715 253 s p(h3);
#X obj 715 300 s p(h4);
#X obj 796 161 s p(h5);
#X obj 796 207 s p(h6);
#X obj 796 253 s p(h7);
#X obj 796 300 s p(h8);
#X obj 876 161 s p(h9);
#X obj 876 207 s p(h10);
#X obj 876 253 s p(h11);
#X obj 876 300 s p(h12);
#X obj 955 161 s p(h13);
#X obj 955 207 s p(h14);
#X obj 955 253 s p(h15);
#X obj 955 300 s p(h16);
#X obj 36 403 bng 30 250 50 0 empty empty clear\ kick 0 -10 0 12 #ffe3c6 #000000 #000000;
#X obj 36 479 s p(k1);
#X obj 36 503 s p(k2);
#X obj 36 528 s p(k3);
#X obj 36 553 s p(k4);
#X obj 96 479 s p(k5);
#X obj 96 503 s p(k6);
#X obj 96 528 s p(k7);
#X obj 96 553 s p(k8);
#X obj 155 478 s p(k9);
#X obj 155 502 s p(k10);
#X obj 155 527 s p(k11);
#X obj 155 552 s p(k12);
#X obj 221 479 s p(k13);
#X obj 221 503 s p(k14);
#X obj 221 528 s p(k15);
#X obj 221 553 s p(k16);
#X obj 290 402 bng 30 250 50 0 empty empty clear\ snare 0 -10 0 12 #ffe3c6 #000000 #000000;
#X obj 290 478 s p(s1);
#X obj 290 502 s p(s2);
#X obj 290 527 s p(s3);
#X obj 290 552 s p(s4);
#X obj 348 478 s p(s5);
#X obj 348 502 s p(s6);
#X obj 348 527 s p(s7);
#X obj 348 552 s p(s8);
#X obj 407 478 s p(s9);
#X obj 407 502 s p(s10);
#X obj 407 527 s p(s11);
#X obj 407 552 s p(s12);
#X obj 471 477 s p(s13);
#X obj 471 501 s p(s14);
#X obj 471 526 s p(s15);
#X obj 471 551 s p(s16);
#X obj 539 400 bng 30 250 50 0 empty empty clear\ hihat 0 -10 0 12 #ffe3c6 #000000 #000000;
#X obj 539 476 s p(h1);
#X obj 539 500 s p(h2);
#X obj 539 525 s p(h3);
#X obj 539 550 s p(h4);
#X obj 597 476 s p(h5);
#X obj 597 500 s p(h6);
#X obj 597 525 s p(h7);
#X obj 597 550 s p(h8);
#X obj 655 477 s p(h9);
#X obj 655 501 s p(h10);
#X obj 655 526 s p(h11);
#X obj 655 551 s p(h12);
#X obj 721 477 s p(h13);
#X obj 721 501 s p(h14);
#X obj 721 526 s p(h15);
#X obj 721 551 s p(h16);
#X msg 36 439 0;
#X msg 290 439 0;
#X msg 539 438 0;
#X obj 37 25 bng 30 250 50 0 empty empty random\ all 0 -10 0 12 #ffe3c6 #000000 #000000;
#X obj 36 349 bng 30 250 50 0 empty empty clear\ all 0 -10 0 12 #ffe3c6 #000000 #000000;
#X connect 0 0 1 0;
#X connect 1 0 2 0;
#X connect 1 0 3 0;
#X connect 1 0 4 0;
#X connect 1 0 5 0;
#X connect 6 0 14 0;
#X connect 6 0 13 0;
#X connect 6 0 12 0;
#X connect 6 0 15 0;
#X connect 6 0 18 0;
#X connect 6 0 17 0;
#X connect 6 0 16 0;
#X connect 6 0 19 0;
#X connect 6 0 22 0;
#X connect 6 0 21 0;
#X connect 6 0 20 0;
#X connect 6 0 23 0;
#X connect 6 0 26 0;
#X connect 6 0 25 0;
#X connect 6 0 24 0;
#X connect 6 0 11 0;
#X connect 11 0 7 0;
#X connect 12 0 8 0;
#X connect 13 0 9 0;
#X connect 14 0 10 0;
#X connect 15 0 27 0;
#X connect 16 0 28 0;
#X connect 17 0 29 0;
#X connect 18 0 30 0;
#X connect 19 0 31 0;
#X connect 20 0 32 0;
#X connect 21 0 33 0;
#X connect 22 0 34 0;
#X connect 23 0 35 0;
#X connect 24 0 36 0;
#X connect 25 0 37 0;
#X connect 26 0 38 0;
#X connect 39 0 40 0;
#X connect 39 0 43 0;
#X connect 39 0 42 0;
#X connect 39 0 41 0;
#X connect 39 0 44 0;
#X connect 39 0 47 0;
#X connect 39 0 46 0;
#X connect 39 0 45 0;
#X connect 39 0 48 0;
#X connect 39 0 51 0;
#X connect 39 0 50 0;
#X connect 39 0 49 0;
#X connect 39 0 52 0;
#X connect 39 0 55 0;
#X connect 39 0 54 0;
#X connect 39 0 53 0;
#X connect 40 0 56 0;
#X connect 41 0 57 0;
#X connect 42 0 58 0;
#X connect 43 0 59 0;
#X connect 44 0 60 0;
#X connect 45 0 61 0;
#X connect 46 0 62 0;
#X connect 47 0 63 0;
#X connect 48 0 64 0;
#X connect 49 0 65 0;
#X connect 50 0 66 0;
#X connect 51 0 67 0;
#X connect 52 0 68 0;
#X connect 53 0 69 0;
#X connect 54 0 70 0;
#X connect 55 0 71 0;
#X connect 72 0 73 0;
#X connect 72 0 76 0;
#X connect 72 0 75 0;
#X connect 72 0 74 0;
#X connect 72 0 77 0;
#X connect 72 0 80 0;
#X connect 72 0 79 0;
#X connect 72 0 78 0;
#X connect 72 0 81 0;
#X connect 72 0 84 0;
#X connect 72 0 83 0;
#X connect 72 0 82 0;
#X connect 72 0 85 0;
#X connect 72 0 88 0;
#X connect 72 0 87 0;
#X connect 72 0 86 0;
#X connect 73 0 89 0;
#X connect 74 0 90 0;
#X connect 75 0 91 0;
#X connect 76 0 92 0;
#X connect 77 0 93 0;
#X connect 78 0 94 0;
#X connect 79 0 95 0;
#X connect 80 0 96 0;
#X connect 81 0 97 0;
#X connect 82 0 98 0;
#X connect 83 0 99 0;
#X connect 84 0 100 0;
#X connect 85 0 101 0;
#X connect 86 0 102 0;
#X connect 87 0 103 0;
#X connect 88 0 104 0;
#X connect 105 0 156 0;
#X connect 122 0 157 0;
#X connect 139 0 158 0;
#X connect 156 0 106 0;
#X connect 156 0 121 0;
#X connect 156 0 120 0;
#X connect 156 0 119 0;
#X connect 156 0 118 0;
#X connect 156 0 117 0;
#X connect 156 0 116 0;
#X connect 156 0 115 0;
#X connect 156 0 114 0;
#X connect 156 0 113 0;
#X connect 156 0 112 0;
#X connect 156 0 111 0;
#X connect 156 0 110 0;
#X connect 156 0 109 0;
#X connect 156 0 108 0;
#X connect 156 0 107 0;
#X connect 157 0 123 0;
#X connect 157 0 138 0;
#X connect 157 0 137 0;
#X connect 157 0 136 0;
#X connect 157 0 135 0;
#X connect 157 0 134 0;
#X connect 157 0 133 0;
#X connect 157 0 132 0;
#X connect 157 0 131 0;
#X connect 157 0 130 0;
#X connect 157 0 129 0;
#X connect 157 0 128 0;
#X connect 157 0 127 0;
#X connect 157 0 126 0;
#X connect 157 0 125 0;
#X connect 157 0 124 0;
#X connect 158 0 140 0;
#X connect 158 0 155 0;
#X connect 158 0 154 0;
#X connect 158 0 153 0;
#X connect 158 0 152 0;
#X connect 158 0 151 0;
#X connect 158 0 150 0;
#X connect 158 0 149 0;
#X connect 158 0 148 0;
#X connect 158 0 147 0;
#X connect 158 0 146 0;
#X connect 158 0 145 0;
#X connect 158 0 144 0;
#X connect 158 0 143 0;
#X connect 158 0 142 0;
#X connect 158 0 141 0;
#X connect 159 0 6 0;
#X connect 159 0 39 0;
#X connect 159 0 72 0;
#X connect 160 0 105 0;
#X connect 160 0 122 0;
#X connect 160 0 139 0;
#X restore 290 145 pd presets;
#N canvas 197 105 1105 627 select_samples 0;
#X obj 114 440 dac~;
#X obj 115 240 openpanel;
#N canvas 266 291 450 278 (subpatch) 0;
#X array \$0-sample1 806883 float 2;
#X coords 0 1 806883 -1 127 70 1 0 0;
#X restore 116 152 graph;
#X obj 115 314 soundfiler;
#X floatatom 115 340 7 0 0 0 - - - 0;
#X obj 290 443 dac~;
#X obj 291 317 soundfiler;
#X floatatom 291 343 7 0 0 0 - - - 0;
#X obj 473 444 dac~;
#X obj 474 318 soundfiler;
#X floatatom 474 344 7 0 0 0 - - - 0;
#X obj 654 448 dac~;
#X obj 655 323 soundfiler;
#X floatatom 655 349 7 0 0 0 - - - 0;
#N canvas 266 291 450 278 (subpatch) 0;
#X array \$0-sample2 8688 float 2;
#X coords 0 1 8688 -1 127 70 1 0 0;
#X restore 291 152 graph;
#N canvas 266 291 450 278 (subpatch) 0;
#X array \$0-sample3 11466 float 2;
#X coords 0 1 11466 -1 127 70 1 0 0;
#X restore 474 152 graph;
#N canvas 266 291 450 278 (subpatch) 0;
#X array \$0-sample4 8088 float 2;
#X coords 0 1 8088 -1 127 70 1 0 0;
#X restore 655 152 graph;
#X obj 836 319 soundfiler;
#X floatatom 836 345 7 0 0 0 - - - 0;
#N canvas 266 291 450 278 (subpatch) 0;
#X array \$0-sample5 50798 float 2;
#X coords 0 1 50798 -1 127 70 1 0 0;
#X restore 836 152 graph;
#X obj 835 442 dac~;
#X obj 116 114 bng 19 250 50 0 empty empty empty 0 -10 0 12 #fcfcfc #000000 #000000;
#X obj 291 114 bng 19 250 50 0 empty empty empty 0 -10 0 12 #fcfcfc #000000 #000000;
#X obj 474 113 bng 19 250 50 0 empty empty empty 0 -10 0 12 #fcfcfc #000000 #000000;
#X obj 655 115 bng 19 250 50 0 empty empty empty 0 -10 0 12 #fcfcfc #000000 #000000;
#X obj 836 114 bng 19 250 50 0 empty empty empty 0 -10 0 12 #fcfcfc #000000 #000000;
#X floatatom 193 364 5 0 1 0 - - - 0;
#X floatatom 368 366 5 0 1 0 - - - 0;
#X obj 114 416 *~;
#X obj 193 340 r vol1;
#X obj 290 421 *~;
#X obj 368 342 r vol2;
#X floatatom 553 367 5 0 1 0 - - - 0;
#X obj 473 421 *~;
#X obj 553 343 r vol3;
#X floatatom 734 373 5 0 1 0 - - - 0;
#X obj 654 424 *~;
#X obj 734 349 r vol4;
#X floatatom 915 369 5 0 1 0 - - - 0;
#X obj 835 418 *~;
#X obj 915 345 r vol5;
#X obj 114 390 tabplay~ \$0-sample1;
#X obj 290 393 tabplay~ \$0-sample2;
#X obj 473 394 tabplay~ \$0-sample3;
#X obj 654 398 tabplay~ \$0-sample4;
#X obj 835 392 tabplay~ \$0-sample5;
#X obj 114 363 r samp1;
#X obj 290 366 r samp2;
#X obj 473 367 r samp3;
#X obj 654 372 r samp4;
#X obj 835 368 r samp5;
#X obj 190 240 f \$0;
#X msg 115 289 read -resize \$1 \$2-sample1;
#X obj 115 264 pack s f;
#X obj 33 220 loadbang;
#X obj 291 241 openpanel;
#X obj 366 241 f \$0;
#X obj 291 265 pack s f;
#X obj 474 242 openpanel;
#X obj 549 242 f \$0;
#X obj 474 266 pack s f;
#X msg 291 292 read -resize \$1 \$2-sample2;
#X msg 474 293 read -resize \$1 \$2-sample3;
#X msg 655 298 read -resize \$1 \$2-sample4;
#X msg 836 294 read -resize \$1 \$2-sample5;
#X obj 655 243 openpanel;
#X obj 730 243 f \$0;
#X obj 655 267 pack s f;
#X obj 836 244 openpanel;
#X obj 911 244 f \$0;
#X obj 836 268 pack s f;
#X connect 1 0 53 0;
#X connect 3 0 4 0;
#X connect 6 0 7 0;
#X connect 9 0 10 0;
#X connect 12 0 13 0;
#X connect 17 0 18 0;
#X connect 21 0 1 0;
#X connect 22 0 55 0;
#X connect 23 0 58 0;
#X connect 24 0 65 0;
#X connect 25 0 68 0;
#X connect 26 0 28 1;
#X connect 27 0 30 1;
#X connect 28 0 0 0;
#X connect 28 0 0 1;
#X connect 29 0 26 0;
#X connect 30 0 5 0;
#X connect 30 0 5 1;
#X connect 31 0 27 0;
#X connect 32 0 33 1;
#X connect 33 0 8 0;
#X connect 33 0 8 1;
#X connect 34 0 32 0;
#X connect 35 0 36 1;
#X connect 36 0 11 0;
#X connect 36 0 11 1;
#X connect 37 0 35 0;
#X connect 38 0 39 1;
#X connect 39 0 20 0;
#X connect 39 0 20 1;
#X connect 40 0 38 0;
#X connect 41 0 28 0;
#X connect 42 0 30 0;
#X connect 43 0 33 0;
#X connect 44 0 36 0;
#X connect 45 0 39 0;
#X connect 46 0 41 0;
#X connect 47 0 42 0;
#X connect 48 0 43 0;
#X connect 49 0 44 0;
#X connect 50 0 45 0;
#X connect 51 0 53 1;
#X connect 52 0 3 0;
#X connect 53 0 52 0;
#X connect 54 0 51 0;
#X connect 54 0 56 0;
#X connect 54 0 59 0;
#X connect 54 0 66 0;
#X connect 54 0 69 0;
#X connect 55 0 57 0;
#X connect 56 0 57 1;
#X connect 57 0 61 0;
#X connect 58 0 60 0;
#X connect 59 0 60 1;
#X connect 60 0 62 0;
#X connect 61 0 6 0;
#X connect 62 0 9 0;
#X connect 63 0 12 0;
#X connect 64 0 17 0;
#X connect 65 0 67 0;
#X connect 66 0 67 1;
#X connect 67 0 63 0;
#X connect 68 0 70 0;
#X connect 69 0 70 1;
#X connect 70 0 64 0;
#X coords 0 -1 1 1 893 132 2 100 100;
#X restore 501 20 pd select_samples;
#X obj 1214 682 s samp1;
#X obj 1211 925 s samp2;
#X obj 1212 1167 s samp3;
#X connect 0 0 1 0;
#X connect 1 0 4 0;
#X connect 1 0 23 0;
#X connect 2 0 3 0;
#X connect 3 0 1 0;
#X connect 4 0 5 0;
#X connect 5 0 64 0;
#X connect 6 0 7 0;
#X connect 6 0 8 0;
#X connect 6 0 22 0;
#X connect 6 0 21 0;
#X connect 6 0 20 0;
#X connect 6 0 19 0;
#X connect 6 0 18 0;
#X connect 6 0 17 0;
#X connect 6 0 16 0;
#X connect 6 0 15 0;
#X connect 6 0 14 0;
#X connect 6 0 13 0;
#X connect 6 0 12 0;
#X connect 6 0 11 0;
#X connect 6 0 10 0;
#X connect 6 0 9 0;
#X connect 7 0 24 0;
#X connect 8 0 25 0;
#X connect 9 0 26 0;
#X connect 10 0 27 0;
#X connect 11 0 28 0;
#X connect 12 0 29 0;
#X connect 13 0 30 0;
#X connect 14 0 31 0;
#X connect 15 0 33 0;
#X connect 16 0 34 0;
#X connect 17 0 35 0;
#X connect 18 0 36 0;
#X connect 19 0 37 0;
#X connect 20 0 38 0;
#X connect 21 0 39 0;
#X connect 22 0 32 0;
#X connect 23 0 1 1;
#X connect 24 0 40 0;
#X connect 25 0 41 0;
#X connect 26 0 42 0;
#X connect 27 0 43 0;
#X connect 28 0 44 0;
#X connect 29 0 45 0;
#X connect 30 0 46 0;
#X connect 31 0 49 0;
#X connect 32 0 47 0;
#X connect 33 0 48 0;
#X connect 34 0 51 0;
#X connect 35 0 50 0;
#X connect 36 0 52 0;
#X connect 37 0 53 0;
#X connect 38 0 54 0;
#X connect 39 0 55 0;
#X connect 56 0 82 0;
#X connect 58 0 88 0;
#X connect 59 0 91 0;
#X connect 60 0 94 0;
#X connect 61 0 97 0;
#X connect 62 0 100 0;
#X connect 63 0 103 0;
#X connect 64 0 6 0;
#X connect 65 0 106 0;
#X connect 66 0 109 0;
#X connect 67 0 112 0;
#X connect 68 0 115 0;
#X connect 69 0 118 0;
#X connect 70 0 121 0;
#X connect 71 0 124 0;
#X connect 72 0 127 0;
#X connect 73 0 0 0;
#X connect 74 0 78 0;
#X connect 75 0 73 0;
#X connect 76 0 75 0;
#X connect 77 0 73 1;
#X connect 78 0 77 0;
#X connect 79 0 74 0;
#X connect 80 0 137 1;
#X connect 81 0 80 0;
#X connect 82 0 83 0;
#X connect 83 0 136 0;
#X connect 84 0 83 1;
#X connect 85 0 86 0;
#X connect 86 0 136 0;
#X connect 87 0 86 1;
#X connect 88 0 89 0;
#X connect 89 0 136 0;
#X connect 90 0 89 1;
#X connect 91 0 92 0;
#X connect 92 0 136 0;
#X connect 93 0 92 1;
#X connect 94 0 95 0;
#X connect 95 0 136 0;
#X connect 96 0 95 1;
#X connect 97 0 98 0;
#X connect 98 0 136 0;
#X connect 99 0 98 1;
#X connect 100 0 101 0;
#X connect 101 0 136 0;
#X connect 102 0 101 1;
#X connect 103 0 104 0;
#X connect 104 0 136 0;
#X connect 105 0 104 1;
#X connect 106 0 107 0;
#X connect 107 0 136 0;
#X connect 108 0 107 1;
#X connect 109 0 110 0;
#X connect 110 0 136 0;
#X connect 111 0 110 1;
#X connect 112 0 113 0;
#X connect 113 0 136 0;
#X connect 114 0 113 1;
#X connect 115 0 116 0;
#X connect 116 0 136 0;
#X connect 117 0 116 1;
#X connect 118 0 119 0;
#X connect 119 0 136 0;
#X connect 120 0 119 1;
#X connect 121 0 122 0;
#X connect 122 0 136 0;
#X connect 123 0 122 1;
#X connect 124 0 125 0;
#X connect 125 0 136 0;
#X connect 126 0 125 1;
#X connect 127 0 128 0;
#X connect 128 0 136 0;
#X connect 129 0 128 1;
#X connect 130 0 2 0;
#X connect 130 0 73 0;
#X connect 131 0 132 0;
#X connect 133 0 323 0;
#X connect 134 0 135 0;
#X connect 135 0 322 0;
#X connect 136 0 137 0;
#X connect 137 0 327 0;
#X connect 138 0 84 0;
#X connect 139 0 87 0;
#X connect 140 0 90 0;
#X connect 141 0 93 0;
#X connect 142 0 96 0;
#X connect 143 0 99 0;
#X connect 144 0 102 0;
#X connect 145 0 105 0;
#X connect 146 0 108 0;
#X connect 147 0 111 0;
#X connect 148 0 114 0;
#X connect 149 0 117 0;
#X connect 150 0 120 0;
#X connect 151 0 123 0;
#X connect 152 0 126 0;
#X connect 153 0 129 0;
#X connect 154 0 172 0;
#X connect 156 0 178 0;
#X connect 157 0 181 0;
#X connect 158 0 184 0;
#X connect 159 0 187 0;
#X connect 160 0 190 0;
#X connect 161 0 193 0;
#X connect 162 0 196 0;
#X connect 163 0 199 0;
#X connect 164 0 202 0;
#X connect 165 0 205 0;
#X connect 166 0 208 0;
#X connect 167 0 211 0;
#X connect 168 0 214 0;
#X connect 169 0 217 0;
#X connect 170 0 221 1;
#X connect 171 0 170 0;
#X connect 172 0 173 0;
#X connect 173 0 220 0;
#X connect 174 0 173 1;
#X connect 175 0 176 0;
#X connect 176 0 220 0;
#X connect 177 0 176 1;
#X connect 178 0 179 0;
#X connect 179 0 220 0;
#X connect 180 0 179 1;
#X connect 181 0 182 0;
#X connect 182 0 220 0;
#X connect 183 0 182 1;
#X connect 184 0 185 0;
#X connect 185 0 220 0;
#X connect 186 0 185 1;
#X connect 187 0 188 0;
#X connect 188 0 220 0;
#X connect 189 0 188 1;
#X connect 190 0 191 0;
#X connect 191 0 220 0;
#X connect 192 0 191 1;
#X connect 193 0 194 0;
#X connect 194 0 220 0;
#X connect 195 0 194 1;
#X connect 196 0 197 0;
#X connect 197 0 220 0;
#X connect 198 0 197 1;
#X connect 199 0 200 0;
#X connect 200 0 220 0;
#X connect 201 0 200 1;
#X connect 202 0 203 0;
#X connect 203 0 220 0;
#X connect 204 0 203 1;
#X connect 205 0 206 0;
#X connect 206 0 220 0;
#X connect 207 0 206 1;
#X connect 208 0 209 0;
#X connect 209 0 220 0;
#X connect 210 0 209 1;
#X connect 211 0 212 0;
#X connect 212 0 220 0;
#X connect 213 0 212 1;
#X connect 214 0 215 0;
#X connect 215 0 220 0;
#X connect 216 0 215 1;
#X connect 217 0 218 0;
#X connect 218 0 220 0;
#X connect 219 0 218 1;
#X connect 220 0 221 0;
#X connect 221 0 328 0;
#X connect 222 0 240 0;
#X connect 224 0 246 0;
#X connect 225 0 249 0;
#X connect 226 0 252 0;
#X connect 227 0 255 0;
#X connect 228 0 258 0;
#X connect 229 0 261 0;
#X connect 230 0 264 0;
#X connect 231 0 267 0;
#X connect 232 0 270 0;
#X connect 233 0 273 0;
#X connect 234 0 276 0;
#X connect 235 0 279 0;
#X connect 236 0 282 0;
#X connect 237 0 285 0;
#X connect 238 0 289 1;
#X connect 239 0 238 0;
#X connect 240 0 241 0;
#X connect 241 0 288 0;
#X connect 242 0 241 1;
#X connect 243 0 244 0;
#X connect 244 0 288 0;
#X connect 245 0 244 1;
#X connect 246 0 247 0;
#X connect 247 0 288 0;
#X connect 248 0 247 1;
#X connect 249 0 250 0;
#X connect 250 0 288 0;
#X connect 251 0 250 1;
#X connect 252 0 253 0;
#X connect 253 0 288 0;
#X connect 254 0 253 1;
#X connect 255 0 256 0;
#X connect 256 0 288 0;
#X connect 257 0 256 1;
#X connect 258 0 259 0;
#X connect 259 0 288 0;
#X connect 260 0 259 1;
#X connect 261 0 262 0;
#X connect 262 0 288 0;
#X connect 263 0 262 1;
#X connect 264 0 265 0;
#X connect 265 0 288 0;
#X connect 266 0 265 1;
#X connect 267 0 268 0;
#X connect 268 0 288 0;
#X connect 269 0 268 1;
#X connect 270 0 271 0;
#X connect 271 0 288 0;
#X connect 272 0 271 1;
#X connect 273 0 274 0;
#X connect 274 0 288 0;
#X connect 275 0 274 1;
#X connect 276 0 277 0;
#X connect 277 0 288 0;
#X connect 278 0 277 1;
#X connect 279 0 280 0;
#X connect 280 0 288 0;
#X connect 281 0 280 1;
#X connect 282 0 283 0;
#X connect 283 0 288 0;
#X connect 284 0 283 1;
#X connect 285 0 286 0;
#X connect 286 0 288 0;
#X connect 287 0 286 1;
#X connect 288 0 289 0;
#X connect 289 0 329 0;
#X connect 290 0 174 0;
#X connect 291 0 177 0;
#X connect 292 0 180 0;
#X connect 293 0 183 0;
#X connect 294 0 186 0;
#X connect 295 0 189 0;
#X connect 296 0 192 0;
#X connect 297 0 195 0;
#X connect 298 0 198 0;
#X connect 299 0 201 0;
#X connect 300 0 204 0;
#X connect 301 0 207 0;
#X connect 302 0 210 0;
#X connect 303 0 213 0;
#X connect 304 0 216 0;
#X connect 305 0 219 0;
#X connect 306 0 242 0;
#X connect 307 0 245 0;
#X connect 308 0 248 0;
#X connect 309 0 251 0;
#X connect 310 0 254 0;
#X connect 311 0 257 0;
#X connect 312 0 260 0;
#X connect 313 0 263 0;
#X connect 314 0 266 0;
#X connect 315 0 269 0;
#X connect 316 0 272 0;
#X connect 317 0 275 0;
#X connect 318 0 278 0;
#X connect 319 0 281 0;
#X connect 320 0 284 0;
#X connect 321 0 287 0;
#X connect 322 0 133 0;
#X connect 324 0 76 0;
