#N canvas 26 37 871 553 12;
#X obj 34 66 r midi;
#X obj 71 90 + 4;
#X obj 71 114 mtof;
#X obj 108 114 mtof;
#X obj 34 114 mtof;
#X obj 34 90 + 0;
#X obj 108 90 + 7;
#X obj 34 138 osc~;
#X obj 186 65 r midi;
#X obj 223 113 mtof;
#X obj 260 113 mtof;
#X obj 186 113 mtof;
#X obj 186 89 + 0;
#X obj 260 89 + 7;
#X obj 223 89 + 3;
#X obj 337 64 r midi;
#X obj 374 88 + 4;
#X obj 374 112 mtof;
#X obj 411 112 mtof;
#X obj 337 112 mtof;
#X obj 337 88 + 0;
#X obj 484 64 r midi;
#X obj 521 112 mtof;
#X obj 558 112 mtof;
#X obj 484 112 mtof;
#X obj 484 88 + 0;
#X obj 521 88 + 3;
#X text 335 35 aumentado;
#X text 481 36 disminuido;
#X text 33 37 mayor;
#X text 185 37 menor;
#X obj 411 88 + 8;
#X obj 558 88 + 6;
#X obj 33 279 r midi;
#X obj 70 303 + 4;
#X obj 70 327 mtof;
#X obj 107 327 mtof;
#X obj 33 327 mtof;
#X obj 33 303 + 0;
#X obj 107 303 + 7;
#X text 32 250 maj7;
#X obj 144 327 mtof;
#X obj 144 303 + 11;
#X obj 187 279 r midi;
#X obj 224 303 + 4;
#X obj 224 327 mtof;
#X obj 261 327 mtof;
#X obj 187 327 mtof;
#X obj 187 303 + 0;
#X obj 261 303 + 7;
#X obj 298 327 mtof;
#X text 186 250 7;
#X obj 298 303 + 10;
#X obj 483 280 r midi;
#X obj 520 328 mtof;
#X obj 557 328 mtof;
#X obj 483 328 mtof;
#X obj 483 304 + 0;
#X obj 557 304 + 7;
#X obj 338 279 r midi;
#X obj 375 327 mtof;
#X obj 412 327 mtof;
#X obj 338 327 mtof;
#X obj 338 303 + 0;
#X obj 412 303 + 7;
#X text 337 250 sus2;
#X obj 520 304 + 5;
#X obj 375 303 + 2;
#X text 482 251 sus4;
#X obj 70 162 r seleccion;
#X obj 34 186 *~;
#X obj 34 210 dac~;
#X obj 652 312 s seleccion;
#X obj 70 186 == 0;
#X obj 71 138 osc~;
#X obj 108 138 osc~;
#X obj 34 162 hip~;
#X obj 186 137 osc~;
#X obj 222 161 r seleccion;
#X obj 186 185 *~;
#X obj 186 209 dac~;
#X obj 223 137 osc~;
#X obj 260 137 osc~;
#X obj 186 161 hip~;
#X obj 337 136 osc~;
#X obj 373 160 r seleccion;
#X obj 337 184 *~;
#X obj 337 208 dac~;
#X obj 374 136 osc~;
#X obj 411 136 osc~;
#X obj 337 160 hip~;
#X obj 484 136 osc~;
#X obj 520 160 r seleccion;
#X obj 484 184 *~;
#X obj 484 208 dac~;
#X obj 521 136 osc~;
#X obj 558 136 osc~;
#X obj 484 160 hip~;
#X obj 33 351 osc~;
#X obj 69 375 r seleccion;
#X obj 33 399 *~;
#X obj 33 423 dac~;
#X obj 70 351 osc~;
#X obj 107 351 osc~;
#X obj 33 375 hip~;
#X obj 483 352 osc~;
#X obj 519 376 r seleccion;
#X obj 483 400 *~;
#X obj 483 424 dac~;
#X obj 520 352 osc~;
#X obj 557 352 osc~;
#X obj 483 376 hip~;
#X obj 338 351 osc~;
#X obj 374 375 r seleccion;
#X obj 338 399 *~;
#X obj 338 423 dac~;
#X obj 375 351 osc~;
#X obj 412 351 osc~;
#X obj 338 375 hip~;
#X obj 144 351 osc~;
#X obj 187 352 osc~;
#X obj 223 376 r seleccion;
#X obj 187 400 *~;
#X obj 187 424 dac~;
#X obj 224 352 osc~;
#X obj 261 352 osc~;
#X obj 187 376 hip~;
#X obj 298 352 osc~;
#X obj 222 185 == 1;
#X obj 373 184 == 2;
#X obj 520 184 == 3;
#X obj 69 399 == 4;
#X obj 223 400 == 5;
#X obj 519 400 == 7;
#X obj 374 399 == 6;
#X obj 652 156 vradio 19 1 0 8 empty empty empty 0 -10 0 12 #fcfcfc #000000 #000000 0;
#X connect 0 0 1 0;
#X connect 0 0 5 0;
#X connect 0 0 6 0;
#X connect 1 0 2 0;
#X connect 2 0 74 0;
#X connect 3 0 75 0;
#X connect 4 0 7 0;
#X connect 5 0 4 0;
#X connect 6 0 3 0;
#X connect 7 0 76 0;
#X connect 8 0 12 0;
#X connect 8 0 13 0;
#X connect 8 0 14 0;
#X connect 9 0 81 0;
#X connect 10 0 82 0;
#X connect 11 0 77 0;
#X connect 12 0 11 0;
#X connect 13 0 10 0;
#X connect 14 0 9 0;
#X connect 15 0 16 0;
#X connect 15 0 20 0;
#X connect 15 0 31 0;
#X connect 16 0 17 0;
#X connect 17 0 88 0;
#X connect 18 0 89 0;
#X connect 19 0 84 0;
#X connect 20 0 19 0;
#X connect 21 0 25 0;
#X connect 21 0 26 0;
#X connect 21 0 32 0;
#X connect 22 0 95 0;
#X connect 23 0 96 0;
#X connect 24 0 91 0;
#X connect 25 0 24 0;
#X connect 26 0 22 0;
#X connect 31 0 18 0;
#X connect 32 0 23 0;
#X connect 33 0 34 0;
#X connect 33 0 38 0;
#X connect 33 0 39 0;
#X connect 33 0 42 0;
#X connect 34 0 35 0;
#X connect 35 0 102 0;
#X connect 36 0 103 0;
#X connect 37 0 98 0;
#X connect 38 0 37 0;
#X connect 39 0 36 0;
#X connect 41 0 119 0;
#X connect 42 0 41 0;
#X connect 43 0 44 0;
#X connect 43 0 48 0;
#X connect 43 0 49 0;
#X connect 43 0 52 0;
#X connect 44 0 45 0;
#X connect 45 0 124 0;
#X connect 46 0 125 0;
#X connect 47 0 120 0;
#X connect 48 0 47 0;
#X connect 49 0 46 0;
#X connect 50 0 127 0;
#X connect 52 0 50 0;
#X connect 53 0 57 0;
#X connect 53 0 58 0;
#X connect 53 0 66 0;
#X connect 54 0 109 0;
#X connect 55 0 110 0;
#X connect 56 0 105 0;
#X connect 57 0 56 0;
#X connect 58 0 55 0;
#X connect 59 0 63 0;
#X connect 59 0 64 0;
#X connect 59 0 67 0;
#X connect 60 0 116 0;
#X connect 61 0 117 0;
#X connect 62 0 112 0;
#X connect 63 0 62 0;
#X connect 64 0 61 0;
#X connect 66 0 54 0;
#X connect 67 0 60 0;
#X connect 69 0 73 0;
#X connect 70 0 71 0;
#X connect 70 0 71 1;
#X connect 73 0 70 1;
#X connect 74 0 76 0;
#X connect 75 0 76 0;
#X connect 76 0 70 0;
#X connect 77 0 83 0;
#X connect 78 0 128 0;
#X connect 79 0 80 0;
#X connect 79 0 80 1;
#X connect 81 0 83 0;
#X connect 82 0 83 0;
#X connect 83 0 79 0;
#X connect 84 0 90 0;
#X connect 85 0 129 0;
#X connect 86 0 87 0;
#X connect 86 0 87 1;
#X connect 88 0 90 0;
#X connect 89 0 90 0;
#X connect 90 0 86 0;
#X connect 91 0 97 0;
#X connect 92 0 130 0;
#X connect 93 0 94 0;
#X connect 93 0 94 1;
#X connect 95 0 97 0;
#X connect 96 0 97 0;
#X connect 97 0 93 0;
#X connect 98 0 104 0;
#X connect 99 0 131 0;
#X connect 100 0 101 0;
#X connect 100 0 101 1;
#X connect 102 0 104 0;
#X connect 103 0 104 0;
#X connect 104 0 100 0;
#X connect 105 0 111 0;
#X connect 106 0 133 0;
#X connect 107 0 108 0;
#X connect 107 0 108 1;
#X connect 109 0 111 0;
#X connect 110 0 111 0;
#X connect 111 0 107 0;
#X connect 112 0 118 0;
#X connect 113 0 134 0;
#X connect 114 0 115 0;
#X connect 114 0 115 1;
#X connect 116 0 118 0;
#X connect 117 0 118 0;
#X connect 118 0 114 0;
#X connect 119 0 104 0;
#X connect 120 0 126 0;
#X connect 121 0 132 0;
#X connect 122 0 123 0;
#X connect 122 0 123 1;
#X connect 124 0 126 0;
#X connect 125 0 126 0;
#X connect 126 0 122 0;
#X connect 127 0 126 0;
#X connect 128 0 79 1;
#X connect 129 0 86 1;
#X connect 130 0 93 1;
#X connect 131 0 100 1;
#X connect 132 0 122 1;
#X connect 133 0 107 1;
#X connect 134 0 114 1;
#X connect 135 0 72 0;
