#N canvas 885 142 555 436 12;
#X obj 21 34 key;
#X floatatom 21 58 5 0 0 0 - - - 0;
#X obj 81 150 s bang;
#X msg 21 106 48;
#X msg 51 106 49;
#X msg 81 106 50;
#X msg 112 106 51;
#X msg 142 106 52;
#X msg 173 106 53;
#X msg 204 106 54;
#X msg 234 106 55;
#X msg 264 106 56;
#X msg 295 106 57;
#X msg 325 106 58;
#X msg 356 106 59;
#X msg 386 106 60;
#X obj 21 81 select 97 119 115 101 100 102 116 103 121 104 117 106 107 122 120, f 65;
#X floatatom 22 298 5 0 0 0 - - - 0;
#X obj 21 150 - 48;
#X floatatom 22 345 5 0 0 0 - - - 0;
#X obj 22 321 expr $f1+(11*$f2);
#X floatatom 257 268 5 0 0 0 - - - 0;
#X msg 293 145 1;
#X msg 257 145 -1;
#X obj 257 193 int;
#X obj 257 169 + 4;
#X obj 191 145 loadbang;
#X msg 191 169 4;
#X obj 257 241 expr if ($f1>8 \, 8 \, $f1);
#X obj 257 217 expr if ($f1<3 \, 3 \, $f1);
#X obj 22 368 s midi_kb;
#X connect 0 0 1 0;
#X connect 1 0 16 0;
#X connect 3 0 2 0;
#X connect 3 0 18 0;
#X connect 4 0 2 0;
#X connect 4 0 18 0;
#X connect 5 0 2 0;
#X connect 5 0 18 0;
#X connect 6 0 2 0;
#X connect 6 0 18 0;
#X connect 7 0 2 0;
#X connect 7 0 18 0;
#X connect 8 0 2 0;
#X connect 8 0 18 0;
#X connect 9 0 2 0;
#X connect 9 0 18 0;
#X connect 10 0 2 0;
#X connect 10 0 18 0;
#X connect 11 0 2 0;
#X connect 11 0 18 0;
#X connect 12 0 2 0;
#X connect 12 0 18 0;
#X connect 13 0 2 0;
#X connect 13 0 18 0;
#X connect 14 0 2 0;
#X connect 14 0 18 0;
#X connect 15 0 2 0;
#X connect 15 0 18 0;
#X connect 16 0 3 0;
#X connect 16 1 4 0;
#X connect 16 2 5 0;
#X connect 16 3 6 0;
#X connect 16 4 7 0;
#X connect 16 5 8 0;
#X connect 16 6 9 0;
#X connect 16 7 10 0;
#X connect 16 8 11 0;
#X connect 16 9 12 0;
#X connect 16 10 13 0;
#X connect 16 11 14 0;
#X connect 16 12 15 0;
#X connect 16 13 23 0;
#X connect 16 14 22 0;
#X connect 17 0 20 0;
#X connect 18 0 17 0;
#X connect 19 0 30 0;
#X connect 20 0 19 0;
#X connect 21 0 20 1;
#X connect 22 0 25 0;
#X connect 23 0 25 0;
#X connect 24 0 29 0;
#X connect 25 0 24 0;
#X connect 26 0 27 0;
#X connect 27 0 21 0;
#X connect 28 0 25 1;
#X connect 28 0 21 0;
#X connect 29 0 28 0;
