#N canvas 166 48 931 676 12;
#N canvas 240 38 923 650 sub_moog 1;
#X msg 791 254 saturation \$1;
#X msg 764 225 oversample \$1;
#N canvas 835 159 513 424 test 0;
#X floatatom 105 105 5 0 128 0 - - - 0;
#X obj 65 34 loadbang;
#X msg 105 70 57;
#X msg 65 102 1;
#X obj 105 127 vradio 19 1 0 3 empty empty empty 0 -8 0 10 #dfdfdf #000000 #000000 0;
#X text 127 126 Sine, f 8;
#X text 127 146 Sawtooth;
#X text 127 165 Noise, f 8;
#X text 144 104 Pitch;
#X obj 152 71 inlet;
#X obj 105 195 outlet;
#X obj 155 195 outlet;
#X connect 0 0 10 0;
#X connect 1 0 2 0;
#X connect 1 0 3 0;
#X connect 2 0 0 0;
#X connect 3 0 4 0;
#X connect 4 0 11 0;
#X connect 9 0 0 0;
#X coords 0 -1 1 1 93 90 2 100 100;
#X restore 143 222 pd test;
#X text 504 173 Hz;
#X floatatom 528 191 8 0 0 0 - - - 0;
#X obj 531 165 hsl 162 19 60 5000 0 1 empty empty cutoff\ freq 85 32 0 12 #c7c6ff #000000 #000000 11000 1;
#X obj 531 220 hsl 162 19 0 8 0 1 empty empty resonance\ (0-8) 55 32 0 12 #c7c6ff #000000 #000000 6600 1;
#X floatatom 528 246 5 0 8 0 - - - 0;
#X text 565 220 (> 4 to oscillate);
#X obj 312 220 hsl 162 19 0 10 0 1 empty empty saturation 85 32 0 12 #dfdfdf #000000 #000000 7200 1;
#X floatatom 309 247 5 0 8 0 - - - 0;
#X obj 313 165 hsl 162 19 1 10 0 1 empty empty oversampling 70 32 0 12 #dfdfdf #000000 #000000 7900 1;
#X floatatom 310 192 5 0 8 0 - - - 0;
#X obj 825 434 snapshot~;
#X obj 676 141 tgl 19 0 empty empty empty 0 -10 0 12 #e3c6ff #000000 #000000 0 1;
#X obj 531 362 hsl 162 19 1 300 0 0 empty empty snapshot\ rate -2 -10 0 12 #e3c6ff #000000 #000000 0 1;
#X obj 531 430 hsl 162 19 200 3500 0 0 empty empty base\ cutoff\ freq -2 -10 0 12 #e3c6ff #000000 #000000 0 1;
#X obj 531 295 hsl 162 19 0.1 300 1 0 empty empty LFO\ rate -2 -10 0 12 #e3c6ff #000000 #000000 0 1;
#X obj 531 497 hsl 162 19 0 1500 0 0 empty empty deviation -2 -10 0 12 #e3c6ff #000000 #000000 0 1;
#X obj 796 377 metro;
#X obj 843 352 osc~;
#X obj 843 376 *~;
#X obj 825 400 +~;
#X floatatom 528 321 5 0 0 0 - - - 0;
#X floatatom 528 388 5 0 0 0 - - - 0;
#X floatatom 528 456 5 0 0 0 - - - 0;
#X floatatom 528 523 5 0 0 0 - - - 0;
#X obj 193 76 t f b;
#X obj 143 444 adsr;
#X obj 825 458 s snap;
#X obj 529 57 r snap;
#X obj 311 362 hsl 101 19 0 100 0 0 empty empty amplitude -2 -10 0 12 #ffe3c6 #000000 #000000 0 1;
#X floatatom 309 321 5 0 0 0 - - - 0;
#X obj 312 295 hsl 101 19 0 100 0 0 empty empty reverb -2 -10 0 12 #ffc7c6 #000000 #000000 0 1;
#X obj 765 281 s setVoice;
#X floatatom 308 388 5 0 0 0 - - - 0;
#X obj 144 154 vradio 19 1 0 3 empty empty empty 0 -10 0 12 #fcfcfc #000000 #000000 0;
#X text 168 154 note seq;
#X text 168 174 keyboard;
#X text 168 194 midi;
#X obj 356 320 tgl 19 0 empty empty empty 0 -10 0 12 #fcfcfc #000000 #000000 0 1;
#X text 597 141 filter osc;
#X obj 443 598 outlet~;
#X obj 636 598 outlet~;
#X obj 443 568 clone moog_voice 64, f 28;
#X msg 127 626 next \$1;
#X obj 127 600 s voiceWave;
#X obj 765 173 s voiceCutoff;
#X obj 764 199 s voiceResonance;
#X obj 302 572 s voiceRevAmt;
#X obj 302 602 s voiceRevOn;
#X obj 302 631 s voiceAmplitude;
#X obj 127 575 throw~ voiceEnv;
#N canvas 72 256 450 300 select_input 0;
#X obj 46 101 r midi;
#X obj 72 142 spigot;
#X obj 111 115 == 0;
#X obj 190 142 spigot;
#X obj 156 101 r kb_midi;
#X obj 229 115 == 1;
#X obj 299 142 spigot;
#X obj 266 91 notein;
#X obj 266 115 spigot;
#X obj 339 115 == 2;
#X obj 197 217 outlet;
#X obj 266 115;
#X obj 193 20 inlet;
#X connect 0 0 1 0;
#X connect 1 0 10 0;
#X connect 2 0 1 1;
#X connect 3 0 10 0;
#X connect 4 0 3 0;
#X connect 5 0 3 1;
#X connect 6 0 10 0;
#X connect 7 0 8 0;
#X connect 7 0 11 0;
#X connect 7 1 8 1;
#X connect 8 0 6 0;
#X connect 9 0 6 1;
#X connect 12 0 2 0;
#X connect 12 0 5 0;
#X connect 12 0 9 0;
#X restore 192 51 pd select_input;
#X connect 0 0 34 0;
#X connect 1 0 34 0;
#X connect 2 0 45 0;
#X connect 2 1 46 0;
#X connect 4 0 47 0;
#X connect 5 0 4 0;
#X connect 6 0 7 0;
#X connect 7 0 48 0;
#X connect 9 0 10 0;
#X connect 10 0 0 0;
#X connect 11 0 12 0;
#X connect 12 0 1 0;
#X connect 13 0 29 0;
#X connect 14 0 19 0;
#X connect 15 0 24 0;
#X connect 15 0 19 1;
#X connect 16 0 25 0;
#X connect 16 0 22 0;
#X connect 17 0 20 0;
#X connect 17 0 23 0;
#X connect 18 0 26 0;
#X connect 18 0 21 1;
#X connect 19 0 13 0;
#X connect 20 0 21 0;
#X connect 21 0 22 1;
#X connect 22 0 13 0;
#X connect 27 0 2 0;
#X connect 27 1 28 0;
#X connect 30 0 5 0;
#X connect 31 0 35 0;
#X connect 32 0 49 0;
#X connect 33 0 32 0;
#X connect 35 0 51 0;
#X connect 36 0 53 0;
#X connect 40 0 50 0;
#X connect 44 0 42 0;
#X connect 44 1 43 0;
#X connect 45 0 44 0;
#X connect 53 0 27 0;
#X coords 0 -1 1 1 640 463 2 100 100;
#X restore 84 47 pd sub_moog;
#X obj 84 540 dac~;
#X connect 0 0 1 0;
#X connect 0 1 1 1;
