#N canvas 373 26 1067 678 12;
#X text 151 53 note;
#X obj 489 436 outlet~;
#X obj 559 436 outlet~;
#X obj 436 158 bob~, f 24;
#X obj 518 121 line~;
#X obj 518 90 pack f 50;
#X obj 601 107 sig~;
#X obj 487 222 *~, f 4;
#X obj 487 299 *~ 0.1;
#X obj 526 276 / 100;
#X obj 487 249 rev1~, f 11;
#X obj 487 328 clip~ -0.5 0.5;
#X obj 436 133 r setVoice;
#X obj 487 273 *~;
#X obj 574 248 *~;
#X obj 564 210 expr (-1*$f1)+1;
#X obj 254 190 min~;
#X obj 298 166 -~ 1;
#X obj 298 191 *~ -50;
#X obj 174 95 mtof;
#X obj 254 133 phasor~ 220;
#X obj 174 150 osc~ 220;
#X obj 303 282 noise~;
#X obj 174 320 *~ 0;
#X obj 254 287 *~ 0;
#X obj 303 330 *~ 0;
#X obj 236 381 +~;
#X obj 199 268 == 0;
#X obj 329 247 == 2;
#X obj 279 249 == 1;
#X obj 254 215 -~ 0.5;
#X obj 154 30 inlet;
#X text 486 459 left;
#X text 556 459 right;
#X obj 74 187 r voiceWave;
#X obj 485 51 r voiceCutoff;
#X obj 621 48 r voiceResonance;
#X obj 668 140 r voiceRevAmt;
#X obj 666 115 r voiceRevOn;
#X obj 647 245 r voiceAmplitude;
#X obj 797 159 r voiceEnv;
#X connect 3 0 7 0;
#X connect 4 0 3 1;
#X connect 5 0 4 0;
#X connect 6 0 3 2;
#X connect 7 0 10 0;
#X connect 7 0 14 0;
#X connect 8 0 11 0;
#X connect 9 0 8 1;
#X connect 10 0 13 0;
#X connect 11 0 1 0;
#X connect 11 0 2 0;
#X connect 12 0 3 0;
#X connect 13 0 8 0;
#X connect 14 0 8 0;
#X connect 15 0 14 1;
#X connect 16 0 30 0;
#X connect 17 0 18 0;
#X connect 18 0 16 1;
#X connect 19 0 20 0;
#X connect 19 0 21 0;
#X connect 20 0 16 0;
#X connect 20 0 17 0;
#X connect 21 0 23 0;
#X connect 22 0 25 0;
#X connect 23 0 26 0;
#X connect 24 0 26 1;
#X connect 25 0 26 1;
#X connect 26 0 3 0;
#X connect 27 0 23 1;
#X connect 28 0 25 1;
#X connect 29 0 24 1;
#X connect 30 0 24 0;
#X connect 31 0 19 0;
#X connect 34 0 27 0;
#X connect 34 0 29 0;
#X connect 34 0 28 0;
#X connect 35 0 5 0;
#X connect 36 0 6 0;
#X connect 37 0 10 1;
#X connect 38 0 7 1;
#X connect 38 0 15 0;
#X connect 39 0 9 0;
#X connect 40 0 7 1;
