#N canvas 258 74 931 676 12;
#X declare -stdpath ./;
#X obj 87 242 bob~, f 24;
#X msg 682 227 print;
#X msg 674 197 clear;
#X msg 660 167 saturation \$1;
#X msg 634 82 oversample \$1;
#N canvas 633 157 513 424 test 0;
#X obj 313 147 min~;
#X obj 357 123 -~ 1;
#X obj 357 148 *~ -50;
#X floatatom 105 105 5 0 128 0 - - - 0;
#X obj 233 52 mtof;
#X text 301 49 test signal;
#X obj 313 90 phasor~ 220;
#X obj 233 107 osc~ 220;
#X obj 65 34 loadbang;
#X msg 105 70 57;
#X msg 65 102 1;
#X obj 362 239 noise~;
#X obj 233 277 *~ 0;
#X obj 313 244 *~ 0;
#X obj 362 287 *~ 0;
#X obj 295 338 +~;
#X obj 295 373 outlet~;
#X obj 59 316 declare -stdpath ./;
#X obj 105 127 vradio 19 1 0 3 empty empty empty 0 -8 0 10 #dfdfdf #000000 #000000 0;
#X obj 258 225 == 0;
#X obj 105 207 == 2;
#X obj 338 206 == 1;
#X obj 313 172 -~ 0.5;
#X text 127 126 Sine, f 8;
#X text 127 146 Sawtooth;
#X text 127 165 Noise, f 8;
#X text 144 104 Pitch;
#X obj 152 71 inlet;
#X connect 0 0 22 0;
#X connect 1 0 2 0;
#X connect 2 0 0 1;
#X connect 3 0 4 0;
#X connect 4 0 6 0;
#X connect 4 0 7 0;
#X connect 6 0 0 0;
#X connect 6 0 1 0;
#X connect 7 0 12 0;
#X connect 8 0 9 0;
#X connect 8 0 10 0;
#X connect 9 0 3 0;
#X connect 10 0 18 0;
#X connect 11 0 14 0;
#X connect 12 0 15 0;
#X connect 13 0 15 1;
#X connect 14 0 15 1;
#X connect 15 0 16 0;
#X connect 18 0 21 0;
#X connect 18 0 20 0;
#X connect 18 0 19 0;
#X connect 19 0 12 1;
#X connect 20 0 14 1;
#X connect 21 0 13 1;
#X connect 22 0 13 0;
#X connect 27 0 3 0;
#X coords 0 -1 1 1 93 90 2 100 100;
#X restore 34 67 pd test;
#X obj 169 170 line~;
#X text 145 112 Hz;
#X obj 169 139 pack f 50;
#X floatatom 169 112 8 0 0 0 - - - 0;
#X obj 172 84 hsl 162 19 60 5000 0 1 empty empty empty -2 -8 0 10 #dfdfdf #000000 #000000 4302 1;
#X obj 634 264 s \$0-set;
#X obj 87 182 r \$0-set;
#X obj 255 135 hsl 162 19 0 8 0 1 empty empty empty -2 -8 0 10 #dfdfdf #000000 #000000 7000 1;
#X floatatom 252 162 5 0 8 0 - - - 0;
#X obj 252 191 sig~;
#X text 294 162 (> 4 to oscillate);
#X obj 663 113 hsl 162 19 0 10 0 1 empty empty empty -2 -8 0 10 #dfdfdf #000000 #000000 9700 1;
#X floatatom 660 140 5 0 8 0 - - - 0;
#X obj 637 28 hsl 162 19 1 10 0 1 empty empty empty -2 -8 0 10 #dfdfdf #000000 #000000 12000 1;
#X floatatom 634 55 5 0 8 0 - - - 0;
#X text 158 60 resonant/cutoff frequency;
#X text 278 113 "resonance" (0-8);
#X obj 588 401 snapshot~;
#X obj 559 320 tgl 19 0 empty empty empty 0 -10 0 12 #fcfcfc #000000 #000000 0 1;
#X text 722 305 filter oscilator;
#X obj 727 410 hsl 162 19 1 300 0 0 empty empty snapshot\ rate -2 -10 0 12 #fcfcfc #000000 #000000 0 1;
#X obj 727 471 hsl 162 19 200 3500 0 0 empty empty base\ cutoff\ freq -2 -10 0 12 #fcfcfc #000000 #000000 0 1;
#X obj 727 350 hsl 162 19 0.1 300 1 0 empty empty LFO\ rate -2 -10 0 12 #fcfcfc #000000 #000000 0 1;
#X obj 727 531 hsl 162 19 0 1500 0 0 empty empty deviation -2 -10 0 12 #fcfcfc #000000 #000000 0 1;
#X obj 559 344 metro;
#X obj 606 319 osc~;
#X obj 606 343 *~;
#X obj 588 367 +~;
#X floatatom 724 369 5 0 0 0 - - - 0;
#X floatatom 724 429 5 0 0 0 - - - 0;
#X floatatom 724 490 5 0 0 0 - - - 0;
#X floatatom 724 550 5 0 0 0 - - - 0;
#X obj 86 448 *~, f 4;
#X obj 34 42 t f b;
#X obj 112 311 adsr;
#X obj 588 425 s snap;
#X obj 169 30 r snap;
#X obj 156 578 dac~;
#X obj 156 518 *~ 0.1;
#X obj 198 447 hsl 101 19 0 100 0 0 empty empty empty -2 -10 0 12 #fcfcfc #000000 #000000 0 1;
#X obj 195 471 / 100;
#X floatatom 195 495 5 0 0 0 - - - 0;
#X obj 86 472 rev1~, f 11;
#X floatatom 124 448 5 0 0 0 - - - 0;
#X obj 127 422 hsl 101 19 0 100 0 0 empty empty empty -2 -10 0 12 #fcfcfc #000000 #000000 0 1;
#X obj 34 18 r midi;
#X obj 156 547 clip~ -0.5 0.5;
#X connect 0 0 38 0;
#X connect 1 0 11 0;
#X connect 2 0 11 0;
#X connect 3 0 11 0;
#X connect 4 0 11 0;
#X connect 5 0 0 0;
#X connect 6 0 0 1;
#X connect 8 0 6 0;
#X connect 9 0 8 0;
#X connect 10 0 9 0;
#X connect 12 0 0 0;
#X connect 13 0 14 0;
#X connect 14 0 15 0;
#X connect 15 0 0 2;
#X connect 17 0 18 0;
#X connect 18 0 3 0;
#X connect 19 0 20 0;
#X connect 20 0 4 0;
#X connect 23 0 41 0;
#X connect 24 0 30 0;
#X connect 26 0 35 0;
#X connect 26 0 30 1;
#X connect 27 0 36 0;
#X connect 27 0 33 0;
#X connect 28 0 31 0;
#X connect 28 0 34 0;
#X connect 29 0 37 0;
#X connect 29 0 32 1;
#X connect 30 0 23 0;
#X connect 31 0 32 0;
#X connect 32 0 33 1;
#X connect 33 0 23 0;
#X connect 38 0 48 0;
#X connect 38 0 44 0;
#X connect 39 0 5 0;
#X connect 39 1 40 0;
#X connect 40 0 38 1;
#X connect 42 0 10 0;
#X connect 44 0 52 0;
#X connect 45 0 46 0;
#X connect 46 0 47 0;
#X connect 47 0 44 1;
#X connect 49 0 48 1;
#X connect 50 0 49 0;
#X connect 51 0 39 0;
#X connect 52 0 43 0;
#X connect 52 0 43 1;
