#N canvas 330 39 931 676 12;
#X declare -stdpath ./;
#X obj 105 223 bob~, f 24;
#X msg 552 242 print;
#X msg 544 212 clear;
#X msg 530 182 saturation \$1;
#X msg 504 97 oversample \$1;
#N canvas 633 157 513 424 test 0;
#X obj 313 147 min~;
#X obj 357 123 -~ 1;
#X obj 357 148 *~ -50;
#X floatatom 105 105 5 0 128 0 - - - 0;
#X obj 233 52 mtof;
#X text 301 49 test signal;
#X obj 313 90 phasor~ 220;
#X obj 233 107 osc~ 220;
#X obj 65 34 loadbang;
#X msg 105 70 57;
#X msg 65 102 1;
#X obj 362 239 noise~;
#X obj 233 277 *~ 0;
#X obj 313 244 *~ 0;
#X obj 362 287 *~ 0;
#X obj 295 338 +~;
#X obj 295 373 outlet~;
#X obj 59 316 declare -stdpath ./;
#X obj 105 127 vradio 19 1 0 3 empty empty empty 0 -8 0 10 #dfdfdf #000000 #000000 0;
#X obj 258 225 == 0;
#X obj 105 207 == 2;
#X obj 338 206 == 1;
#X obj 313 172 -~ 0.5;
#X text 127 126 Sine, f 8;
#X text 127 146 Sawtooth;
#X text 127 165 Noise, f 8;
#X text 144 104 Pitch;
#X obj 152 71 inlet;
#X connect 0 0 22 0;
#X connect 1 0 2 0;
#X connect 2 0 0 1;
#X connect 3 0 4 0;
#X connect 4 0 6 0;
#X connect 4 0 7 0;
#X connect 6 0 0 0;
#X connect 6 0 1 0;
#X connect 7 0 12 0;
#X connect 8 0 9 0;
#X connect 8 0 10 0;
#X connect 9 0 3 0;
#X connect 10 0 18 0;
#X connect 11 0 14 0;
#X connect 12 0 15 0;
#X connect 13 0 15 1;
#X connect 14 0 15 1;
#X connect 15 0 16 0;
#X connect 18 0 21 0;
#X connect 18 0 20 0;
#X connect 18 0 19 0;
#X connect 19 0 12 1;
#X connect 20 0 14 1;
#X connect 21 0 13 1;
#X connect 22 0 13 0;
#X connect 27 0 3 0;
#X coords 0 -1 1 1 93 90 2 100 100;
#X restore 52 48 pd test;
#X obj 187 151 line~;
#X text 163 93 Hz;
#X obj 187 120 pack f 50;
#X floatatom 187 93 8 0 0 0 - - - 0;
#X obj 190 65 hsl 162 19 60 5000 0 1 empty empty empty -2 -8 0 10 #dfdfdf #000000 #000000 3688 1;
#X obj 504 279 s \$0-set;
#X obj 105 163 r \$0-set;
#X obj 273 116 hsl 162 19 0 8 0 1 empty empty empty -2 -8 0 10 #dfdfdf #000000 #000000 8000 1;
#X floatatom 270 143 5 0 8 0 - - - 0;
#X obj 270 172 sig~;
#X text 312 143 (> 4 to oscillate);
#X obj 533 128 hsl 162 19 0 10 0 1 empty empty empty -2 -8 0 10 #dfdfdf #000000 #000000 11000 1;
#X floatatom 530 155 5 0 8 0 - - - 0;
#X obj 507 43 hsl 162 19 1 10 0 1 empty empty empty -2 -8 0 10 #dfdfdf #000000 #000000 14500 1;
#X floatatom 504 70 5 0 8 0 - - - 0;
#X text 176 41 resonant/cutoff frequency;
#X text 296 94 "resonance" (0-8);
#N canvas 505 96 935 666 output 0;
#X msg 385 439 0;
#X obj 30 237 dbtorms;
#X msg 514 273 \; pd dsp 1;
#X obj 30 408 line~;
#X obj 65 460 *~;
#X obj 65 490 dac~;
#X obj 30 265 pack 0 50;
#X floatatom 157 138 5 0 100 0 - \$0-lvl \$0-number-value 12;
#X obj 175 156 bng 19 250 50 0 \$0-mute-dummy-out \$0-bang unmute -44 10 0 12 #dfdfdf #000000 #000000;
#X obj 163 304 inlet~;
#X obj 145 459 *~;
#X obj 83 408 hip~ 3;
#X obj 163 408 hip~ 3;
#X text 207 24 Level control abstraction \, part of 'extra' used in many of the Pd example and help patches. The "level" and "mute" controls show up on the parent \, calling patch., f 55;
#X obj 83 304 inlet~ fwd;
#X obj 175 334 route bang level;
#X obj 229 374 clip 0 100;
#X text 89 237 <-- convert from dB to linear units;
#X text 104 265 <-- make a ramp to avoid clicks or zipper noise;
#X obj 489 190 clip 0 100;
#X obj 489 157 r \$0-number-value;
#X msg 522 218 set \$1;
#X text 215 303 <-- audio inputs;
#X text 586 275 <-- start DSP automatically, f 13;
#X obj 385 381 != 0;
#X obj 385 355 f;
#X obj 464 399 float;
#X obj 506 324 s \$0-master-lvl;
#X obj 30 208 r \$0-master-lvl;
#X text 574 378 <-- nonzero master-lvl;
#X obj 385 528 s \$0-bang;
#X msg 563 439 label mute \, label_pos -30 10;
#X obj 563 470 s \$0-bang;
#X obj 580 407 loadbang;
#X msg 385 499 label unmute \, label_pos -44 10;
#X text 132 138 dB;
#X obj 371 249 tgl 15 0 empty \$0-tgl empty 17 7 0 10 #fcfcfc #000000 #000000 0 1;
#X obj 371 294 sel 1 0;
#X msg 492 439 set 0;
#X obj 489 356 moses 1e-30;
#X obj 385 410 sel 1 0;
#X text 583 219 <-- keep values;
#X text 614 235 within range;
#X text 167 506 MUTE logic:;
#X text 135 531 Mute only if value is nonzero. To unmute \, get previous nonzero master-lvl, f 31;
#X obj 492 470 s \$0-tgl;
#X obj 419 470 s \$0-lvl;
#X obj 522 244 s \$0-lvl;
#X obj 229 408 s \$0-lvl;
#X connect 0 0 34 0;
#X connect 0 0 46 0;
#X connect 1 0 6 0;
#X connect 3 0 10 0;
#X connect 3 0 4 0;
#X connect 4 0 5 0;
#X connect 6 0 3 0;
#X connect 8 0 36 0;
#X connect 9 0 12 0;
#X connect 10 0 5 1;
#X connect 11 0 4 1;
#X connect 12 0 10 1;
#X connect 14 0 11 0;
#X connect 14 1 15 0;
#X connect 15 0 8 0;
#X connect 15 1 16 0;
#X connect 16 0 48 0;
#X connect 19 0 21 0;
#X connect 19 0 2 0;
#X connect 19 0 25 1;
#X connect 19 0 27 0;
#X connect 19 0 39 0;
#X connect 20 0 19 0;
#X connect 21 0 47 0;
#X connect 24 0 40 0;
#X connect 25 0 24 0;
#X connect 26 0 46 0;
#X connect 28 0 1 0;
#X connect 31 0 32 0;
#X connect 33 0 31 0;
#X connect 34 0 30 0;
#X connect 36 0 37 0;
#X connect 37 0 25 0;
#X connect 37 1 26 0;
#X connect 38 0 45 0;
#X connect 39 1 26 1;
#X connect 39 1 31 0;
#X connect 39 1 38 0;
#X connect 40 0 0 0;
#X connect 40 1 38 0;
#X coords 4 -5 5 -3 94 75 1 100 100;
#X restore 104 281 pd output;
#X obj 52 25 r midi_kb;
#X obj 236 323 r snap;
#X obj 293 403 snapshot~;
#X obj 236 347 bng 19 250 50 0 empty empty empty 0 -10 0 12 #fcfcfc #000000 #000000;
#X obj 291 345 *~ 1000;
#X obj 291 321 osc~ 6;
#X obj 219 410 tgl 19 0 empty empty empty 0 -10 0 12 #fcfcfc #000000 #000000 0 1;
#X obj 291 369 +~ 1500;
#X obj 219 434 metro 227;
#X connect 0 0 23 0;
#X connect 0 0 23 1;
#X connect 1 0 11 0;
#X connect 2 0 11 0;
#X connect 3 0 11 0;
#X connect 4 0 11 0;
#X connect 5 0 0 0;
#X connect 6 0 0 1;
#X connect 8 0 6 0;
#X connect 9 0 8 0;
#X connect 10 0 9 0;
#X connect 12 0 0 0;
#X connect 13 0 14 0;
#X connect 14 0 15 0;
#X connect 15 0 0 2;
#X connect 17 0 18 0;
#X connect 18 0 3 0;
#X connect 19 0 20 0;
#X connect 20 0 4 0;
#X connect 24 0 5 0;
#X connect 25 0 26 0;
#X connect 25 0 27 0;
#X connect 26 0 10 0;
#X connect 28 0 31 0;
#X connect 29 0 28 0;
#X connect 30 0 32 0;
#X connect 31 0 26 0;
#X connect 32 0 26 0;
