#N canvas 0 25 1440 737 12;
#N canvas 33 85 1330 617 play 0;
#X obj 141 396 bng 19 250 50 0 empty empty empty 0 -10 0 12 #fcfcfc #000000 #000000;
#X obj 141 459 int 1;
#X obj 93 371 sel 0;
#X obj 93 395 bng 19 250 50 0 empty empty empty 0 -10 0 12 #fcfcfc #000000 #000000;
#X msg 93 419 -1;
#X floatatom 141 483 5 0 0 0 - - - 0;
#X obj 141 506 % 16;
#X floatatom 141 554 5 0 0 0 - - - 0;
#X obj 220 487 + 1;
#X obj 141 530 + 1;
#X obj 141 371 metro 1 120 permin, f 19;
#X obj 119 112 tgl 19 0 empty empty play 25 10 0 10 #dfdfdf #000000 #000000 0 1;
#X msg 271 296 4;
#X msg 141 346 tempo \$1 permin;
#X floatatom 119 163 5 0 0 0 - - - 0;
#X floatatom 271 345 5 0 0 0 - - - 0;
#X obj 271 321 expr 1/$f1;
#X obj 122 137 hsl 250 19 1 250 0 0 empty empty empty -2 -10 0 12 #fcfcfc #000000 #000000 0 1;
#X obj 65 63 loadbang;
#X msg 65 87 120;
#X obj 141 577 s counter;
#X connect 0 0 1 0;
#X connect 1 0 5 0;
#X connect 1 0 8 0;
#X connect 2 0 3 0;
#X connect 3 0 4 0;
#X connect 4 0 1 0;
#X connect 5 0 6 0;
#X connect 6 0 9 0;
#X connect 7 0 20 0;
#X connect 8 0 1 1;
#X connect 9 0 7 0;
#X connect 10 0 0 0;
#X connect 11 0 10 0;
#X connect 11 0 2 0;
#X connect 12 0 16 0;
#X connect 13 0 10 0;
#X connect 14 0 13 0;
#X connect 15 0 10 1;
#X connect 16 0 15 0;
#X connect 17 0 14 0;
#X connect 18 0 19 0;
#X connect 18 0 12 0;
#X connect 18 0 3 0;
#X connect 19 0 17 0;
#X coords 0 -1 1 1 296 96 2 100 100;
#X restore 45 42 pd play;
#N canvas 0 85 1422 621 note_module 1;
#X floatatom 185 59 5 0 0 0 - - - 0;
#X obj 185 77 sel 1;
#X obj 185 112 bng 29 250 50 0 empty empty empty 0 -10 0 12 #fcfcfc #000000 #000000;
#X obj 185 212 spigot;
#X obj 224 112 tgl 29 0 empty empty empty 0 -10 0 12 #fcfcfc #000000 #000000 0 1;
#X obj 88 231 spigot;
#X obj 126 124 tgl 35 0 empty empty empty 0 -10 0 12 #ffffff #ff0400 #000000 0 1;
#X obj 88 280 s midi;
#X obj 18 93 loadbang;
#X obj 185 40 r counter;
#N canvas 349 320 450 300 choose_note 0;
#X obj 106 215 select C D E F G A B, f 34;
#X obj 341 239 print;
#X obj 106 313 outlet;
#X symbolatom 106 116 3 0 0 2 note - - 0;
#X obj 106 50 loadbang;
#X msg 155 74 5;
#X floatatom 138 116 3 3 8 2 oct - - 0;
#X msg 106 74 set C;
#X obj 106 25 inlet;
#X msg 106 239 0;
#X msg 139 239 2;
#X msg 173 239 4;
#X msg 206 239 5;
#X msg 240 239 7;
#X msg 273 239 9;
#X msg 307 239 11;
#X obj 138 147 * 12;
#X obj 106 289 +, f 5;
#X connect 0 0 9 0;
#X connect 0 1 10 0;
#X connect 0 2 11 0;
#X connect 0 3 12 0;
#X connect 0 4 13 0;
#X connect 0 5 14 0;
#X connect 0 6 15 0;
#X connect 0 7 1 0;
#X connect 3 0 0 0;
#X connect 4 0 5 0;
#X connect 4 0 7 0;
#X connect 5 0 6 0;
#X connect 6 0 16 0;
#X connect 7 0 3 0;
#X connect 8 0 3 0;
#X connect 9 0 17 0;
#X connect 10 0 17 0;
#X connect 11 0 17 0;
#X connect 12 0 17 0;
#X connect 13 0 17 0;
#X connect 14 0 17 0;
#X connect 15 0 17 0;
#X connect 16 0 17 1;
#X connect 17 0 2 0;
#X coords 0 -1 1 1 68 42 2 100 100;
#X restore 185 147 pd choose_note;
#X floatatom 88 255 5 0 0 0 - - - 0;
#X obj 265 112 bng 29 250 50 0 empty empty empty 0 -10 0 12 #fcfcfc #000000 #000000;
#X obj 265 212 spigot;
#X obj 304 112 tgl 29 0 empty empty empty 0 -10 0 12 #fcfcfc #000000 #000000 0 1;
#N canvas 349 320 450 300 choose_note 0;
#X obj 106 215 select C D E F G A B, f 34;
#X obj 341 239 print;
#X obj 106 313 outlet;
#X symbolatom 106 116 3 0 0 2 note - - 0;
#X obj 106 50 loadbang;
#X msg 155 74 5;
#X floatatom 138 116 3 3 8 2 oct - - 0;
#X msg 106 74 set C;
#X obj 106 25 inlet;
#X msg 106 239 0;
#X msg 139 239 2;
#X msg 173 239 4;
#X msg 206 239 5;
#X msg 240 239 7;
#X msg 273 239 9;
#X msg 307 239 11;
#X obj 138 147 * 12;
#X obj 106 289 +, f 5;
#X connect 0 0 9 0;
#X connect 0 1 10 0;
#X connect 0 2 11 0;
#X connect 0 3 12 0;
#X connect 0 4 13 0;
#X connect 0 5 14 0;
#X connect 0 6 15 0;
#X connect 0 7 1 0;
#X connect 3 0 0 0;
#X connect 4 0 5 0;
#X connect 4 0 7 0;
#X connect 5 0 6 0;
#X connect 6 0 16 0;
#X connect 7 0 3 0;
#X connect 8 0 3 0;
#X connect 9 0 17 0;
#X connect 10 0 17 0;
#X connect 11 0 17 0;
#X connect 12 0 17 0;
#X connect 13 0 17 0;
#X connect 14 0 17 0;
#X connect 15 0 17 0;
#X connect 16 0 17 1;
#X connect 17 0 2 0;
#X coords 0 -1 1 1 68 42 2 100 100;
#X restore 265 147 pd choose_note;
#X obj 345 112 bng 29 250 50 0 empty empty empty 0 -10 0 12 #fcfcfc #000000 #000000;
#X obj 345 212 spigot;
#X obj 384 112 tgl 29 0 empty empty empty 0 -10 0 12 #fcfcfc #000000 #000000 0 1;
#N canvas 349 320 450 300 choose_note 0;
#X obj 106 215 select C D E F G A B, f 34;
#X obj 341 239 print;
#X obj 106 313 outlet;
#X symbolatom 106 116 3 0 0 2 note - - 0;
#X obj 106 50 loadbang;
#X msg 155 74 5;
#X floatatom 138 116 3 3 8 2 oct - - 0;
#X msg 106 74 set C;
#X obj 106 25 inlet;
#X msg 106 239 0;
#X msg 139 239 2;
#X msg 173 239 4;
#X msg 206 239 5;
#X msg 240 239 7;
#X msg 273 239 9;
#X msg 307 239 11;
#X obj 138 147 * 12;
#X obj 106 289 +, f 5;
#X connect 0 0 9 0;
#X connect 0 1 10 0;
#X connect 0 2 11 0;
#X connect 0 3 12 0;
#X connect 0 4 13 0;
#X connect 0 5 14 0;
#X connect 0 6 15 0;
#X connect 0 7 1 0;
#X connect 3 0 0 0;
#X connect 4 0 5 0;
#X connect 4 0 7 0;
#X connect 5 0 6 0;
#X connect 6 0 16 0;
#X connect 7 0 3 0;
#X connect 8 0 3 0;
#X connect 9 0 17 0;
#X connect 10 0 17 0;
#X connect 11 0 17 0;
#X connect 12 0 17 0;
#X connect 13 0 17 0;
#X connect 14 0 17 0;
#X connect 15 0 17 0;
#X connect 16 0 17 1;
#X connect 17 0 2 0;
#X coords 0 -1 1 1 68 42 2 100 100;
#X restore 345 147 pd choose_note;
#X obj 425 112 bng 29 250 50 0 empty empty empty 0 -10 0 12 #fcfcfc #000000 #000000;
#X obj 425 212 spigot;
#X obj 464 112 tgl 29 0 empty empty empty 0 -10 0 12 #fcfcfc #000000 #000000 0 1;
#N canvas 349 320 450 300 choose_note 0;
#X obj 106 215 select C D E F G A B, f 34;
#X obj 341 239 print;
#X obj 106 313 outlet;
#X symbolatom 106 116 3 0 0 2 note - - 0;
#X obj 106 50 loadbang;
#X msg 155 74 5;
#X floatatom 138 116 3 3 8 2 oct - - 0;
#X msg 106 74 set C;
#X obj 106 25 inlet;
#X msg 106 239 0;
#X msg 139 239 2;
#X msg 173 239 4;
#X msg 206 239 5;
#X msg 240 239 7;
#X msg 273 239 9;
#X msg 307 239 11;
#X obj 138 147 * 12;
#X obj 106 289 +, f 5;
#X connect 0 0 9 0;
#X connect 0 1 10 0;
#X connect 0 2 11 0;
#X connect 0 3 12 0;
#X connect 0 4 13 0;
#X connect 0 5 14 0;
#X connect 0 6 15 0;
#X connect 0 7 1 0;
#X connect 3 0 0 0;
#X connect 4 0 5 0;
#X connect 4 0 7 0;
#X connect 5 0 6 0;
#X connect 6 0 16 0;
#X connect 7 0 3 0;
#X connect 8 0 3 0;
#X connect 9 0 17 0;
#X connect 10 0 17 0;
#X connect 11 0 17 0;
#X connect 12 0 17 0;
#X connect 13 0 17 0;
#X connect 14 0 17 0;
#X connect 15 0 17 0;
#X connect 16 0 17 1;
#X connect 17 0 2 0;
#X coords 0 -1 1 1 68 42 2 100 100;
#X restore 425 147 pd choose_note;
#X obj 505 112 bng 29 250 50 0 empty empty empty 0 -10 0 12 #fcfcfc #000000 #000000;
#X obj 505 212 spigot;
#X obj 544 112 tgl 29 0 empty empty empty 0 -10 0 12 #fcfcfc #000000 #000000 0 1;
#N canvas 349 320 450 300 choose_note 0;
#X obj 106 215 select C D E F G A B, f 34;
#X obj 341 239 print;
#X obj 106 313 outlet;
#X symbolatom 106 116 3 0 0 2 note - - 0;
#X obj 106 50 loadbang;
#X msg 155 74 5;
#X floatatom 138 116 3 3 8 2 oct - - 0;
#X msg 106 74 set C;
#X obj 106 25 inlet;
#X msg 106 239 0;
#X msg 139 239 2;
#X msg 173 239 4;
#X msg 206 239 5;
#X msg 240 239 7;
#X msg 273 239 9;
#X msg 307 239 11;
#X obj 138 147 * 12;
#X obj 106 289 +, f 5;
#X connect 0 0 9 0;
#X connect 0 1 10 0;
#X connect 0 2 11 0;
#X connect 0 3 12 0;
#X connect 0 4 13 0;
#X connect 0 5 14 0;
#X connect 0 6 15 0;
#X connect 0 7 1 0;
#X connect 3 0 0 0;
#X connect 4 0 5 0;
#X connect 4 0 7 0;
#X connect 5 0 6 0;
#X connect 6 0 16 0;
#X connect 7 0 3 0;
#X connect 8 0 3 0;
#X connect 9 0 17 0;
#X connect 10 0 17 0;
#X connect 11 0 17 0;
#X connect 12 0 17 0;
#X connect 13 0 17 0;
#X connect 14 0 17 0;
#X connect 15 0 17 0;
#X connect 16 0 17 1;
#X connect 17 0 2 0;
#X coords 0 -1 1 1 68 42 2 100 100;
#X restore 505 147 pd choose_note;
#X obj 585 112 bng 29 250 50 0 empty empty empty 0 -10 0 12 #fcfcfc #000000 #000000;
#X obj 585 212 spigot;
#X obj 624 112 tgl 29 0 empty empty empty 0 -10 0 12 #fcfcfc #000000 #000000 0 1;
#N canvas 349 320 450 300 choose_note 0;
#X obj 106 215 select C D E F G A B, f 34;
#X obj 341 239 print;
#X obj 106 313 outlet;
#X symbolatom 106 116 3 0 0 2 note - - 0;
#X obj 106 50 loadbang;
#X msg 155 74 5;
#X floatatom 138 116 3 3 8 2 oct - - 0;
#X msg 106 74 set C;
#X obj 106 25 inlet;
#X msg 106 239 0;
#X msg 139 239 2;
#X msg 173 239 4;
#X msg 206 239 5;
#X msg 240 239 7;
#X msg 273 239 9;
#X msg 307 239 11;
#X obj 138 147 * 12;
#X obj 106 289 +, f 5;
#X connect 0 0 9 0;
#X connect 0 1 10 0;
#X connect 0 2 11 0;
#X connect 0 3 12 0;
#X connect 0 4 13 0;
#X connect 0 5 14 0;
#X connect 0 6 15 0;
#X connect 0 7 1 0;
#X connect 3 0 0 0;
#X connect 4 0 5 0;
#X connect 4 0 7 0;
#X connect 5 0 6 0;
#X connect 6 0 16 0;
#X connect 7 0 3 0;
#X connect 8 0 3 0;
#X connect 9 0 17 0;
#X connect 10 0 17 0;
#X connect 11 0 17 0;
#X connect 12 0 17 0;
#X connect 13 0 17 0;
#X connect 14 0 17 0;
#X connect 15 0 17 0;
#X connect 16 0 17 1;
#X connect 17 0 2 0;
#X coords 0 -1 1 1 68 42 2 100 100;
#X restore 585 147 pd choose_note;
#X obj 665 112 bng 29 250 50 0 empty empty empty 0 -10 0 12 #fcfcfc #000000 #000000;
#X obj 665 212 spigot;
#X obj 704 112 tgl 29 0 empty empty empty 0 -10 0 12 #fcfcfc #000000 #000000 0 1;
#N canvas 349 320 450 300 choose_note 0;
#X obj 106 215 select C D E F G A B, f 34;
#X obj 341 239 print;
#X obj 106 313 outlet;
#X symbolatom 106 116 3 0 0 2 note - - 0;
#X obj 106 50 loadbang;
#X msg 155 74 5;
#X floatatom 138 116 3 3 8 2 oct - - 0;
#X msg 106 74 set C;
#X obj 106 25 inlet;
#X msg 106 239 0;
#X msg 139 239 2;
#X msg 173 239 4;
#X msg 206 239 5;
#X msg 240 239 7;
#X msg 273 239 9;
#X msg 307 239 11;
#X obj 138 147 * 12;
#X obj 106 289 +, f 5;
#X connect 0 0 9 0;
#X connect 0 1 10 0;
#X connect 0 2 11 0;
#X connect 0 3 12 0;
#X connect 0 4 13 0;
#X connect 0 5 14 0;
#X connect 0 6 15 0;
#X connect 0 7 1 0;
#X connect 3 0 0 0;
#X connect 4 0 5 0;
#X connect 4 0 7 0;
#X connect 5 0 6 0;
#X connect 6 0 16 0;
#X connect 7 0 3 0;
#X connect 8 0 3 0;
#X connect 9 0 17 0;
#X connect 10 0 17 0;
#X connect 11 0 17 0;
#X connect 12 0 17 0;
#X connect 13 0 17 0;
#X connect 14 0 17 0;
#X connect 15 0 17 0;
#X connect 16 0 17 1;
#X connect 17 0 2 0;
#X coords 0 -1 1 1 68 42 2 100 100;
#X restore 665 147 pd choose_note;
#X obj 745 112 bng 29 250 50 0 empty empty empty 0 -10 0 12 #fcfcfc #000000 #000000;
#X obj 745 212 spigot;
#X obj 784 112 tgl 29 0 empty empty empty 0 -10 0 12 #fcfcfc #000000 #000000 0 1;
#N canvas 349 320 450 300 choose_note 0;
#X obj 106 215 select C D E F G A B, f 34;
#X obj 341 239 print;
#X obj 106 313 outlet;
#X symbolatom 106 116 3 0 0 2 note - - 0;
#X obj 106 50 loadbang;
#X msg 155 74 5;
#X floatatom 138 116 3 3 8 2 oct - - 0;
#X msg 106 74 set C;
#X obj 106 25 inlet;
#X msg 106 239 0;
#X msg 139 239 2;
#X msg 173 239 4;
#X msg 206 239 5;
#X msg 240 239 7;
#X msg 273 239 9;
#X msg 307 239 11;
#X obj 138 147 * 12;
#X obj 106 289 +, f 5;
#X connect 0 0 9 0;
#X connect 0 1 10 0;
#X connect 0 2 11 0;
#X connect 0 3 12 0;
#X connect 0 4 13 0;
#X connect 0 5 14 0;
#X connect 0 6 15 0;
#X connect 0 7 1 0;
#X connect 3 0 0 0;
#X connect 4 0 5 0;
#X connect 4 0 7 0;
#X connect 5 0 6 0;
#X connect 6 0 16 0;
#X connect 7 0 3 0;
#X connect 8 0 3 0;
#X connect 9 0 17 0;
#X connect 10 0 17 0;
#X connect 11 0 17 0;
#X connect 12 0 17 0;
#X connect 13 0 17 0;
#X connect 14 0 17 0;
#X connect 15 0 17 0;
#X connect 16 0 17 1;
#X connect 17 0 2 0;
#X coords 0 -1 1 1 68 42 2 100 100;
#X restore 745 147 pd choose_note;
#X obj 825 112 bng 29 250 50 0 empty empty empty 0 -10 0 12 #fcfcfc #000000 #000000;
#X obj 825 212 spigot;
#X obj 864 112 tgl 29 0 empty empty empty 0 -10 0 12 #fcfcfc #000000 #000000 0 1;
#N canvas 349 320 450 300 choose_note 0;
#X obj 106 215 select C D E F G A B, f 34;
#X obj 341 239 print;
#X obj 106 313 outlet;
#X symbolatom 106 116 3 0 0 2 note - - 0;
#X obj 106 50 loadbang;
#X msg 155 74 5;
#X floatatom 138 116 3 3 8 2 oct - - 0;
#X msg 106 74 set C;
#X obj 106 25 inlet;
#X msg 106 239 0;
#X msg 139 239 2;
#X msg 173 239 4;
#X msg 206 239 5;
#X msg 240 239 7;
#X msg 273 239 9;
#X msg 307 239 11;
#X obj 138 147 * 12;
#X obj 106 289 +, f 5;
#X connect 0 0 9 0;
#X connect 0 1 10 0;
#X connect 0 2 11 0;
#X connect 0 3 12 0;
#X connect 0 4 13 0;
#X connect 0 5 14 0;
#X connect 0 6 15 0;
#X connect 0 7 1 0;
#X connect 3 0 0 0;
#X connect 4 0 5 0;
#X connect 4 0 7 0;
#X connect 5 0 6 0;
#X connect 6 0 16 0;
#X connect 7 0 3 0;
#X connect 8 0 3 0;
#X connect 9 0 17 0;
#X connect 10 0 17 0;
#X connect 11 0 17 0;
#X connect 12 0 17 0;
#X connect 13 0 17 0;
#X connect 14 0 17 0;
#X connect 15 0 17 0;
#X connect 16 0 17 1;
#X connect 17 0 2 0;
#X coords 0 -1 1 1 68 42 2 100 100;
#X restore 825 147 pd choose_note;
#X obj 905 112 bng 29 250 50 0 empty empty empty 0 -10 0 12 #fcfcfc #000000 #000000;
#X obj 905 212 spigot;
#X obj 944 112 tgl 29 0 empty empty empty 0 -10 0 12 #fcfcfc #000000 #000000 0 1;
#N canvas 349 320 450 300 choose_note 0;
#X obj 106 215 select C D E F G A B, f 34;
#X obj 341 239 print;
#X obj 106 313 outlet;
#X symbolatom 106 116 3 0 0 2 note - - 0;
#X obj 106 50 loadbang;
#X msg 155 74 5;
#X floatatom 138 116 3 3 8 2 oct - - 0;
#X msg 106 74 set C;
#X obj 106 25 inlet;
#X msg 106 239 0;
#X msg 139 239 2;
#X msg 173 239 4;
#X msg 206 239 5;
#X msg 240 239 7;
#X msg 273 239 9;
#X msg 307 239 11;
#X obj 138 147 * 12;
#X obj 106 289 +, f 5;
#X connect 0 0 9 0;
#X connect 0 1 10 0;
#X connect 0 2 11 0;
#X connect 0 3 12 0;
#X connect 0 4 13 0;
#X connect 0 5 14 0;
#X connect 0 6 15 0;
#X connect 0 7 1 0;
#X connect 3 0 0 0;
#X connect 4 0 5 0;
#X connect 4 0 7 0;
#X connect 5 0 6 0;
#X connect 6 0 16 0;
#X connect 7 0 3 0;
#X connect 8 0 3 0;
#X connect 9 0 17 0;
#X connect 10 0 17 0;
#X connect 11 0 17 0;
#X connect 12 0 17 0;
#X connect 13 0 17 0;
#X connect 14 0 17 0;
#X connect 15 0 17 0;
#X connect 16 0 17 1;
#X connect 17 0 2 0;
#X coords 0 -1 1 1 68 42 2 100 100;
#X restore 905 147 pd choose_note;
#X obj 985 112 bng 29 250 50 0 empty empty empty 0 -10 0 12 #fcfcfc #000000 #000000;
#X obj 985 212 spigot;
#X obj 1024 112 tgl 29 0 empty empty empty 0 -10 0 12 #fcfcfc #000000 #000000 0 1;
#N canvas 349 320 450 300 choose_note 0;
#X obj 106 215 select C D E F G A B, f 34;
#X obj 341 239 print;
#X obj 106 313 outlet;
#X symbolatom 106 116 3 0 0 2 note - - 0;
#X obj 106 50 loadbang;
#X msg 155 74 5;
#X floatatom 138 116 3 3 8 2 oct - - 0;
#X msg 106 74 set C;
#X obj 106 25 inlet;
#X msg 106 239 0;
#X msg 139 239 2;
#X msg 173 239 4;
#X msg 206 239 5;
#X msg 240 239 7;
#X msg 273 239 9;
#X msg 307 239 11;
#X obj 138 147 * 12;
#X obj 106 289 +, f 5;
#X connect 0 0 9 0;
#X connect 0 1 10 0;
#X connect 0 2 11 0;
#X connect 0 3 12 0;
#X connect 0 4 13 0;
#X connect 0 5 14 0;
#X connect 0 6 15 0;
#X connect 0 7 1 0;
#X connect 3 0 0 0;
#X connect 4 0 5 0;
#X connect 4 0 7 0;
#X connect 5 0 6 0;
#X connect 6 0 16 0;
#X connect 7 0 3 0;
#X connect 8 0 3 0;
#X connect 9 0 17 0;
#X connect 10 0 17 0;
#X connect 11 0 17 0;
#X connect 12 0 17 0;
#X connect 13 0 17 0;
#X connect 14 0 17 0;
#X connect 15 0 17 0;
#X connect 16 0 17 1;
#X connect 17 0 2 0;
#X coords 0 -1 1 1 68 42 2 100 100;
#X restore 985 147 pd choose_note;
#X obj 1065 112 bng 29 250 50 0 empty empty empty 0 -10 0 12 #fcfcfc #000000 #000000;
#X obj 1065 212 spigot;
#X obj 1104 112 tgl 29 0 empty empty empty 0 -10 0 12 #fcfcfc #000000 #000000 0 1;
#N canvas 349 320 450 300 choose_note 0;
#X obj 106 215 select C D E F G A B, f 34;
#X obj 341 239 print;
#X obj 106 313 outlet;
#X symbolatom 106 116 3 0 0 2 note - - 0;
#X obj 106 50 loadbang;
#X msg 155 74 5;
#X floatatom 138 116 3 3 8 2 oct - - 0;
#X msg 106 74 set C;
#X obj 106 25 inlet;
#X msg 106 239 0;
#X msg 139 239 2;
#X msg 173 239 4;
#X msg 206 239 5;
#X msg 240 239 7;
#X msg 273 239 9;
#X msg 307 239 11;
#X obj 138 147 * 12;
#X obj 106 289 +, f 5;
#X connect 0 0 9 0;
#X connect 0 1 10 0;
#X connect 0 2 11 0;
#X connect 0 3 12 0;
#X connect 0 4 13 0;
#X connect 0 5 14 0;
#X connect 0 6 15 0;
#X connect 0 7 1 0;
#X connect 3 0 0 0;
#X connect 4 0 5 0;
#X connect 4 0 7 0;
#X connect 5 0 6 0;
#X connect 6 0 16 0;
#X connect 7 0 3 0;
#X connect 8 0 3 0;
#X connect 9 0 17 0;
#X connect 10 0 17 0;
#X connect 11 0 17 0;
#X connect 12 0 17 0;
#X connect 13 0 17 0;
#X connect 14 0 17 0;
#X connect 15 0 17 0;
#X connect 16 0 17 1;
#X connect 17 0 2 0;
#X coords 0 -1 1 1 68 42 2 100 100;
#X restore 1065 147 pd choose_note;
#X obj 1145 112 bng 29 250 50 0 empty empty empty 0 -10 0 12 #fcfcfc #000000 #000000;
#X obj 1145 212 spigot;
#X obj 1184 112 tgl 29 0 empty empty empty 0 -10 0 12 #fcfcfc #000000 #000000 0 1;
#N canvas 349 320 450 300 choose_note 0;
#X obj 106 215 select C D E F G A B, f 34;
#X obj 341 239 print;
#X obj 106 313 outlet;
#X symbolatom 106 116 3 0 0 2 note - - 0;
#X obj 106 50 loadbang;
#X msg 155 74 5;
#X floatatom 138 116 3 3 8 2 oct - - 0;
#X msg 106 74 set C;
#X obj 106 25 inlet;
#X msg 106 239 0;
#X msg 139 239 2;
#X msg 173 239 4;
#X msg 206 239 5;
#X msg 240 239 7;
#X msg 273 239 9;
#X msg 307 239 11;
#X obj 138 147 * 12;
#X obj 106 289 +, f 5;
#X connect 0 0 9 0;
#X connect 0 1 10 0;
#X connect 0 2 11 0;
#X connect 0 3 12 0;
#X connect 0 4 13 0;
#X connect 0 5 14 0;
#X connect 0 6 15 0;
#X connect 0 7 1 0;
#X connect 3 0 0 0;
#X connect 4 0 5 0;
#X connect 4 0 7 0;
#X connect 5 0 6 0;
#X connect 6 0 16 0;
#X connect 7 0 3 0;
#X connect 8 0 3 0;
#X connect 9 0 17 0;
#X connect 10 0 17 0;
#X connect 11 0 17 0;
#X connect 12 0 17 0;
#X connect 13 0 17 0;
#X connect 14 0 17 0;
#X connect 15 0 17 0;
#X connect 16 0 17 1;
#X connect 17 0 2 0;
#X coords 0 -1 1 1 68 42 2 100 100;
#X restore 1145 147 pd choose_note;
#X obj 1225 112 bng 29 250 50 0 empty empty empty 0 -10 0 12 #fcfcfc #000000 #000000;
#X obj 1225 212 spigot;
#X obj 1264 112 tgl 29 0 empty empty empty 0 -10 0 12 #fcfcfc #000000 #000000 0 1;
#N canvas 349 320 450 290 choose_note 0;
#X obj 106 215 select C D E F G A B, f 34;
#X obj 341 239 print;
#X obj 106 313 outlet;
#X symbolatom 106 116 3 0 0 2 note - - 0;
#X obj 106 50 loadbang;
#X msg 155 74 5;
#X floatatom 138 116 3 3 8 2 oct - - 0;
#X msg 106 74 set C;
#X obj 106 25 inlet;
#X msg 106 239 0;
#X msg 139 239 2;
#X msg 173 239 4;
#X msg 206 239 5;
#X msg 240 239 7;
#X msg 273 239 9;
#X msg 307 239 11;
#X obj 138 147 * 12;
#X obj 106 289 +, f 5;
#X connect 0 0 9 0;
#X connect 0 1 10 0;
#X connect 0 2 11 0;
#X connect 0 3 12 0;
#X connect 0 4 13 0;
#X connect 0 5 14 0;
#X connect 0 6 15 0;
#X connect 0 7 1 0;
#X connect 3 0 0 0;
#X connect 4 0 5 0;
#X connect 4 0 7 0;
#X connect 5 0 6 0;
#X connect 6 0 16 0;
#X connect 7 0 3 0;
#X connect 8 0 3 0;
#X connect 9 0 17 0;
#X connect 10 0 17 0;
#X connect 11 0 17 0;
#X connect 12 0 17 0;
#X connect 13 0 17 0;
#X connect 14 0 17 0;
#X connect 15 0 17 0;
#X connect 16 0 17 1;
#X connect 17 0 2 0;
#X coords 0 -1 1 1 68 42 2 100 100;
#X restore 1225 147 pd choose_note;
#X obj 1305 112 bng 29 250 50 0 empty empty empty 0 -10 0 12 #fcfcfc #000000 #000000;
#X obj 1305 212 spigot;
#X obj 1344 112 tgl 29 0 empty empty empty 0 -10 0 12 #fcfcfc #000000 #000000 0 1;
#N canvas 349 320 450 300 choose_note 0;
#X obj 106 215 select C D E F G A B, f 34;
#X obj 341 239 print;
#X obj 106 313 outlet;
#X symbolatom 106 116 3 0 0 2 note - - 0;
#X obj 106 50 loadbang;
#X msg 155 74 5;
#X floatatom 138 116 3 3 8 2 oct - - 0;
#X msg 106 74 set C;
#X obj 106 25 inlet;
#X msg 106 239 0;
#X msg 139 239 2;
#X msg 173 239 4;
#X msg 206 239 5;
#X msg 240 239 7;
#X msg 273 239 9;
#X msg 307 239 11;
#X obj 138 147 * 12;
#X obj 106 289 +, f 5;
#X connect 0 0 9 0;
#X connect 0 1 10 0;
#X connect 0 2 11 0;
#X connect 0 3 12 0;
#X connect 0 4 13 0;
#X connect 0 5 14 0;
#X connect 0 6 15 0;
#X connect 0 7 1 0;
#X connect 3 0 0 0;
#X connect 4 0 5 0;
#X connect 4 0 7 0;
#X connect 5 0 6 0;
#X connect 6 0 16 0;
#X connect 7 0 3 0;
#X connect 8 0 3 0;
#X connect 9 0 17 0;
#X connect 10 0 17 0;
#X connect 11 0 17 0;
#X connect 12 0 17 0;
#X connect 13 0 17 0;
#X connect 14 0 17 0;
#X connect 15 0 17 0;
#X connect 16 0 17 1;
#X connect 17 0 2 0;
#X coords 0 -1 1 1 68 42 2 100 100;
#X restore 1305 147 pd choose_note;
#X obj 1385 112 bng 29 250 50 0 empty empty empty 0 -10 0 12 #fcfcfc #000000 #000000;
#X obj 1385 212 spigot;
#X obj 1424 112 tgl 29 0 empty empty empty 0 -10 0 12 #fcfcfc #000000 #000000 0 1;
#N canvas 349 320 450 300 choose_note 0;
#X obj 106 215 select C D E F G A B, f 34;
#X obj 341 239 print;
#X obj 106 313 outlet;
#X symbolatom 106 116 3 0 0 2 note - - 0;
#X obj 106 50 loadbang;
#X msg 155 74 5;
#X floatatom 138 116 3 3 8 2 oct - - 0;
#X msg 106 74 set C;
#X obj 106 25 inlet;
#X msg 106 239 0;
#X msg 139 239 2;
#X msg 173 239 4;
#X msg 206 239 5;
#X msg 240 239 7;
#X msg 273 239 9;
#X msg 307 239 11;
#X obj 138 147 * 12;
#X obj 106 289 +, f 5;
#X connect 0 0 9 0;
#X connect 0 1 10 0;
#X connect 0 2 11 0;
#X connect 0 3 12 0;
#X connect 0 4 13 0;
#X connect 0 5 14 0;
#X connect 0 6 15 0;
#X connect 0 7 1 0;
#X connect 3 0 0 0;
#X connect 4 0 5 0;
#X connect 4 0 7 0;
#X connect 5 0 6 0;
#X connect 6 0 16 0;
#X connect 7 0 3 0;
#X connect 8 0 3 0;
#X connect 9 0 17 0;
#X connect 10 0 17 0;
#X connect 11 0 17 0;
#X connect 12 0 17 0;
#X connect 13 0 17 0;
#X connect 14 0 17 0;
#X connect 15 0 17 0;
#X connect 16 0 17 1;
#X connect 17 0 2 0;
#X coords 0 -1 1 1 68 42 2 100 100;
#X restore 1385 147 pd choose_note;
#X obj 265 77 sel 2;
#X obj 345 77 sel 3;
#X obj 425 77 sel 4;
#X obj 505 77 sel 5;
#X obj 585 77 sel 6;
#X obj 665 77 sel 7;
#X obj 745 77 sel 8;
#X obj 825 77 sel 9;
#X obj 905 77 sel 10;
#X obj 985 77 sel 11;
#X obj 1065 77 sel 12;
#X obj 1145 77 sel 13;
#X obj 1225 77 sel 14;
#X obj 1305 77 sel 15;
#X obj 1385 77 sel 16;
#X connect 0 0 1 0;
#X connect 0 0 72 0;
#X connect 0 0 86 0;
#X connect 0 0 85 0;
#X connect 0 0 84 0;
#X connect 0 0 83 0;
#X connect 0 0 82 0;
#X connect 0 0 81 0;
#X connect 0 0 80 0;
#X connect 0 0 79 0;
#X connect 0 0 78 0;
#X connect 0 0 77 0;
#X connect 0 0 76 0;
#X connect 0 0 75 0;
#X connect 0 0 74 0;
#X connect 0 0 73 0;
#X connect 1 0 2 0;
#X connect 2 0 10 0;
#X connect 3 0 5 0;
#X connect 4 0 3 1;
#X connect 5 0 7 0;
#X connect 5 0 11 0;
#X connect 6 0 5 1;
#X connect 8 0 4 0;
#X connect 8 0 6 0;
#X connect 8 0 14 0;
#X connect 8 0 22 0;
#X connect 8 0 26 0;
#X connect 8 0 70 0;
#X connect 8 0 66 0;
#X connect 8 0 62 0;
#X connect 8 0 58 0;
#X connect 8 0 54 0;
#X connect 8 0 50 0;
#X connect 8 0 46 0;
#X connect 8 0 42 0;
#X connect 8 0 38 0;
#X connect 8 0 34 0;
#X connect 8 0 30 0;
#X connect 9 0 0 0;
#X connect 10 0 3 0;
#X connect 12 0 15 0;
#X connect 13 0 5 0;
#X connect 14 0 13 1;
#X connect 15 0 13 0;
#X connect 16 0 19 0;
#X connect 17 0 5 0;
#X connect 18 0 17 1;
#X connect 19 0 17 0;
#X connect 20 0 23 0;
#X connect 21 0 5 0;
#X connect 22 0 21 1;
#X connect 23 0 21 0;
#X connect 24 0 27 0;
#X connect 25 0 5 0;
#X connect 26 0 25 1;
#X connect 27 0 25 0;
#X connect 28 0 31 0;
#X connect 29 0 5 0;
#X connect 30 0 29 1;
#X connect 31 0 29 0;
#X connect 32 0 35 0;
#X connect 33 0 5 0;
#X connect 34 0 33 1;
#X connect 35 0 33 0;
#X connect 36 0 39 0;
#X connect 37 0 5 0;
#X connect 38 0 37 1;
#X connect 39 0 37 0;
#X connect 40 0 43 0;
#X connect 41 0 5 0;
#X connect 42 0 41 1;
#X connect 43 0 41 0;
#X connect 44 0 47 0;
#X connect 45 0 5 0;
#X connect 46 0 45 1;
#X connect 47 0 45 0;
#X connect 48 0 51 0;
#X connect 49 0 5 0;
#X connect 50 0 49 1;
#X connect 51 0 49 0;
#X connect 52 0 55 0;
#X connect 53 0 5 0;
#X connect 54 0 53 1;
#X connect 55 0 53 0;
#X connect 56 0 59 0;
#X connect 57 0 5 0;
#X connect 58 0 57 1;
#X connect 59 0 57 0;
#X connect 60 0 63 0;
#X connect 61 0 5 0;
#X connect 62 0 61 1;
#X connect 63 0 61 0;
#X connect 64 0 67 0;
#X connect 65 0 5 0;
#X connect 66 0 65 1;
#X connect 67 0 65 0;
#X connect 68 0 71 0;
#X connect 69 0 5 0;
#X connect 70 0 69 1;
#X connect 71 0 69 0;
#X connect 72 0 12 0;
#X connect 73 0 16 0;
#X connect 74 0 20 0;
#X connect 75 0 24 0;
#X connect 76 0 28 0;
#X connect 77 0 32 0;
#X connect 78 0 36 0;
#X connect 79 0 40 0;
#X connect 80 0 44 0;
#X connect 81 0 48 0;
#X connect 82 0 52 0;
#X connect 83 0 56 0;
#X connect 84 0 60 0;
#X connect 85 0 64 0;
#X connect 86 0 68 0;
#X coords 0 -1 1 1 1368 102 2 100 100;
#X restore 45 152 pd note_module;
