#N canvas 0 25 1440 738 12;
#X obj 44 152 bng 19 250 50 0 empty empty empty 0 -10 0 12 #fcfcfc #000000 #000000;
#X obj 44 178 int 1;
#X obj 43 51 sel 0;
#X obj 43 75 bng 19 250 50 0 empty empty empty 0 -10 0 12 #fcfcfc #000000 #000000;
#X msg 44 99 -1;
#X floatatom 44 202 5 0 0 0 - - - 0;
#X obj 44 225 % 16;
#X floatatom 44 273 5 0 0 0 - - - 0;
#X obj 44 364 sel 1;
#X obj 116 364 sel 2;
#X obj 187 364 sel 3;
#X obj 258 364 sel 4;
#X obj 330 363 sel 5;
#X obj 404 363 sel 6;
#X obj 475 363 sel 7;
#X obj 548 363 sel 8;
#X obj 696 362 sel 10;
#X obj 765 362 sel 11;
#X obj 839 362 sel 12;
#X obj 910 362 sel 13;
#X obj 983 362 sel 14;
#X obj 1052 361 sel 15;
#X obj 1127 361 sel 16;
#X obj 624 362 sel 9;
#X obj 123 206 + 1;
#X obj 44 388 bng 19 250 50 0 empty empty empty 0 -10 0 12 #fcfcfc #000000 #000000;
#X obj 116 388 bng 19 250 50 0 empty empty empty 0 -10 0 12 #fcfcfc #000000 #000000;
#X obj 187 388 bng 19 250 50 0 empty empty empty 0 -10 0 12 #fcfcfc #000000 #000000;
#X obj 258 388 bng 19 250 50 0 empty empty empty 0 -10 0 12 #fcfcfc #000000 #000000;
#X obj 330 387 bng 19 250 50 0 empty empty empty 0 -10 0 12 #fcfcfc #000000 #000000;
#X obj 404 387 bng 19 250 50 0 empty empty empty 0 -10 0 12 #fcfcfc #000000 #000000;
#X obj 475 387 bng 19 250 50 0 empty empty empty 0 -10 0 12 #fcfcfc #000000 #000000;
#X obj 548 387 bng 19 250 50 0 empty empty empty 0 -10 0 12 #fcfcfc #000000 #000000;
#X obj 624 386 bng 19 250 50 0 empty empty empty 0 -10 0 12 #fcfcfc #000000 #000000;
#X obj 696 386 bng 19 250 50 0 empty empty empty 0 -10 0 12 #fcfcfc #000000 #000000;
#X obj 765 386 bng 19 250 50 0 empty empty empty 0 -10 0 12 #fcfcfc #000000 #000000;
#X obj 839 386 bng 19 250 50 0 empty empty empty 0 -10 0 12 #fcfcfc #000000 #000000;
#X obj 910 386 bng 19 250 50 0 empty empty empty 0 -10 0 12 #fcfcfc #000000 #000000;
#X obj 983 386 bng 19 250 50 0 empty empty empty 0 -10 0 12 #fcfcfc #000000 #000000;
#X obj 1052 385 bng 19 250 50 0 empty empty empty 0 -10 0 12 #fcfcfc #000000 #000000;
#X obj 1127 386 bng 19 250 50 0 empty empty empty 0 -10 0 12 #fcfcfc #000000 #000000;
#X obj 42 581 spigot;
#X obj 81 547 tgl 25 0 empty empty empty 0 -10 0 12 #fcfcfc #000000 #000000 0 1;
#X obj 116 580 spigot;
#X obj 155 546 tgl 25 0 empty empty empty 0 -10 0 12 #fcfcfc #000000 #000000 0 1;
#X obj 187 579 spigot;
#X obj 226 545 tgl 25 0 empty empty empty 0 -10 0 12 #fcfcfc #000000 #000000 0 1;
#X obj 258 578 spigot;
#X obj 297 544 tgl 25 0 empty empty empty 0 -10 0 12 #fcfcfc #000000 #000000 0 1;
#X obj 331 577 spigot;
#X obj 370 543 tgl 25 0 empty empty empty 0 -10 0 12 #fcfcfc #000000 #000000 0 1;
#X obj 403 578 spigot;
#X obj 442 544 tgl 25 0 empty empty empty 0 -10 0 12 #fcfcfc #000000 #000000 0 1;
#X obj 474 577 spigot;
#X obj 513 543 tgl 25 0 empty empty empty 0 -10 0 12 #fcfcfc #000000 #000000 0 1;
#X obj 547 576 spigot;
#X obj 586 542 tgl 25 0 empty empty empty 0 -10 0 12 #fcfcfc #000000 #000000 0 1;
#X obj 44 249 + 1;
#X obj 622 576 spigot;
#X obj 661 542 tgl 25 0 empty empty empty 0 -10 0 12 #fcfcfc #000000 #000000 0 1;
#X obj 696 575 spigot;
#X obj 735 541 tgl 25 0 empty empty empty 0 -10 0 12 #fcfcfc #000000 #000000 0 1;
#X obj 765 574 spigot;
#X obj 806 540 tgl 25 0 empty empty empty 0 -10 0 12 #fcfcfc #000000 #000000 0 1;
#X obj 838 573 spigot;
#X obj 877 539 tgl 25 0 empty empty empty 0 -10 0 12 #fcfcfc #000000 #000000 0 1;
#X obj 911 572 spigot;
#X obj 950 538 tgl 25 0 empty empty empty 0 -10 0 12 #fcfcfc #000000 #000000 0 1;
#X obj 983 573 spigot;
#X obj 1022 539 tgl 25 0 empty empty empty 0 -10 0 12 #fcfcfc #000000 #000000 0 1;
#X obj 1054 572 spigot;
#X obj 1093 538 tgl 25 0 empty empty empty 0 -10 0 12 #fcfcfc #000000 #000000 0 1;
#X obj 1127 571 spigot;
#X obj 1166 537 tgl 25 0 empty empty empty 0 -10 0 12 #fcfcfc #000000 #000000 0 1;
#X obj 43 22 tgl 19 0 empty empty empty 17 7 0 10 #dfdfdf #000000 #000000 0 1;
#X floatatom 86 105 5 0 0 0 - - - 0;
#X obj 276 67 loadbang;
#X obj 1127 601 spigot;
#X obj 1231 474 tgl 35 0 empty empty empty 0 -10 0 12 #ffffff #ff0400 #000000 0 1;
#X obj 1231 450 loadbang;
#X obj 52 513 loadbang;
#X obj 1127 625 s sample;
#N canvas 646 83 718 648 breakbeat 1;
#X obj 97 66 inlet;
#X obj 141 66 inlet;
#X obj 97 92 openpanel;
#X obj 97 140 soundfiler;
#X floatatom 97 164 5 0 0 0 - - - 0;
#X obj 97 187 t b f;
#X floatatom 97 217 5 0 0 0 - - - 0;
#X obj 97 240 t f f;
#X obj 58 287 t f f;
#X obj 58 334 *;
#X obj 58 358 pack f f f;
#X msg 58 382 \$1 \, \$2 \$3;
#X obj 58 406 vline~;
#X obj 58 430 tabread4~ sampleData;
#X obj 58 509 *~;
#X obj 58 533 dac~;
#X floatatom 76 486 5 0 1 1 Vol - - 0;
#X obj 91 335 *;
#X obj 128 263 expr $f2 / $f1;
#X floatatom 128 287 5 0 0 0 - - - 0;
#X obj 125 311 / 44.1;
#X msg 97 116 read -resize \$1 sampleData;
#X obj 143 358 s tempo;
#X obj 36 263 value sample;
#X obj 58 311 - 1;
#X obj 142 164 loadbang;
#X msg 142 188 16;
#X msg 101 454 0.4;
#X obj 185 66 inlet;
#X obj 36 215 r play;
#X obj 36 239 bng 19 250 50 0 empty empty empty 0 -10 0 12 #fcfcfc #000000 #000000;
#X obj 58 454 vcf~;
#X connect 0 0 2 0;
#X connect 1 0 31 1;
#X connect 2 0 21 0;
#X connect 3 0 4 0;
#X connect 4 0 5 0;
#X connect 5 0 6 0;
#X connect 5 1 18 1;
#X connect 6 0 7 0;
#X connect 7 1 18 0;
#X connect 8 0 24 0;
#X connect 8 1 17 0;
#X connect 9 0 10 0;
#X connect 10 0 11 0;
#X connect 11 0 12 0;
#X connect 12 0 13 0;
#X connect 13 0 31 0;
#X connect 14 0 15 0;
#X connect 14 0 15 1;
#X connect 16 0 14 1;
#X connect 17 0 10 1;
#X connect 18 0 19 0;
#X connect 19 0 9 1;
#X connect 19 0 17 1;
#X connect 19 0 20 0;
#X connect 20 0 10 2;
#X connect 20 0 22 0;
#X connect 21 0 3 0;
#X connect 23 0 8 0;
#X connect 24 0 9 0;
#X connect 25 0 26 0;
#X connect 25 0 27 0;
#X connect 26 0 6 0;
#X connect 27 0 16 0;
#X connect 28 0 31 2;
#X connect 29 0 30 0;
#X connect 30 0 23 0;
#X connect 31 0 14 0;
#X restore 195 273 pd breakbeat;
#X obj 195 246 bng 19 250 50 0 empty empty empty 0 -10 0 12 #fcfcfc #000000 #000000;
#X obj 279 155 hsl 100 19 100 10000 0 0 empty empty resonance -2 -10 0 12 #fcfcfc #000000 #000000 0 1;
#X obj 279 222 hsl 100 19 0.1 3.9 0 0 empty empty lows -2 -10 0 12 #fcfcfc #000000 #000000 0 1;
#X floatatom 276 179 10 0 0 0 - - - 12;
#X floatatom 276 246 10 0 0 0 - - - 12;
#X obj 382 178 * -1;
#X obj 382 202 * 0.00040404;
#X obj 382 226 + 4.0404;
#X msg 276 115 0.1;
#X msg 276 90 10000;
#X obj 86 82 r tempo;
#X obj 44 129 metro;
#N canvas 604 231 820 366 presets 1;
#X obj 49 45 bng 30 250 50 0 empty empty random\ beat 0 -10 0 12 #ffe3c6 #000000 #000000;
#X obj 49 121 s b1;
#X obj 130 121 s b2;
#X obj 210 121 s b3;
#X obj 289 121 s b4;
#X obj 49 167 s b5;
#X obj 130 167 s b6;
#X obj 210 167 s b7;
#X obj 289 167 s b8;
#X obj 49 213 s b9;
#X obj 130 213 s b10;
#X obj 210 213 s b11;
#X obj 289 213 s b12;
#X obj 49 260 s b13;
#X obj 130 260 s b14;
#X obj 289 260 s b16;
#X obj 210 260 s b15;
#X obj 49 96 random 16;
#X obj 130 96 random 16;
#X obj 210 96 random 16;
#X obj 289 96 random 16;
#X obj 49 144 random 16;
#X obj 130 144 random 16;
#X obj 210 144 random 16;
#X obj 289 144 random 16;
#X obj 289 190 random 16;
#X obj 289 237 random 16;
#X obj 210 190 random 16;
#X obj 210 237 random 16;
#X obj 130 190 random 16;
#X obj 130 237 random 16;
#X obj 49 190 random 16;
#X obj 49 237 random 16;
#X obj 378 44 bng 30 250 50 0 empty empty reset 0 -10 0 12 #ffe3c6 #000000 #000000;
#X obj 378 120 s b1;
#X obj 459 120 s b2;
#X obj 539 120 s b3;
#X obj 618 120 s b4;
#X obj 378 166 s b5;
#X obj 459 166 s b6;
#X obj 539 166 s b7;
#X obj 618 166 s b8;
#X obj 378 212 s b9;
#X obj 459 212 s b10;
#X obj 539 212 s b11;
#X obj 618 212 s b12;
#X obj 378 259 s b13;
#X obj 459 259 s b14;
#X obj 618 259 s b16;
#X obj 539 259 s b15;
#X obj 378 95 int 0;
#X obj 459 95 int 1;
#X obj 539 95 int 2;
#X obj 618 95 int 3;
#X obj 378 143 int 4;
#X obj 459 143 int 5;
#X obj 539 143 int 6;
#X obj 618 143 int 7;
#X obj 378 189 int 8;
#X obj 459 189 int 9;
#X obj 539 189 int 10;
#X obj 618 189 int 11;
#X obj 378 236 int 12;
#X obj 459 236 int 13;
#X obj 539 236 int 14;
#X obj 618 236 int 15;
#X connect 0 0 18 0;
#X connect 0 0 19 0;
#X connect 0 0 20 0;
#X connect 0 0 22 0;
#X connect 0 0 24 0;
#X connect 0 0 25 0;
#X connect 0 0 27 0;
#X connect 0 0 28 0;
#X connect 0 0 29 0;
#X connect 0 0 30 0;
#X connect 0 0 31 0;
#X connect 0 0 21 0;
#X connect 0 0 26 0;
#X connect 0 0 23 0;
#X connect 0 0 32 0;
#X connect 0 0 17 0;
#X connect 17 0 1 0;
#X connect 18 0 2 0;
#X connect 19 0 3 0;
#X connect 20 0 4 0;
#X connect 21 0 5 0;
#X connect 22 0 6 0;
#X connect 23 0 7 0;
#X connect 24 0 8 0;
#X connect 25 0 12 0;
#X connect 26 0 15 0;
#X connect 27 0 11 0;
#X connect 28 0 16 0;
#X connect 29 0 10 0;
#X connect 30 0 14 0;
#X connect 31 0 9 0;
#X connect 32 0 13 0;
#X connect 33 0 50 0;
#X connect 33 0 51 0;
#X connect 33 0 52 0;
#X connect 33 0 53 0;
#X connect 33 0 54 0;
#X connect 33 0 55 0;
#X connect 33 0 56 0;
#X connect 33 0 57 0;
#X connect 33 0 58 0;
#X connect 33 0 59 0;
#X connect 33 0 60 0;
#X connect 33 0 61 0;
#X connect 33 0 62 0;
#X connect 33 0 63 0;
#X connect 33 0 64 0;
#X connect 33 0 65 0;
#X connect 50 0 34 0;
#X connect 51 0 35 0;
#X connect 52 0 36 0;
#X connect 53 0 37 0;
#X connect 54 0 38 0;
#X connect 55 0 39 0;
#X connect 56 0 40 0;
#X connect 57 0 41 0;
#X connect 58 0 42 0;
#X connect 59 0 43 0;
#X connect 60 0 44 0;
#X connect 61 0 45 0;
#X connect 62 0 46 0;
#X connect 63 0 47 0;
#X connect 64 0 49 0;
#X connect 65 0 48 0;
#X restore 459 115 pd presets;
#X obj 56 411 r b1;
#X obj 43 482 int 1;
#X obj 56 435 + 1;
#X floatatom 56 459 5 1 16 0 - - - 0;
#X obj 129 434 + 1;
#X floatatom 129 458 5 1 16 0 - - - 0;
#X obj 129 410 r b2;
#X obj 116 481 int 2;
#X obj 202 434 + 1;
#X floatatom 202 458 5 1 16 0 - - - 0;
#X obj 269 435 + 1;
#X floatatom 269 459 5 1 16 0 - - - 0;
#X obj 342 436 + 1;
#X floatatom 342 460 5 1 16 0 - - - 0;
#X obj 415 435 + 1;
#X floatatom 415 459 5 1 16 0 - - - 0;
#X obj 488 435 + 1;
#X floatatom 488 459 5 1 16 0 - - - 0;
#X obj 557 436 + 1;
#X floatatom 557 460 5 1 16 0 - - - 0;
#X obj 634 433 + 1;
#X floatatom 634 457 5 1 16 0 - - - 0;
#X obj 707 432 + 1;
#X floatatom 707 456 5 1 16 0 - - - 0;
#X obj 780 432 + 1;
#X floatatom 780 456 5 1 16 0 - - - 0;
#X obj 849 433 + 1;
#X floatatom 849 457 5 1 16 0 - - - 0;
#X obj 920 433 + 1;
#X floatatom 920 457 5 1 16 0 - - - 0;
#X obj 993 432 + 1;
#X floatatom 993 456 5 1 16 0 - - - 0;
#X obj 1066 432 + 1;
#X floatatom 1066 456 5 1 16 0 - - - 0;
#X obj 1140 434 + 1;
#X floatatom 1140 458 5 1 16 0 - - - 0;
#X obj 202 410 r b3;
#X obj 188 481 int 3;
#X obj 269 411 r b4;
#X obj 257 482 int 4;
#X obj 330 483 int 5;
#X obj 342 412 r b5;
#X obj 415 411 r b6;
#X obj 403 482 int 6;
#X obj 488 411 r b7;
#X obj 475 482 int 7;
#X obj 547 483 int 8;
#X obj 557 412 r b8;
#X obj 634 409 r b9;
#X obj 623 480 int 9;
#X obj 707 408 r b10;
#X obj 696 479 int 10;
#X obj 780 408 r b11;
#X obj 765 479 int 11;
#X obj 849 409 r b12;
#X obj 838 480 int 12;
#X obj 920 409 r b13;
#X obj 910 480 int 13;
#X obj 993 408 r b14;
#X obj 1066 408 r b15;
#X obj 1140 410 r b16;
#X obj 1053 479 int 15;
#X obj 1127 481 int 16;
#X obj 982 479 int 14;
#X obj 1126 648 bng 19 250 50 0 empty empty empty 0 -10 0 12 #fcfcfc #000000 #000000;
#X obj 1126 672 s play;
#X obj 124 139 tgl 19 0 empty empty empty 0 -10 0 12 #fcfcfc #000000 #000000 0 1;
#N canvas 923 200 450 300 autorandom 1;
#X obj 36 36 inlet;
#X obj 90 37 inlet;
#X obj 36 60 tgl 19 0 empty empty empty 0 -10 0 12 #fcfcfc #000000 #000000 0 1;
#X obj 36 84 spigot;
#X obj 36 134 s b13;
#X obj 117 134 s b14;
#X obj 276 134 s b16;
#X obj 197 134 s b15;
#X obj 276 111 random 16;
#X obj 197 111 random 16;
#X obj 117 111 random 16;
#X obj 36 111 random 16;
#X obj 37 163 sel 0;
#X connect 0 0 2 0;
#X connect 1 0 3 0;
#X connect 2 0 3 1;
#X connect 2 0 12 0;
#X connect 3 0 11 0;
#X connect 3 0 10 0;
#X connect 3 0 9 0;
#X connect 3 0 8 0;
#X connect 8 0 6 0;
#X connect 9 0 7 0;
#X connect 10 0 5 0;
#X connect 11 0 4 0;
#X restore 124 163 pd autorandom;
#N canvas 0 22 450 278 (subpatch) 0;
#X array sampleData 120960 float 0;
#X coords 0 1 120959 -1 200 140 1;
#X restore 669 107 graph;
#X connect 0 0 1 0;
#X connect 1 0 5 0;
#X connect 1 0 24 0;
#X connect 2 0 3 0;
#X connect 3 0 4 0;
#X connect 4 0 1 0;
#X connect 5 0 6 0;
#X connect 6 0 57 0;
#X connect 7 0 8 0;
#X connect 7 0 9 0;
#X connect 7 0 23 0;
#X connect 7 0 22 0;
#X connect 7 0 21 0;
#X connect 7 0 20 0;
#X connect 7 0 19 0;
#X connect 7 0 18 0;
#X connect 7 0 17 0;
#X connect 7 0 16 0;
#X connect 7 0 15 0;
#X connect 7 0 14 0;
#X connect 7 0 13 0;
#X connect 7 0 12 0;
#X connect 7 0 11 0;
#X connect 7 0 10 0;
#X connect 8 0 25 0;
#X connect 9 0 26 0;
#X connect 10 0 27 0;
#X connect 11 0 28 0;
#X connect 12 0 29 0;
#X connect 13 0 30 0;
#X connect 14 0 31 0;
#X connect 15 0 32 0;
#X connect 16 0 34 0;
#X connect 17 0 35 0;
#X connect 18 0 36 0;
#X connect 19 0 37 0;
#X connect 20 0 38 0;
#X connect 21 0 39 0;
#X connect 22 0 40 0;
#X connect 23 0 33 0;
#X connect 24 0 1 1;
#X connect 25 0 97 0;
#X connect 25 0 163 1;
#X connect 26 0 103 0;
#X connect 27 0 133 0;
#X connect 28 0 135 0;
#X connect 29 0 136 0;
#X connect 30 0 139 0;
#X connect 31 0 141 0;
#X connect 32 0 142 0;
#X connect 33 0 145 0;
#X connect 34 0 147 0;
#X connect 35 0 149 0;
#X connect 36 0 151 0;
#X connect 37 0 153 0;
#X connect 38 0 159 0;
#X connect 39 0 157 0;
#X connect 40 0 158 0;
#X connect 41 0 77 0;
#X connect 42 0 41 1;
#X connect 43 0 77 0;
#X connect 44 0 43 1;
#X connect 45 0 77 0;
#X connect 46 0 45 1;
#X connect 47 0 77 0;
#X connect 48 0 47 1;
#X connect 49 0 77 0;
#X connect 50 0 49 1;
#X connect 51 0 77 0;
#X connect 52 0 51 1;
#X connect 53 0 77 0;
#X connect 54 0 53 1;
#X connect 55 0 77 0;
#X connect 56 0 55 1;
#X connect 57 0 7 0;
#X connect 58 0 77 0;
#X connect 59 0 58 1;
#X connect 60 0 77 0;
#X connect 61 0 60 1;
#X connect 62 0 77 0;
#X connect 63 0 62 1;
#X connect 64 0 77 0;
#X connect 65 0 64 1;
#X connect 66 0 77 0;
#X connect 67 0 66 1;
#X connect 68 0 77 0;
#X connect 69 0 68 1;
#X connect 70 0 77 0;
#X connect 71 0 70 1;
#X connect 72 0 77 0;
#X connect 73 0 72 1;
#X connect 74 0 2 0;
#X connect 74 0 94 0;
#X connect 75 0 94 1;
#X connect 76 0 92 0;
#X connect 77 0 81 0;
#X connect 77 0 160 0;
#X connect 78 0 77 1;
#X connect 79 0 78 0;
#X connect 80 0 42 0;
#X connect 80 0 73 0;
#X connect 80 0 71 0;
#X connect 80 0 69 0;
#X connect 80 0 67 0;
#X connect 80 0 65 0;
#X connect 80 0 63 0;
#X connect 80 0 61 0;
#X connect 80 0 59 0;
#X connect 80 0 56 0;
#X connect 80 0 54 0;
#X connect 80 0 52 0;
#X connect 80 0 50 0;
#X connect 80 0 48 0;
#X connect 80 0 46 0;
#X connect 80 0 44 0;
#X connect 83 0 82 0;
#X connect 84 0 86 0;
#X connect 84 0 88 0;
#X connect 85 0 87 0;
#X connect 86 0 82 1;
#X connect 87 0 82 2;
#X connect 88 0 85 0;
#X connect 88 0 89 0;
#X connect 89 0 90 0;
#X connect 90 0 85 0;
#X connect 92 0 84 0;
#X connect 93 0 75 0;
#X connect 94 0 0 0;
#X connect 96 0 98 0;
#X connect 97 0 41 0;
#X connect 98 0 99 0;
#X connect 99 0 97 1;
#X connect 100 0 101 0;
#X connect 101 0 103 1;
#X connect 102 0 100 0;
#X connect 103 0 43 0;
#X connect 104 0 105 0;
#X connect 105 0 133 1;
#X connect 106 0 107 0;
#X connect 107 0 135 1;
#X connect 108 0 109 0;
#X connect 109 0 136 1;
#X connect 110 0 111 0;
#X connect 111 0 139 1;
#X connect 112 0 113 0;
#X connect 113 0 141 1;
#X connect 114 0 115 0;
#X connect 115 0 142 1;
#X connect 116 0 117 0;
#X connect 117 0 145 1;
#X connect 118 0 119 0;
#X connect 119 0 147 1;
#X connect 120 0 121 0;
#X connect 121 0 149 1;
#X connect 122 0 123 0;
#X connect 123 0 151 1;
#X connect 124 0 125 0;
#X connect 125 0 153 1;
#X connect 126 0 127 0;
#X connect 127 0 159 1;
#X connect 128 0 129 0;
#X connect 129 0 157 1;
#X connect 130 0 131 0;
#X connect 131 0 158 1;
#X connect 132 0 104 0;
#X connect 133 0 45 0;
#X connect 134 0 106 0;
#X connect 135 0 47 0;
#X connect 136 0 49 0;
#X connect 137 0 108 0;
#X connect 138 0 110 0;
#X connect 139 0 51 0;
#X connect 140 0 112 0;
#X connect 141 0 53 0;
#X connect 142 0 55 0;
#X connect 143 0 114 0;
#X connect 144 0 116 0;
#X connect 145 0 58 0;
#X connect 146 0 118 0;
#X connect 147 0 60 0;
#X connect 148 0 120 0;
#X connect 149 0 62 0;
#X connect 150 0 122 0;
#X connect 151 0 64 0;
#X connect 152 0 124 0;
#X connect 153 0 66 0;
#X connect 154 0 126 0;
#X connect 155 0 128 0;
#X connect 156 0 130 0;
#X connect 157 0 70 0;
#X connect 158 0 72 0;
#X connect 159 0 68 0;
#X connect 160 0 161 0;
#X connect 162 0 163 0;
