#N canvas 491 37 949 712 12;
#X obj 94 80 metro;
#X obj 94 134 bng 19 250 50 0 empty empty empty 0 -10 0 12 #fcfcfc #000000 #000000;
#X obj 93 37 tgl 25 0 empty empty play -30 10 0 12 #dfdfdf #000000 #000000 0 1;
#X obj 94 174 int 1;
#X obj 46 86 sel 0;
#X obj 46 110 bng 19 250 50 0 empty empty empty 0 -10 0 12 #fcfcfc #000000 #000000;
#X msg 46 134 -1;
#X obj 24 61 loadbang;
#X floatatom 95 237 5 0 0 0 - - - 0;
#X obj 95 260 % 16;
#X obj 178 443 sel 1;
#X obj 235 443 sel 2;
#X obj 293 443 sel 3;
#X obj 351 443 sel 4;
#X obj 177 490 sel 5;
#X obj 234 490 sel 6;
#X obj 292 490 sel 7;
#X obj 350 490 sel 8;
#X obj 234 538 sel 10;
#X obj 292 538 sel 11;
#X obj 350 538 sel 12;
#X obj 176 586 sel 13;
#X obj 233 586 sel 14;
#X obj 291 586 sel 15;
#X obj 349 586 sel 16;
#X obj 177 538 sel 9;
#X obj 154 201 + 1;
#X obj 178 467 bng 19 250 50 0 empty empty empty 0 -10 0 12 #fcfcfc #000000 #000000;
#X obj 235 467 bng 19 250 50 0 empty empty empty 0 -10 0 12 #fcfcfc #000000 #000000;
#X obj 293 467 bng 19 250 50 0 empty empty empty 0 -10 0 12 #fcfcfc #000000 #000000;
#X obj 351 467 bng 19 250 50 0 empty empty empty 0 -10 0 12 #fcfcfc #000000 #000000;
#X obj 177 514 bng 19 250 50 0 empty empty empty 0 -10 0 12 #fcfcfc #000000 #000000;
#X obj 234 514 bng 19 250 50 0 empty empty empty 0 -10 0 12 #fcfcfc #000000 #000000;
#X obj 292 514 bng 19 250 50 0 empty empty empty 0 -10 0 12 #fcfcfc #000000 #000000;
#X obj 350 514 bng 19 250 50 0 empty empty empty 0 -10 0 12 #fcfcfc #000000 #000000;
#X obj 177 562 bng 19 250 50 0 empty empty empty 0 -10 0 12 #fcfcfc #000000 #000000;
#X obj 234 562 bng 19 250 50 0 empty empty empty 0 -10 0 12 #fcfcfc #000000 #000000;
#X obj 292 562 bng 19 250 50 0 empty empty empty 0 -10 0 12 #fcfcfc #000000 #000000;
#X obj 350 562 bng 19 250 50 0 empty empty empty 0 -10 0 12 #fcfcfc #000000 #000000;
#X obj 176 610 bng 19 250 50 0 empty empty empty 0 -10 0 12 #fcfcfc #000000 #000000;
#X obj 233 610 bng 19 250 50 0 empty empty empty 0 -10 0 12 #fcfcfc #000000 #000000;
#X obj 291 610 bng 19 250 50 0 empty empty empty 0 -10 0 12 #fcfcfc #000000 #000000;
#X obj 349 610 bng 19 250 50 0 empty empty empty 0 -10 0 12 #fcfcfc #000000 #000000;
#X obj 95 284 + 1;
#X obj 492 24 bng 19 250 50 0 empty empty empty 0 -10 0 12 #fcfcfc #000000 #000000;
#X obj 492 48 openpanel;
#X obj 492 96 soundfiler;
#X floatatom 492 120 5 0 0 0 - - - 0;
#X obj 492 143 t b f;
#X floatatom 492 173 5 0 0 0 - - - 0;
#X obj 492 196 t f f;
#X obj 431 163 tgl 19 0 empty empty empty 0 -10 0 12 #fcfcfc #000000 #000000 0 1;
#X obj 431 188 metro;
#X obj 453 243 t f f;
#X obj 453 290 *;
#X obj 453 314 pack f f f;
#X msg 453 338 \$1 \, \$2 \$3;
#X obj 453 362 vline~;
#X obj 453 386 tabread4~ sampleData;
#X obj 453 465 *~;
#X obj 453 489 dac~;
#X floatatom 471 442 5 0 1 1 Vol - - 0;
#X obj 486 291 *;
#X obj 523 219 expr $f2 / $f1;
#X floatatom 523 243 5 0 0 0 - - - 0;
#X obj 520 267 / 44.1;
#N canvas 0 22 450 278 (subpatch) 0;
#X array sampleData 120960 float 0;
#X coords 0 1 120959 -1 200 140 1;
#X restore 451 539 graph;
#X msg 492 72 read -resize \$1 sampleData;
#X obj 127 49 r tempo;
#X obj 538 314 s tempo;
#X obj 104 104 s play;
#X obj 431 139 r play;
#X floatatom 95 308 5 0 0 0 - - - 0;
#X obj 243 112 tgl 25 0 empty empty random 30 10 0 12 #dfdfdf #000000 #000000 0 1;
#X obj 243 236 metro;
#X obj 243 260 random 16;
#X floatatom 243 308 5 0 0 0 - - - 0;
#X obj 275 208 r tempo;
#X floatatom 95 355 5 0 0 0 - - - 0;
#X obj 95 331 spigot;
#X obj 243 331 spigot;
#X obj 281 131 r play;
#X obj 156 237 sel 0 1, f 10;
#X obj 155 294 tgl 19 0 empty empty empty 0 -10 0 12 #fcfcfc #000000 #000000 0 1;
#X msg 188 262 0;
#X obj 243 210 tgl 19 0 empty empty empty 0 -10 0 12 #fcfcfc #000000 #000000 0 1;
#X obj 243 186 &&;
#X obj 281 155 t b f;
#X obj 431 219 value sample;
#X obj 243 284 + 1;
#X obj 453 267 - 1;
#X obj 95 586 s sample;
#X obj 148 330 s beat;
#X obj 243 41 spigot, f 8;
#X obj 296 9 tgl 25 0 empty empty auto-random 30 10 0 12 #dfdfdf #000000 #000000 0 1;
#X obj 243 15 r beat;
#X msg 155 261 1;
#X obj 243 65 > 11;
#X obj 243 89 &&;
#X obj 280 65 < 15;
#X obj 537 120 loadbang;
#X msg 537 144 16;
#X msg 496 410 0.4;
#X obj 615 260 hsl 100 19 100 10000 0 0 empty empty resonance -2 -10 0 12 #fcfcfc #000000 #000000 0 1;
#X obj 615 327 hsl 100 19 0.1 3.9 0 0 empty empty lows -2 -10 0 12 #fcfcfc #000000 #000000 0 1;
#X floatatom 612 284 10 0 0 0 - - - 12;
#X floatatom 612 351 10 0 0 0 - - - 12;
#X msg 646 219 0.1;
#X msg 646 194 10000;
#X obj 646 162 bng 19 250 50 0 empty empty empty 0 -10 0 12 #fcfcfc #000000 #000000;
#X obj 453 410 bob~;
#X obj 718 283 * -1;
#X obj 718 307 * 0.00040404;
#X obj 718 331 + 4.0404;
#X connect 0 0 1 0 empty;
#X connect 1 0 3 0 empty;
#X connect 2 0 0 0 empty;
#X connect 2 0 4 0 empty;
#X connect 2 0 70 0 empty;
#X connect 3 0 8 0 empty;
#X connect 3 0 26 0 empty;
#X connect 4 0 5 0 empty;
#X connect 5 0 6 0 empty;
#X connect 6 0 3 0 empty;
#X connect 7 0 5 0 empty;
#X connect 7 0 83 0 empty;
#X connect 8 0 9 0 empty;
#X connect 9 0 43 0 empty;
#X connect 10 0 27 0 empty;
#X connect 11 0 28 0 empty;
#X connect 12 0 29 0 empty;
#X connect 13 0 30 0 empty;
#X connect 14 0 31 0 empty;
#X connect 15 0 32 0 empty;
#X connect 16 0 33 0 empty;
#X connect 17 0 34 0 empty;
#X connect 18 0 36 0 empty;
#X connect 19 0 37 0 empty;
#X connect 20 0 38 0 empty;
#X connect 21 0 39 0 empty;
#X connect 22 0 40 0 empty;
#X connect 23 0 41 0 empty;
#X connect 24 0 42 0 empty;
#X connect 25 0 35 0 empty;
#X connect 26 0 3 1 empty;
#X connect 43 0 72 0 empty;
#X connect 44 0 45 0 empty;
#X connect 45 0 67 0 empty;
#X connect 46 0 47 0 empty;
#X connect 47 0 48 0 empty;
#X connect 48 0 49 0 empty;
#X connect 48 0 109 0 empty;
#X connect 48 1 63 1 empty;
#X connect 49 0 50 0 empty;
#X connect 50 1 63 0 empty;
#X connect 51 0 52 0 empty;
#X connect 52 0 88 0 empty;
#X connect 53 0 90 0 empty;
#X connect 53 1 62 0 empty;
#X connect 54 0 55 0 empty;
#X connect 55 0 56 0 empty;
#X connect 56 0 57 0 empty;
#X connect 57 0 58 0 empty;
#X connect 58 0 110 0 empty;
#X connect 59 0 60 0 empty;
#X connect 59 0 60 1 empty;
#X connect 61 0 59 1 empty;
#X connect 62 0 55 1 empty;
#X connect 63 0 64 0 empty;
#X connect 64 0 54 1 empty;
#X connect 64 0 62 1 empty;
#X connect 64 0 65 0 empty;
#X connect 65 0 52 1 empty;
#X connect 65 0 55 2 empty;
#X connect 65 0 69 0 empty;
#X connect 67 0 46 0 empty;
#X connect 68 0 0 1 empty;
#X connect 71 0 51 0 empty;
#X connect 72 0 79 0 empty;
#X connect 72 0 92 0 empty;
#X connect 73 0 82 0 empty;
#X connect 73 0 86 0 empty;
#X connect 74 0 75 0 empty;
#X connect 75 0 89 0 empty;
#X connect 76 0 80 0 empty;
#X connect 77 0 74 1 empty;
#X connect 78 0 10 0 empty;
#X connect 78 0 12 0 empty;
#X connect 78 0 11 0 empty;
#X connect 78 0 14 0 empty;
#X connect 78 0 17 0 empty;
#X connect 78 0 16 0 empty;
#X connect 78 0 15 0 empty;
#X connect 78 0 25 0 empty;
#X connect 78 0 20 0 empty;
#X connect 78 0 19 0 empty;
#X connect 78 0 18 0 empty;
#X connect 78 0 21 0 empty;
#X connect 78 0 24 0 empty;
#X connect 78 0 23 0 empty;
#X connect 78 0 22 0 empty;
#X connect 78 0 13 0 empty;
#X connect 78 0 91 0 empty;
#X connect 79 0 78 0 empty;
#X connect 80 0 78 0 empty;
#X connect 81 0 87 0 empty;
#X connect 82 0 96 0 empty;
#X connect 82 1 84 0 empty;
#X connect 83 0 79 1 empty;
#X connect 84 0 83 0 empty;
#X connect 85 0 74 0 empty;
#X connect 85 0 80 1 empty;
#X connect 86 0 85 0 empty;
#X connect 87 0 86 0 empty;
#X connect 87 1 86 1 empty;
#X connect 88 0 53 0 empty;
#X connect 89 0 76 0 empty;
#X connect 90 0 54 0 empty;
#X connect 93 0 97 0 empty;
#X connect 93 0 99 0 empty;
#X connect 94 0 93 1 empty;
#X connect 95 0 93 0 empty;
#X connect 96 0 83 0 empty;
#X connect 97 0 98 0 empty;
#X connect 98 0 73 0 empty;
#X connect 99 0 98 1 empty;
#X connect 100 0 101 0 empty;
#X connect 100 0 102 0 empty;
#X connect 100 0 108 0 empty;
#X connect 100 0 107 0 empty;
#X connect 101 0 49 0 empty;
#X connect 102 0 61 0 empty;
#X connect 103 0 105 0 empty;
#X connect 103 0 111 0 empty;
#X connect 104 0 106 0 empty;
#X connect 105 0 110 1 empty;
#X connect 106 0 110 2 empty;
#X connect 107 0 104 0 empty;
#X connect 108 0 103 0 empty;
#X connect 109 0 108 0 empty;
#X connect 109 0 107 0 empty;
#X connect 110 0 59 0 empty;
#X connect 111 0 104 0 empty;
#X connect 111 0 112 0 empty;
#X connect 112 0 113 0 empty;
#X connect 113 0 104 0 empty;
