#N canvas 0 25 1440 738 12;
#N canvas 33 85 1330 617 play 0;
#X obj 141 396 bng 19 250 50 0 empty empty empty 0 -10 0 12 #fcfcfc #000000 #000000;
#X obj 141 459 int 1;
#X obj 93 371 sel 0;
#X obj 93 395 bng 19 250 50 0 empty empty empty 0 -10 0 12 #fcfcfc #000000 #000000;
#X msg 93 419 -1;
#X floatatom 141 483 5 0 0 0 - - - 0;
#X obj 141 506 % 16;
#X floatatom 141 554 5 0 0 0 - - - 0;
#X obj 410 16 sel 1;
#X obj 464 16 sel 2;
#X obj 514 16 sel 3;
#X obj 565 16 sel 4;
#X obj 618 15 sel 5;
#X obj 672 15 sel 6;
#X obj 722 15 sel 7;
#X obj 773 15 sel 8;
#X obj 872 14 sel 10;
#X obj 921 14 sel 11;
#X obj 969 14 sel 12;
#X obj 1016 14 sel 13;
#X obj 1064 14 sel 14;
#X obj 1112 13 sel 15;
#X obj 1162 13 sel 16;
#X obj 822 14 sel 9;
#X obj 220 487 + 1;
#X obj 411 138 bng 19 250 50 0 empty empty empty 0 -10 0 12 #fcfcfc #000000 #000000;
#X obj 465 138 bng 19 250 50 0 empty empty empty 0 -10 0 12 #fcfcfc #000000 #000000;
#X obj 515 138 bng 19 250 50 0 empty empty empty 0 -10 0 12 #fcfcfc #000000 #000000;
#X obj 566 138 bng 19 250 50 0 empty empty empty 0 -10 0 12 #fcfcfc #000000 #000000;
#X obj 619 138 bng 19 250 50 0 empty empty empty 0 -10 0 12 #fcfcfc #000000 #000000;
#X obj 673 138 bng 19 250 50 0 empty empty empty 0 -10 0 12 #fcfcfc #000000 #000000;
#X obj 723 138 bng 19 250 50 0 empty empty empty 0 -10 0 12 #fcfcfc #000000 #000000;
#X obj 774 138 bng 19 250 50 0 empty empty empty 0 -10 0 12 #fcfcfc #000000 #000000;
#X obj 823 138 bng 19 250 50 0 empty empty empty 0 -10 0 12 #fcfcfc #000000 #000000;
#X obj 873 138 bng 19 250 50 0 empty empty empty 0 -10 0 12 #fcfcfc #000000 #000000;
#X obj 922 138 bng 19 250 50 0 empty empty empty 0 -10 0 12 #fcfcfc #000000 #000000;
#X obj 970 138 bng 19 250 50 0 empty empty empty 0 -10 0 12 #fcfcfc #000000 #000000;
#X obj 1017 138 bng 19 250 50 0 empty empty empty 0 -10 0 12 #fcfcfc #000000 #000000;
#X obj 1065 138 bng 19 250 50 0 empty empty empty 0 -10 0 12 #fcfcfc #000000 #000000;
#X obj 1113 138 bng 19 250 50 0 empty empty empty 0 -10 0 12 #fcfcfc #000000 #000000;
#X obj 1163 138 bng 19 250 50 0 empty empty empty 0 -10 0 12 #fcfcfc #000000 #000000;
#X obj 411 252 s one;
#X obj 465 252 s two;
#X obj 515 252 s three;
#X obj 566 252 s four;
#X obj 619 252 s five;
#X obj 673 252 s six;
#X obj 723 252 s seven;
#X obj 823 252 s nine;
#X obj 873 252 s ten;
#X obj 774 252 s eight;
#X obj 970 252 s twelve;
#X obj 922 252 s eleven;
#X obj 1017 252 s thirt;
#X obj 1065 252 s fourt;
#X obj 1113 252 s fift;
#X obj 1163 252 s sixt;
#X obj 141 530 + 1;
#X obj 141 371 metro 1 120 permin, f 19;
#X obj 119 112 tgl 19 0 empty empty play 25 10 0 10 #dfdfdf #000000 #000000 0 1;
#X msg 271 296 4;
#X msg 141 346 tempo \$1 permin;
#X floatatom 119 163 5 0 0 0 - - - 0;
#X floatatom 271 345 5 0 0 0 - - - 0;
#X obj 271 321 expr 1/$f1;
#X obj 210 426 s snap;
#X obj 122 137 hsl 250 19 1 250 0 0 empty empty empty -2 -10 0 12 #fcfcfc #000000 #000000 0 1;
#X obj 65 63 loadbang;
#X msg 65 87 120;
#X text 418 117 1;
#X text 473 117 2;
#X text 522 117 3;
#X text 573 117 4;
#X text 626 117 5;
#X text 681 117 6;
#X text 730 117 7;
#X text 781 117 8;
#X text 830 117 9;
#X text 873 117 10;
#X text 922 117 11;
#X text 970 117 12;
#X text 1017 117 13;
#X text 1065 117 14;
#X text 1113 117 15;
#X text 1163 117 16;
#X connect 0 0 1 0;
#X connect 0 0 65 0;
#X connect 1 0 5 0;
#X connect 1 0 24 0;
#X connect 2 0 3 0;
#X connect 3 0 4 0;
#X connect 4 0 1 0;
#X connect 5 0 6 0;
#X connect 6 0 57 0;
#X connect 7 0 8 0;
#X connect 7 0 9 0;
#X connect 7 0 23 0;
#X connect 7 0 22 0;
#X connect 7 0 21 0;
#X connect 7 0 20 0;
#X connect 7 0 19 0;
#X connect 7 0 18 0;
#X connect 7 0 17 0;
#X connect 7 0 16 0;
#X connect 7 0 15 0;
#X connect 7 0 14 0;
#X connect 7 0 13 0;
#X connect 7 0 12 0;
#X connect 7 0 11 0;
#X connect 7 0 10 0;
#X connect 8 0 25 0;
#X connect 9 0 26 0;
#X connect 10 0 27 0;
#X connect 11 0 28 0;
#X connect 12 0 29 0;
#X connect 13 0 30 0;
#X connect 14 0 31 0;
#X connect 15 0 32 0;
#X connect 16 0 34 0;
#X connect 17 0 35 0;
#X connect 18 0 36 0;
#X connect 19 0 37 0;
#X connect 20 0 38 0;
#X connect 21 0 39 0;
#X connect 22 0 40 0;
#X connect 23 0 33 0;
#X connect 24 0 1 1;
#X connect 25 0 41 0;
#X connect 26 0 42 0;
#X connect 27 0 43 0;
#X connect 28 0 44 0;
#X connect 29 0 45 0;
#X connect 30 0 46 0;
#X connect 31 0 47 0;
#X connect 32 0 50 0;
#X connect 33 0 48 0;
#X connect 34 0 49 0;
#X connect 35 0 52 0;
#X connect 36 0 51 0;
#X connect 37 0 53 0;
#X connect 38 0 54 0;
#X connect 39 0 55 0;
#X connect 40 0 56 0;
#X connect 57 0 7 0;
#X connect 58 0 0 0;
#X connect 59 0 58 0;
#X connect 59 0 2 0;
#X connect 60 0 64 0;
#X connect 61 0 58 0;
#X connect 62 0 61 0;
#X connect 63 0 58 1;
#X connect 64 0 63 0;
#X connect 66 0 62 0;
#X connect 67 0 68 0;
#X connect 67 0 60 0;
#X connect 67 0 3 0;
#X connect 68 0 66 0;
#X coords 0 -1 1 1 1108 93 2 100 100;
#X restore 34 167 pd play;
#N canvas 64 25 1376 688 select_samples 0;
#X obj 114 636 dac~;
#N canvas 266 291 450 278 (subpatch) 0;
#X array \$0-sample1 75599 float 2;
#X coords 0 1 75599 -1 127 70 1 0 0;
#X restore 127 152 graph;
#X obj 115 320 soundfiler;
#X floatatom 115 346 7 0 0 0 - - - 0;
#X obj 291 319 soundfiler;
#X floatatom 291 345 7 0 0 0 - - - 0;
#X obj 475 319 soundfiler;
#X floatatom 475 345 7 0 0 0 - - - 0;
#X obj 655 317 soundfiler;
#X floatatom 655 343 7 0 0 0 - - - 0;
#X obj 114 369 r sample1;
#N canvas 266 291 450 278 (subpatch) 0;
#X array \$0-sample2 75599 float 2;
#X coords 0 1 75599 -1 127 70 1 0 0;
#X restore 281 152 graph;
#N canvas 266 291 450 278 (subpatch) 0;
#X array \$0-sample3 160677 float 2;
#X coords 0 1 160677 -1 127 70 1 0 0;
#X restore 436 152 graph;
#N canvas 266 291 450 278 (subpatch) 0;
#X array \$0-sample4 175577 float 2;
#X coords 0 1 175577 -1 127 70 1 0 0;
#X restore 592 152 graph;
#X obj 290 368 r sample2;
#X obj 474 368 r sample3;
#X obj 654 366 r sample4;
#X obj 836 317 soundfiler;
#X floatatom 836 343 7 0 0 0 - - - 0;
#N canvas 266 291 450 278 (subpatch) 0;
#X array \$0-sample5 171803 float 2;
#X coords 0 1 171803 -1 127 70 1 0 0;
#X restore 746 152 graph;
#X obj 835 366 r sample5;
#X obj 127 114 bng 19 250 50 0 empty empty empty 0 -10 0 12 #fcfcfc #000000 #000000;
#X obj 281 114 bng 19 250 50 0 empty empty empty 0 -10 0 12 #fcfcfc #000000 #000000;
#X obj 436 113 bng 19 250 50 0 empty empty empty 0 -10 0 12 #fcfcfc #000000 #000000;
#X obj 592 115 bng 19 250 50 0 empty empty empty 0 -10 0 12 #fcfcfc #000000 #000000;
#X obj 746 114 bng 19 250 50 0 empty empty empty 0 -10 0 12 #fcfcfc #000000 #000000;
#X floatatom 132 590 5 0 1 0 - - - 0;
#X obj 114 612 *~;
#X obj 132 566 r vol1;
#X obj 164 468 rev1~;
#X obj 180 444 r \$0-rev1;
#X obj 132 420 r \$0-rev1on;
#X obj 132 444 tgl 19 0 empty empty empty 0 -10 0 12 #fcfcfc #000000 #000000 0 1;
#X obj 164 492 *~;
#X obj 132 468 - 1;
#X obj 132 492 * -1;
#X obj 290 636 dac~;
#X floatatom 308 590 5 0 1 0 - - - 0;
#X obj 290 612 *~;
#X obj 340 468 rev1~;
#X obj 308 444 tgl 19 0 empty empty empty 0 -10 0 12 #fcfcfc #000000 #000000 0 1;
#X obj 308 468 - 1;
#X obj 308 492 * -1;
#X obj 476 636 dac~;
#X floatatom 494 590 5 0 1 0 - - - 0;
#X obj 476 612 *~;
#X obj 526 468 rev1~;
#X obj 494 444 tgl 19 0 empty empty empty 0 -10 0 12 #fcfcfc #000000 #000000 0 1;
#X obj 494 468 - 1;
#X obj 494 492 * -1;
#X obj 655 636 dac~;
#X floatatom 673 590 5 0 1 0 - - - 0;
#X obj 655 612 *~;
#X obj 705 468 rev1~;
#X obj 673 444 tgl 19 0 empty empty empty 0 -10 0 12 #fcfcfc #000000 #000000 0 1;
#X obj 673 468 - 1;
#X obj 673 492 * -1;
#X obj 836 636 dac~;
#X floatatom 854 590 5 0 1 0 - - - 0;
#X obj 836 612 *~;
#X obj 886 468 rev1~;
#X obj 854 444 tgl 19 0 empty empty empty 0 -10 0 12 #fcfcfc #000000 #000000 0 1;
#X obj 854 468 - 1;
#X obj 854 492 * -1;
#X obj 308 420 r \$0-rev2on;
#X obj 356 444 r \$0-rev2;
#X obj 542 444 r \$0-rev3;
#X obj 494 420 r \$0-rev3on;
#X obj 673 420 r \$0-rev4on;
#X obj 721 444 r \$0-rev4;
#X obj 854 420 r \$0-rev5on;
#X obj 902 444 r \$0-rev5;
#X obj 308 566 r vol2;
#X obj 494 566 r vol3;
#X obj 673 566 r vol4;
#X obj 854 566 r vol5;
#X obj 1006 317 soundfiler;
#X floatatom 1006 343 7 0 0 0 - - - 0;
#N canvas 266 291 450 278 (subpatch) 0;
#X array \$0-sample6 33160 float 2;
#X coords 0 1 33160 -1 127 70 1 0 0;
#X restore 902 152 graph;
#X obj 902 114 bng 19 250 50 0 empty empty empty 0 -10 0 12 #fcfcfc #000000 #000000;
#X obj 1006 636 dac~;
#X floatatom 1024 590 5 0 1 0 - - - 0;
#X obj 1006 612 *~;
#X obj 1056 468 rev1~;
#X obj 1024 444 tgl 19 0 empty empty empty 0 -10 0 12 #fcfcfc #000000 #000000 0 1;
#X obj 1024 468 - 1;
#X obj 1024 492 * -1;
#X obj 1186 317 soundfiler;
#X floatatom 1186 343 7 0 0 0 - - - 0;
#N canvas 266 291 450 278 (subpatch) 0;
#X array \$0-sample7 152064 float 2;
#X coords 0 1 152064 -1 127 70 1 0 0;
#X restore 1054 152 graph;
#X obj 1054 114 bng 19 250 50 0 empty empty empty 0 -10 0 12 #fcfcfc #000000 #000000;
#X obj 1186 636 dac~;
#X floatatom 1204 590 5 0 1 0 - - - 0;
#X obj 1186 612 *~;
#X obj 1236 468 rev1~;
#X obj 1204 444 tgl 19 0 empty empty empty 0 -10 0 12 #fcfcfc #000000 #000000 0 1;
#X obj 1204 468 - 1;
#X obj 1204 492 * -1;
#X obj 114 396 tabplay~ \$0-sample1;
#X obj 290 395 tabplay~ \$0-sample2;
#X obj 474 395 tabplay~ \$0-sample3;
#X obj 654 392 tabplay~ \$0-sample4;
#X obj 835 390 tabplay~ \$0-sample5;
#X obj 1005 390 tabplay~ \$0-sample6;
#X obj 1185 390 tabplay~ \$0-sample7;
#X obj 1072 444 r \$0-rev6;
#X obj 1252 444 r \$0-rev7;
#X obj 115 240 openpanel;
#X obj 190 240 f \$0;
#X obj 115 264 pack s f;
#X obj 291 241 openpanel;
#X obj 366 241 f \$0;
#X obj 291 265 pack s f;
#X obj 474 242 openpanel;
#X obj 549 242 f \$0;
#X obj 474 266 pack s f;
#X obj 655 242 openpanel;
#X obj 730 242 f \$0;
#X obj 655 266 pack s f;
#X obj 836 243 openpanel;
#X obj 911 243 f \$0;
#X obj 836 267 pack s f;
#X obj 1006 243 openpanel;
#X obj 1081 243 f \$0;
#X obj 1006 267 pack s f;
#X obj 1186 244 openpanel;
#X obj 1261 244 f \$0;
#X obj 1186 268 pack s f;
#X msg 115 295 read -resize \$1 \$2-sample1;
#X msg 291 294 read -resize \$1 \$2-sample2;
#X msg 475 294 read -resize \$1 \$2-sample3;
#X msg 655 292 read -resize \$1 \$2-sample4;
#X msg 836 292 read -resize \$1 \$2-sample5;
#X msg 1006 292 read -resize \$1 \$2-sample6;
#X msg 1186 292 read -resize \$1 \$2-sample7;
#X obj 37 221 loadbang;
#X obj 70 120 bng 19 250 50 0 empty empty empty 0 -10 0 12 #fcfcfc #000000 #000000;
#X obj 1024 420 r \$0-rev6on;
#X obj 1204 420 r \$0-rev7on;
#X obj 1024 566 r vol6;
#X obj 1005 366 r sample6;
#X obj 1185 366 r sample7;
#X obj 1204 566 r vol7;
#X obj 114 517 *~ 1;
#X obj 290 517 *~ 1;
#X obj 476 517 *~ 1;
#X obj 655 517 *~ 1;
#X obj 836 517 *~ 1;
#X obj 1006 517 *~ 1;
#X obj 1186 517 *~ 1;
#X obj 114 543 +~;
#X obj 290 543 +~;
#X obj 340 492 *~ 0;
#X obj 526 492 *~ 0;
#X obj 476 543 +~;
#X obj 655 543 +~;
#X obj 705 492 *~ 0;
#X obj 886 492 *~ 0;
#X obj 836 543 +~;
#X obj 1006 543 +~;
#X obj 1056 492 *~ 0;
#X obj 1186 543 +~;
#X obj 1236 492 *~ 0;
#X connect 2 0 3 0;
#X connect 4 0 5 0;
#X connect 6 0 7 0;
#X connect 8 0 9 0;
#X connect 10 0 98 0;
#X connect 14 0 99 0;
#X connect 15 0 100 0;
#X connect 16 0 101 0;
#X connect 17 0 18 0;
#X connect 20 0 102 0;
#X connect 21 0 107 0;
#X connect 22 0 110 0;
#X connect 23 0 113 0;
#X connect 24 0 116 0;
#X connect 25 0 119 0;
#X connect 26 0 27 1;
#X connect 27 0 0 0;
#X connect 27 0 0 1;
#X connect 28 0 26 0;
#X connect 29 0 33 0;
#X connect 30 0 29 1;
#X connect 31 0 32 0;
#X connect 32 0 34 0;
#X connect 32 0 33 1;
#X connect 33 0 150 1;
#X connect 34 0 35 0;
#X connect 35 0 143 1;
#X connect 37 0 38 1;
#X connect 38 0 36 0;
#X connect 38 0 36 1;
#X connect 39 0 152 0;
#X connect 40 0 41 0;
#X connect 40 0 152 1;
#X connect 41 0 42 0;
#X connect 42 0 144 1;
#X connect 44 0 45 1;
#X connect 45 0 43 0;
#X connect 45 0 43 1;
#X connect 46 0 153 0;
#X connect 47 0 48 0;
#X connect 47 0 153 1;
#X connect 48 0 49 0;
#X connect 49 0 145 1;
#X connect 51 0 52 1;
#X connect 52 0 50 0;
#X connect 52 0 50 1;
#X connect 53 0 156 0;
#X connect 54 0 55 0;
#X connect 54 0 156 1;
#X connect 55 0 56 0;
#X connect 56 0 146 1;
#X connect 58 0 59 1;
#X connect 59 0 57 0;
#X connect 59 0 57 1;
#X connect 60 0 157 0;
#X connect 61 0 62 0;
#X connect 61 0 157 1;
#X connect 62 0 63 0;
#X connect 63 0 147 1;
#X connect 64 0 40 0;
#X connect 65 0 39 1;
#X connect 66 0 46 1;
#X connect 67 0 47 0;
#X connect 68 0 54 0;
#X connect 69 0 53 1;
#X connect 70 0 61 0;
#X connect 71 0 60 1;
#X connect 72 0 37 0;
#X connect 73 0 44 0;
#X connect 74 0 51 0;
#X connect 75 0 58 0;
#X connect 76 0 77 0;
#X connect 79 0 122 0;
#X connect 81 0 82 1;
#X connect 82 0 80 0;
#X connect 82 0 80 1;
#X connect 83 0 160 0;
#X connect 84 0 85 0;
#X connect 84 0 160 1;
#X connect 85 0 86 0;
#X connect 86 0 148 1;
#X connect 87 0 88 0;
#X connect 90 0 125 0;
#X connect 92 0 93 1;
#X connect 93 0 91 0;
#X connect 93 0 91 1;
#X connect 94 0 162 0;
#X connect 95 0 96 0;
#X connect 95 0 162 1;
#X connect 96 0 97 0;
#X connect 97 0 149 1;
#X connect 98 0 143 0;
#X connect 98 0 29 0;
#X connect 99 0 39 0;
#X connect 99 0 144 0;
#X connect 100 0 145 0;
#X connect 100 0 46 0;
#X connect 101 0 146 0;
#X connect 101 0 53 0;
#X connect 102 0 147 0;
#X connect 102 0 60 0;
#X connect 103 0 148 0;
#X connect 103 0 83 0;
#X connect 104 0 149 0;
#X connect 104 0 94 0;
#X connect 105 0 83 1;
#X connect 106 0 94 1;
#X connect 107 0 109 0;
#X connect 108 0 109 1;
#X connect 109 0 128 0;
#X connect 110 0 112 0;
#X connect 111 0 112 1;
#X connect 112 0 129 0;
#X connect 113 0 115 0;
#X connect 114 0 115 1;
#X connect 115 0 130 0;
#X connect 116 0 118 0;
#X connect 117 0 118 1;
#X connect 118 0 131 0;
#X connect 119 0 121 0;
#X connect 120 0 121 1;
#X connect 121 0 132 0;
#X connect 122 0 124 0;
#X connect 123 0 124 1;
#X connect 124 0 133 0;
#X connect 125 0 127 0;
#X connect 126 0 127 1;
#X connect 127 0 134 0;
#X connect 128 0 2 0;
#X connect 129 0 4 0;
#X connect 130 0 6 0;
#X connect 131 0 8 0;
#X connect 132 0 17 0;
#X connect 133 0 76 0;
#X connect 134 0 87 0;
#X connect 135 0 108 0;
#X connect 135 0 126 0;
#X connect 135 0 123 0;
#X connect 135 0 120 0;
#X connect 135 0 117 0;
#X connect 135 0 114 0;
#X connect 135 0 111 0;
#X connect 136 0 108 0;
#X connect 136 0 126 0;
#X connect 136 0 123 0;
#X connect 136 0 120 0;
#X connect 136 0 117 0;
#X connect 136 0 114 0;
#X connect 136 0 111 0;
#X connect 137 0 84 0;
#X connect 138 0 95 0;
#X connect 139 0 81 0;
#X connect 140 0 103 0;
#X connect 141 0 104 0;
#X connect 142 0 92 0;
#X connect 143 0 150 0;
#X connect 144 0 151 0;
#X connect 145 0 154 0;
#X connect 146 0 155 0;
#X connect 147 0 158 0;
#X connect 148 0 159 0;
#X connect 149 0 161 0;
#X connect 150 0 27 0;
#X connect 151 0 38 0;
#X connect 152 0 151 1;
#X connect 153 0 154 1;
#X connect 154 0 45 0;
#X connect 155 0 52 0;
#X connect 156 0 155 1;
#X connect 157 0 158 1;
#X connect 158 0 59 0;
#X connect 159 0 82 0;
#X connect 160 0 159 1;
#X connect 161 0 93 0;
#X connect 162 0 161 1;
#X coords 0 -1 1 1 1107 132 2 100 100;
#X restore 34 25 pd select_samples;
#N canvas 175 91 1265 450 sample1 0;
#X obj 267 178 r one;
#X obj 321 176 r two;
#X obj 366 177 r three;
#X obj 423 173 r four;
#X obj 267 206 spigot;
#X obj 305 117 tgl 25 0 empty empty empty 0 -10 0 12 #fcfcfc #000000 #000000 0 1;
#X obj 321 205 spigot;
#X obj 359 117 tgl 25 0 empty empty empty 0 -10 0 12 #fcfcfc #000000 #000000 0 1;
#X obj 372 204 spigot;
#X obj 410 117 tgl 25 0 empty empty empty 0 -10 0 12 #fcfcfc #000000 #000000 0 1;
#X obj 423 203 spigot;
#X obj 461 117 tgl 25 0 empty empty empty 0 -10 0 12 #fcfcfc #000000 #000000 0 1;
#X obj 476 202 spigot;
#X obj 514 117 tgl 25 0 empty empty empty 0 -10 0 12 #fcfcfc #000000 #000000 0 1;
#X obj 528 203 spigot;
#X obj 566 117 tgl 25 0 empty empty empty 0 -10 0 12 #fcfcfc #000000 #000000 0 1;
#X obj 579 202 spigot;
#X obj 617 117 tgl 25 0 empty empty empty 0 -10 0 12 #fcfcfc #000000 #000000 0 1;
#X obj 629 201 spigot;
#X obj 667 117 tgl 25 0 empty empty empty 0 -10 0 12 #fcfcfc #000000 #000000 0 1;
#X obj 476 174 r five;
#X obj 528 174 r six;
#X obj 574 174 r seven;
#X obj 629 171 r eight;
#X obj 678 201 spigot;
#X obj 716 117 tgl 25 0 empty empty empty 0 -10 0 12 #fcfcfc #000000 #000000 0 1;
#X obj 728 200 spigot;
#X obj 766 117 tgl 25 0 empty empty empty 0 -10 0 12 #fcfcfc #000000 #000000 0 1;
#X obj 778 199 spigot;
#X obj 816 117 tgl 25 0 empty empty empty 0 -10 0 12 #fcfcfc #000000 #000000 0 1;
#X obj 828 198 spigot;
#X obj 866 117 tgl 25 0 empty empty empty 0 -10 0 12 #fcfcfc #000000 #000000 0 1;
#X obj 875 197 spigot;
#X obj 913 117 tgl 25 0 empty empty empty 0 -10 0 12 #fcfcfc #000000 #000000 0 1;
#X obj 923 198 spigot;
#X obj 961 117 tgl 25 0 empty empty empty 0 -10 0 12 #fcfcfc #000000 #000000 0 1;
#X obj 972 197 spigot;
#X obj 1010 117 tgl 25 0 empty empty empty 0 -10 0 12 #fcfcfc #000000 #000000 0 1;
#X obj 1022 196 spigot;
#X obj 1060 117 tgl 25 0 empty empty empty 0 -10 0 12 #fcfcfc #000000 #000000 0 1;
#X obj 678 173 r nine;
#X obj 728 171 r ten;
#X obj 778 171 r eleven;
#X obj 828 168 r twelve;
#X obj 875 169 r thirt;
#X obj 923 169 r fourt;
#X obj 972 169 r fift;
#X obj 1022 166 r sixt;
#X obj 1022 226 spigot;
#X obj 241 112 tgl 35 0 empty empty empty 0 -10 0 12 #ffffff #ff0400 #000000 0 1;
#X obj 241 56 loadbang;
#X obj 1022 250 s sample1;
#X obj 111 106 hsl 101 19 0 100 0 0 empty empty volume 30 10 0 12 #fcfcfc #000000 #000000 0 1;
#X obj 91 197 s vol1;
#X obj 91 164 / 100;
#X msg 108 75 50;
#X obj 136 132 hsl 76 19 1 100 0 0 empty empty reverb 18 10 0 12 #fcfcfc #000000 #000000 0 1;
#X obj 148 160 s \$0-rev1;
#X obj 108 132 tgl 19 0 empty empty empty 0 -10 0 12 #ffe3c6 #000000 #000000 0 1;
#X obj 147 189 s \$0-rev1on;
#X msg 132 75 1;
#X connect 0 0 4 0;
#X connect 1 0 6 0;
#X connect 2 0 8 0;
#X connect 3 0 10 0;
#X connect 4 0 48 0;
#X connect 5 0 4 1;
#X connect 6 0 48 0;
#X connect 7 0 6 1;
#X connect 8 0 48 0;
#X connect 9 0 8 1;
#X connect 10 0 48 0;
#X connect 11 0 10 1;
#X connect 12 0 48 0;
#X connect 13 0 12 1;
#X connect 14 0 48 0;
#X connect 15 0 14 1;
#X connect 16 0 48 0;
#X connect 17 0 16 1;
#X connect 18 0 48 0;
#X connect 19 0 18 1;
#X connect 20 0 12 0;
#X connect 21 0 14 0;
#X connect 22 0 16 0;
#X connect 23 0 18 0;
#X connect 24 0 48 0;
#X connect 25 0 24 1;
#X connect 26 0 48 0;
#X connect 27 0 26 1;
#X connect 28 0 48 0;
#X connect 29 0 28 1;
#X connect 30 0 48 0;
#X connect 31 0 30 1;
#X connect 32 0 48 0;
#X connect 33 0 32 1;
#X connect 34 0 48 0;
#X connect 35 0 34 1;
#X connect 36 0 48 0;
#X connect 37 0 36 1;
#X connect 38 0 48 0;
#X connect 39 0 38 1;
#X connect 40 0 24 0;
#X connect 41 0 26 0;
#X connect 42 0 28 0;
#X connect 43 0 30 0;
#X connect 44 0 32 0;
#X connect 45 0 34 0;
#X connect 46 0 36 0;
#X connect 47 0 38 0;
#X connect 48 0 51 0;
#X connect 49 0 48 1;
#X connect 50 0 49 0;
#X connect 50 0 55 0;
#X connect 50 0 60 0;
#X connect 52 0 54 0;
#X connect 54 0 53 0;
#X connect 55 0 52 0;
#X connect 56 0 57 0;
#X connect 58 0 59 0;
#X connect 60 0 56 0;
#X coords 0 -1 1 1 1007 57 2 100 100;
#X restore 135 269 pd sample1;
#N canvas 175 91 1265 450 sample1 0;
#X obj 267 178 r one;
#X obj 321 176 r two;
#X obj 366 177 r three;
#X obj 423 173 r four;
#X obj 267 206 spigot;
#X obj 305 117 tgl 25 0 empty empty empty 0 -10 0 12 #fcfcfc #000000 #000000 0 1;
#X obj 321 205 spigot;
#X obj 359 117 tgl 25 0 empty empty empty 0 -10 0 12 #fcfcfc #000000 #000000 0 1;
#X obj 372 204 spigot;
#X obj 410 117 tgl 25 0 empty empty empty 0 -10 0 12 #fcfcfc #000000 #000000 0 1;
#X obj 423 203 spigot;
#X obj 461 117 tgl 25 0 empty empty empty 0 -10 0 12 #fcfcfc #000000 #000000 0 1;
#X obj 476 202 spigot;
#X obj 514 117 tgl 25 0 empty empty empty 0 -10 0 12 #fcfcfc #000000 #000000 0 1;
#X obj 528 203 spigot;
#X obj 566 117 tgl 25 0 empty empty empty 0 -10 0 12 #fcfcfc #000000 #000000 0 1;
#X obj 579 202 spigot;
#X obj 617 117 tgl 25 0 empty empty empty 0 -10 0 12 #fcfcfc #000000 #000000 0 1;
#X obj 629 201 spigot;
#X obj 667 117 tgl 25 0 empty empty empty 0 -10 0 12 #fcfcfc #000000 #000000 0 1;
#X obj 476 174 r five;
#X obj 528 174 r six;
#X obj 574 174 r seven;
#X obj 629 171 r eight;
#X obj 678 201 spigot;
#X obj 716 117 tgl 25 0 empty empty empty 0 -10 0 12 #fcfcfc #000000 #000000 0 1;
#X obj 728 200 spigot;
#X obj 766 117 tgl 25 0 empty empty empty 0 -10 0 12 #fcfcfc #000000 #000000 0 1;
#X obj 778 199 spigot;
#X obj 816 117 tgl 25 0 empty empty empty 0 -10 0 12 #fcfcfc #000000 #000000 0 1;
#X obj 828 198 spigot;
#X obj 866 117 tgl 25 0 empty empty empty 0 -10 0 12 #fcfcfc #000000 #000000 0 1;
#X obj 875 197 spigot;
#X obj 913 117 tgl 25 0 empty empty empty 0 -10 0 12 #fcfcfc #000000 #000000 0 1;
#X obj 923 198 spigot;
#X obj 961 117 tgl 25 0 empty empty empty 0 -10 0 12 #fcfcfc #000000 #000000 0 1;
#X obj 972 197 spigot;
#X obj 1010 117 tgl 25 0 empty empty empty 0 -10 0 12 #fcfcfc #000000 #000000 0 1;
#X obj 1022 196 spigot;
#X obj 1060 117 tgl 25 0 empty empty empty 0 -10 0 12 #fcfcfc #000000 #000000 0 1;
#X obj 678 173 r nine;
#X obj 728 171 r ten;
#X obj 778 171 r eleven;
#X obj 828 168 r twelve;
#X obj 875 169 r thirt;
#X obj 923 169 r fourt;
#X obj 972 169 r fift;
#X obj 1022 166 r sixt;
#X obj 1022 226 spigot;
#X obj 241 112 tgl 35 0 empty empty empty 0 -10 0 12 #ffffff #ff0400 #000000 0 1;
#X obj 241 56 loadbang;
#X obj 111 106 hsl 101 19 0 100 0 0 empty empty volume 30 10 0 12 #fcfcfc #000000 #000000 0 1;
#X obj 91 164 / 100;
#X msg 108 75 50;
#X obj 136 132 hsl 76 19 1 100 0 0 empty empty reverb 18 10 0 12 #fcfcfc #000000 #000000 0 1;
#X obj 108 132 tgl 19 0 empty empty empty 0 -10 0 12 #ffe3c6 #000000 #000000 0 1;
#X msg 132 75 1;
#X obj 91 197 s vol2;
#X obj 148 160 s \$0-rev2;
#X obj 147 189 s \$0-rev2on;
#X obj 1022 250 s sample2;
#X connect 0 0 4 0;
#X connect 1 0 6 0;
#X connect 2 0 8 0;
#X connect 3 0 10 0;
#X connect 4 0 48 0;
#X connect 5 0 4 1;
#X connect 6 0 48 0;
#X connect 7 0 6 1;
#X connect 8 0 48 0;
#X connect 9 0 8 1;
#X connect 10 0 48 0;
#X connect 11 0 10 1;
#X connect 12 0 48 0;
#X connect 13 0 12 1;
#X connect 14 0 48 0;
#X connect 15 0 14 1;
#X connect 16 0 48 0;
#X connect 17 0 16 1;
#X connect 18 0 48 0;
#X connect 19 0 18 1;
#X connect 20 0 12 0;
#X connect 21 0 14 0;
#X connect 22 0 16 0;
#X connect 23 0 18 0;
#X connect 24 0 48 0;
#X connect 25 0 24 1;
#X connect 26 0 48 0;
#X connect 27 0 26 1;
#X connect 28 0 48 0;
#X connect 29 0 28 1;
#X connect 30 0 48 0;
#X connect 31 0 30 1;
#X connect 32 0 48 0;
#X connect 33 0 32 1;
#X connect 34 0 48 0;
#X connect 35 0 34 1;
#X connect 36 0 48 0;
#X connect 37 0 36 1;
#X connect 38 0 48 0;
#X connect 39 0 38 1;
#X connect 40 0 24 0;
#X connect 41 0 26 0;
#X connect 42 0 28 0;
#X connect 43 0 30 0;
#X connect 44 0 32 0;
#X connect 45 0 34 0;
#X connect 46 0 36 0;
#X connect 47 0 38 0;
#X connect 48 0 60 0;
#X connect 49 0 48 1;
#X connect 50 0 49 0;
#X connect 50 0 53 0;
#X connect 50 0 56 0;
#X connect 51 0 52 0;
#X connect 52 0 57 0;
#X connect 53 0 51 0;
#X connect 54 0 58 0;
#X connect 55 0 59 0;
#X connect 56 0 54 0;
#X coords 0 -1 1 1 1007 57 2 100 100;
#X restore 135 336 pd sample1;
#N canvas 820 224 1265 450 sample1 0;
#X obj 267 178 r one;
#X obj 321 176 r two;
#X obj 366 177 r three;
#X obj 423 173 r four;
#X obj 267 206 spigot;
#X obj 305 117 tgl 25 0 empty empty empty 0 -10 0 12 #fcfcfc #000000 #000000 0 1;
#X obj 321 205 spigot;
#X obj 359 117 tgl 25 0 empty empty empty 0 -10 0 12 #fcfcfc #000000 #000000 0 1;
#X obj 372 204 spigot;
#X obj 410 117 tgl 25 0 empty empty empty 0 -10 0 12 #fcfcfc #000000 #000000 0 1;
#X obj 423 203 spigot;
#X obj 461 117 tgl 25 0 empty empty empty 0 -10 0 12 #fcfcfc #000000 #000000 0 1;
#X obj 476 202 spigot;
#X obj 514 117 tgl 25 0 empty empty empty 0 -10 0 12 #fcfcfc #000000 #000000 0 1;
#X obj 528 203 spigot;
#X obj 566 117 tgl 25 0 empty empty empty 0 -10 0 12 #fcfcfc #000000 #000000 0 1;
#X obj 579 202 spigot;
#X obj 617 117 tgl 25 0 empty empty empty 0 -10 0 12 #fcfcfc #000000 #000000 0 1;
#X obj 629 201 spigot;
#X obj 667 117 tgl 25 0 empty empty empty 0 -10 0 12 #fcfcfc #000000 #000000 0 1;
#X obj 476 174 r five;
#X obj 528 174 r six;
#X obj 574 174 r seven;
#X obj 629 171 r eight;
#X obj 678 201 spigot;
#X obj 716 117 tgl 25 0 empty empty empty 0 -10 0 12 #fcfcfc #000000 #000000 0 1;
#X obj 728 200 spigot;
#X obj 766 117 tgl 25 0 empty empty empty 0 -10 0 12 #fcfcfc #000000 #000000 0 1;
#X obj 778 199 spigot;
#X obj 816 117 tgl 25 0 empty empty empty 0 -10 0 12 #fcfcfc #000000 #000000 0 1;
#X obj 828 198 spigot;
#X obj 866 117 tgl 25 0 empty empty empty 0 -10 0 12 #fcfcfc #000000 #000000 0 1;
#X obj 875 197 spigot;
#X obj 913 117 tgl 25 0 empty empty empty 0 -10 0 12 #fcfcfc #000000 #000000 0 1;
#X obj 923 198 spigot;
#X obj 961 117 tgl 25 0 empty empty empty 0 -10 0 12 #fcfcfc #000000 #000000 0 1;
#X obj 972 197 spigot;
#X obj 1010 117 tgl 25 0 empty empty empty 0 -10 0 12 #fcfcfc #000000 #000000 0 1;
#X obj 1022 196 spigot;
#X obj 1060 117 tgl 25 0 empty empty empty 0 -10 0 12 #fcfcfc #000000 #000000 0 1;
#X obj 678 173 r nine;
#X obj 728 171 r ten;
#X obj 778 171 r eleven;
#X obj 828 168 r twelve;
#X obj 875 169 r thirt;
#X obj 923 169 r fourt;
#X obj 972 169 r fift;
#X obj 1022 166 r sixt;
#X obj 1022 226 spigot;
#X obj 241 112 tgl 35 0 empty empty empty 0 -10 0 12 #ffffff #ff0400 #000000 0 1;
#X obj 241 56 loadbang;
#X obj 111 106 hsl 101 19 0 100 0 0 empty empty volume 30 10 0 12 #fcfcfc #000000 #000000 0 1;
#X obj 91 164 / 100;
#X msg 108 75 50;
#X obj 136 132 hsl 76 19 1 100 0 0 empty empty reverb 18 10 0 12 #fcfcfc #000000 #000000 0 1;
#X obj 108 132 tgl 19 0 empty empty empty 0 -10 0 12 #ffe3c6 #000000 #000000 0 1;
#X msg 132 75 1;
#X obj 91 197 s vol3;
#X obj 148 160 s \$0-rev3;
#X obj 147 189 s \$0-rev3on;
#X obj 1022 250 s sample3;
#X connect 0 0 4 0;
#X connect 1 0 6 0;
#X connect 2 0 8 0;
#X connect 3 0 10 0;
#X connect 4 0 48 0;
#X connect 5 0 4 1;
#X connect 6 0 48 0;
#X connect 7 0 6 1;
#X connect 8 0 48 0;
#X connect 9 0 8 1;
#X connect 10 0 48 0;
#X connect 11 0 10 1;
#X connect 12 0 48 0;
#X connect 13 0 12 1;
#X connect 14 0 48 0;
#X connect 15 0 14 1;
#X connect 16 0 48 0;
#X connect 17 0 16 1;
#X connect 18 0 48 0;
#X connect 19 0 18 1;
#X connect 20 0 12 0;
#X connect 21 0 14 0;
#X connect 22 0 16 0;
#X connect 23 0 18 0;
#X connect 24 0 48 0;
#X connect 25 0 24 1;
#X connect 26 0 48 0;
#X connect 27 0 26 1;
#X connect 28 0 48 0;
#X connect 29 0 28 1;
#X connect 30 0 48 0;
#X connect 31 0 30 1;
#X connect 32 0 48 0;
#X connect 33 0 32 1;
#X connect 34 0 48 0;
#X connect 35 0 34 1;
#X connect 36 0 48 0;
#X connect 37 0 36 1;
#X connect 38 0 48 0;
#X connect 39 0 38 1;
#X connect 40 0 24 0;
#X connect 41 0 26 0;
#X connect 42 0 28 0;
#X connect 43 0 30 0;
#X connect 44 0 32 0;
#X connect 45 0 34 0;
#X connect 46 0 36 0;
#X connect 47 0 38 0;
#X connect 48 0 60 0;
#X connect 49 0 48 1;
#X connect 50 0 49 0;
#X connect 50 0 53 0;
#X connect 50 0 56 0;
#X connect 51 0 52 0;
#X connect 52 0 57 0;
#X connect 53 0 51 0;
#X connect 54 0 58 0;
#X connect 55 0 59 0;
#X connect 56 0 54 0;
#X coords 0 -1 1 1 1007 57 2 100 100;
#X restore 135 403 pd sample1;
#N canvas 175 91 1265 450 sample1 0;
#X obj 267 178 r one;
#X obj 321 176 r two;
#X obj 366 177 r three;
#X obj 423 173 r four;
#X obj 267 206 spigot;
#X obj 305 117 tgl 25 0 empty empty empty 0 -10 0 12 #fcfcfc #000000 #000000 0 1;
#X obj 321 205 spigot;
#X obj 359 117 tgl 25 0 empty empty empty 0 -10 0 12 #fcfcfc #000000 #000000 0 1;
#X obj 372 204 spigot;
#X obj 410 117 tgl 25 0 empty empty empty 0 -10 0 12 #fcfcfc #000000 #000000 0 1;
#X obj 423 203 spigot;
#X obj 461 117 tgl 25 0 empty empty empty 0 -10 0 12 #fcfcfc #000000 #000000 0 1;
#X obj 476 202 spigot;
#X obj 514 117 tgl 25 0 empty empty empty 0 -10 0 12 #fcfcfc #000000 #000000 0 1;
#X obj 528 203 spigot;
#X obj 566 117 tgl 25 0 empty empty empty 0 -10 0 12 #fcfcfc #000000 #000000 0 1;
#X obj 579 202 spigot;
#X obj 617 117 tgl 25 0 empty empty empty 0 -10 0 12 #fcfcfc #000000 #000000 0 1;
#X obj 629 201 spigot;
#X obj 667 117 tgl 25 0 empty empty empty 0 -10 0 12 #fcfcfc #000000 #000000 0 1;
#X obj 476 174 r five;
#X obj 528 174 r six;
#X obj 574 174 r seven;
#X obj 629 171 r eight;
#X obj 678 201 spigot;
#X obj 716 117 tgl 25 0 empty empty empty 0 -10 0 12 #fcfcfc #000000 #000000 0 1;
#X obj 728 200 spigot;
#X obj 766 117 tgl 25 0 empty empty empty 0 -10 0 12 #fcfcfc #000000 #000000 0 1;
#X obj 778 199 spigot;
#X obj 816 117 tgl 25 0 empty empty empty 0 -10 0 12 #fcfcfc #000000 #000000 0 1;
#X obj 828 198 spigot;
#X obj 866 117 tgl 25 0 empty empty empty 0 -10 0 12 #fcfcfc #000000 #000000 0 1;
#X obj 875 197 spigot;
#X obj 913 117 tgl 25 0 empty empty empty 0 -10 0 12 #fcfcfc #000000 #000000 0 1;
#X obj 923 198 spigot;
#X obj 961 117 tgl 25 0 empty empty empty 0 -10 0 12 #fcfcfc #000000 #000000 0 1;
#X obj 972 197 spigot;
#X obj 1010 117 tgl 25 0 empty empty empty 0 -10 0 12 #fcfcfc #000000 #000000 0 1;
#X obj 1022 196 spigot;
#X obj 1060 117 tgl 25 0 empty empty empty 0 -10 0 12 #fcfcfc #000000 #000000 0 1;
#X obj 678 173 r nine;
#X obj 728 171 r ten;
#X obj 778 171 r eleven;
#X obj 828 168 r twelve;
#X obj 875 169 r thirt;
#X obj 923 169 r fourt;
#X obj 972 169 r fift;
#X obj 1022 166 r sixt;
#X obj 1022 226 spigot;
#X obj 241 112 tgl 35 0 empty empty empty 0 -10 0 12 #ffffff #ff0400 #000000 0 1;
#X obj 241 56 loadbang;
#X obj 111 106 hsl 101 19 0 100 0 0 empty empty volume 30 10 0 12 #fcfcfc #000000 #000000 0 1;
#X obj 91 164 / 100;
#X msg 108 75 50;
#X obj 136 132 hsl 76 19 1 100 0 0 empty empty reverb 18 10 0 12 #fcfcfc #000000 #000000 0 1;
#X obj 108 132 tgl 19 0 empty empty empty 0 -10 0 12 #ffe3c6 #000000 #000000 0 1;
#X msg 132 75 1;
#X obj 91 197 s vol4;
#X obj 148 160 s \$0-rev4;
#X obj 147 189 s \$0-rev4on;
#X obj 1022 250 s sample4;
#X connect 0 0 4 0;
#X connect 1 0 6 0;
#X connect 2 0 8 0;
#X connect 3 0 10 0;
#X connect 4 0 48 0;
#X connect 5 0 4 1;
#X connect 6 0 48 0;
#X connect 7 0 6 1;
#X connect 8 0 48 0;
#X connect 9 0 8 1;
#X connect 10 0 48 0;
#X connect 11 0 10 1;
#X connect 12 0 48 0;
#X connect 13 0 12 1;
#X connect 14 0 48 0;
#X connect 15 0 14 1;
#X connect 16 0 48 0;
#X connect 17 0 16 1;
#X connect 18 0 48 0;
#X connect 19 0 18 1;
#X connect 20 0 12 0;
#X connect 21 0 14 0;
#X connect 22 0 16 0;
#X connect 23 0 18 0;
#X connect 24 0 48 0;
#X connect 25 0 24 1;
#X connect 26 0 48 0;
#X connect 27 0 26 1;
#X connect 28 0 48 0;
#X connect 29 0 28 1;
#X connect 30 0 48 0;
#X connect 31 0 30 1;
#X connect 32 0 48 0;
#X connect 33 0 32 1;
#X connect 34 0 48 0;
#X connect 35 0 34 1;
#X connect 36 0 48 0;
#X connect 37 0 36 1;
#X connect 38 0 48 0;
#X connect 39 0 38 1;
#X connect 40 0 24 0;
#X connect 41 0 26 0;
#X connect 42 0 28 0;
#X connect 43 0 30 0;
#X connect 44 0 32 0;
#X connect 45 0 34 0;
#X connect 46 0 36 0;
#X connect 47 0 38 0;
#X connect 48 0 60 0;
#X connect 49 0 48 1;
#X connect 50 0 49 0;
#X connect 50 0 53 0;
#X connect 50 0 56 0;
#X connect 51 0 52 0;
#X connect 52 0 57 0;
#X connect 53 0 51 0;
#X connect 54 0 58 0;
#X connect 55 0 59 0;
#X connect 56 0 54 0;
#X coords 0 -1 1 1 1007 57 2 100 100;
#X restore 135 470 pd sample1;
#N canvas 175 91 1265 450 sample1 0;
#X obj 267 178 r one;
#X obj 321 176 r two;
#X obj 366 177 r three;
#X obj 423 173 r four;
#X obj 267 206 spigot;
#X obj 305 117 tgl 25 0 empty empty empty 0 -10 0 12 #fcfcfc #000000 #000000 0 1;
#X obj 321 205 spigot;
#X obj 359 117 tgl 25 0 empty empty empty 0 -10 0 12 #fcfcfc #000000 #000000 0 1;
#X obj 372 204 spigot;
#X obj 410 117 tgl 25 0 empty empty empty 0 -10 0 12 #fcfcfc #000000 #000000 0 1;
#X obj 423 203 spigot;
#X obj 461 117 tgl 25 0 empty empty empty 0 -10 0 12 #fcfcfc #000000 #000000 0 1;
#X obj 476 202 spigot;
#X obj 514 117 tgl 25 0 empty empty empty 0 -10 0 12 #fcfcfc #000000 #000000 0 1;
#X obj 528 203 spigot;
#X obj 566 117 tgl 25 0 empty empty empty 0 -10 0 12 #fcfcfc #000000 #000000 0 1;
#X obj 579 202 spigot;
#X obj 617 117 tgl 25 0 empty empty empty 0 -10 0 12 #fcfcfc #000000 #000000 0 1;
#X obj 629 201 spigot;
#X obj 667 117 tgl 25 0 empty empty empty 0 -10 0 12 #fcfcfc #000000 #000000 0 1;
#X obj 476 174 r five;
#X obj 528 174 r six;
#X obj 574 174 r seven;
#X obj 629 171 r eight;
#X obj 678 201 spigot;
#X obj 716 117 tgl 25 0 empty empty empty 0 -10 0 12 #fcfcfc #000000 #000000 0 1;
#X obj 728 200 spigot;
#X obj 766 117 tgl 25 0 empty empty empty 0 -10 0 12 #fcfcfc #000000 #000000 0 1;
#X obj 778 199 spigot;
#X obj 816 117 tgl 25 0 empty empty empty 0 -10 0 12 #fcfcfc #000000 #000000 0 1;
#X obj 828 198 spigot;
#X obj 866 117 tgl 25 0 empty empty empty 0 -10 0 12 #fcfcfc #000000 #000000 0 1;
#X obj 875 197 spigot;
#X obj 913 117 tgl 25 0 empty empty empty 0 -10 0 12 #fcfcfc #000000 #000000 0 1;
#X obj 923 198 spigot;
#X obj 961 117 tgl 25 0 empty empty empty 0 -10 0 12 #fcfcfc #000000 #000000 0 1;
#X obj 972 197 spigot;
#X obj 1010 117 tgl 25 0 empty empty empty 0 -10 0 12 #fcfcfc #000000 #000000 0 1;
#X obj 1022 196 spigot;
#X obj 1060 117 tgl 25 0 empty empty empty 0 -10 0 12 #fcfcfc #000000 #000000 0 1;
#X obj 678 173 r nine;
#X obj 728 171 r ten;
#X obj 778 171 r eleven;
#X obj 828 168 r twelve;
#X obj 875 169 r thirt;
#X obj 923 169 r fourt;
#X obj 972 169 r fift;
#X obj 1022 166 r sixt;
#X obj 1022 226 spigot;
#X obj 241 112 tgl 35 0 empty empty empty 0 -10 0 12 #ffffff #ff0400 #000000 0 1;
#X obj 241 56 loadbang;
#X obj 111 106 hsl 101 19 0 100 0 0 empty empty volume 30 10 0 12 #fcfcfc #000000 #000000 0 1;
#X obj 91 164 / 100;
#X msg 108 75 50;
#X obj 136 132 hsl 76 19 1 100 0 0 empty empty reverb 18 10 0 12 #fcfcfc #000000 #000000 0 1;
#X obj 108 132 tgl 19 0 empty empty empty 0 -10 0 12 #ffe3c6 #000000 #000000 0 1;
#X msg 132 75 1;
#X obj 91 197 s vol5;
#X obj 147 189 s \$0-rev5on;
#X obj 148 160 s \$0-rev5;
#X obj 1022 250 s sample5;
#X connect 0 0 4 0;
#X connect 1 0 6 0;
#X connect 2 0 8 0;
#X connect 3 0 10 0;
#X connect 4 0 48 0;
#X connect 5 0 4 1;
#X connect 6 0 48 0;
#X connect 7 0 6 1;
#X connect 8 0 48 0;
#X connect 9 0 8 1;
#X connect 10 0 48 0;
#X connect 11 0 10 1;
#X connect 12 0 48 0;
#X connect 13 0 12 1;
#X connect 14 0 48 0;
#X connect 15 0 14 1;
#X connect 16 0 48 0;
#X connect 17 0 16 1;
#X connect 18 0 48 0;
#X connect 19 0 18 1;
#X connect 20 0 12 0;
#X connect 21 0 14 0;
#X connect 22 0 16 0;
#X connect 23 0 18 0;
#X connect 24 0 48 0;
#X connect 25 0 24 1;
#X connect 26 0 48 0;
#X connect 27 0 26 1;
#X connect 28 0 48 0;
#X connect 29 0 28 1;
#X connect 30 0 48 0;
#X connect 31 0 30 1;
#X connect 32 0 48 0;
#X connect 33 0 32 1;
#X connect 34 0 48 0;
#X connect 35 0 34 1;
#X connect 36 0 48 0;
#X connect 37 0 36 1;
#X connect 38 0 48 0;
#X connect 39 0 38 1;
#X connect 40 0 24 0;
#X connect 41 0 26 0;
#X connect 42 0 28 0;
#X connect 43 0 30 0;
#X connect 44 0 32 0;
#X connect 45 0 34 0;
#X connect 46 0 36 0;
#X connect 47 0 38 0;
#X connect 48 0 60 0;
#X connect 49 0 48 1;
#X connect 50 0 49 0;
#X connect 50 0 53 0;
#X connect 50 0 56 0;
#X connect 51 0 52 0;
#X connect 52 0 57 0;
#X connect 53 0 51 0;
#X connect 54 0 59 0;
#X connect 55 0 58 0;
#X connect 56 0 54 0;
#X coords 0 -1 1 1 1007 57 2 100 100;
#X restore 135 536 pd sample1;
#N canvas 175 91 1265 450 sample1 0;
#X obj 267 178 r one;
#X obj 321 176 r two;
#X obj 366 177 r three;
#X obj 423 173 r four;
#X obj 267 206 spigot;
#X obj 305 117 tgl 25 0 empty empty empty 0 -10 0 12 #fcfcfc #000000 #000000 0 1;
#X obj 321 205 spigot;
#X obj 359 117 tgl 25 0 empty empty empty 0 -10 0 12 #fcfcfc #000000 #000000 0 1;
#X obj 372 204 spigot;
#X obj 410 117 tgl 25 0 empty empty empty 0 -10 0 12 #fcfcfc #000000 #000000 0 1;
#X obj 423 203 spigot;
#X obj 461 117 tgl 25 0 empty empty empty 0 -10 0 12 #fcfcfc #000000 #000000 0 1;
#X obj 476 202 spigot;
#X obj 514 117 tgl 25 0 empty empty empty 0 -10 0 12 #fcfcfc #000000 #000000 0 1;
#X obj 528 203 spigot;
#X obj 566 117 tgl 25 0 empty empty empty 0 -10 0 12 #fcfcfc #000000 #000000 0 1;
#X obj 579 202 spigot;
#X obj 617 117 tgl 25 0 empty empty empty 0 -10 0 12 #fcfcfc #000000 #000000 0 1;
#X obj 629 201 spigot;
#X obj 667 117 tgl 25 0 empty empty empty 0 -10 0 12 #fcfcfc #000000 #000000 0 1;
#X obj 476 174 r five;
#X obj 528 174 r six;
#X obj 574 174 r seven;
#X obj 629 171 r eight;
#X obj 678 201 spigot;
#X obj 716 117 tgl 25 0 empty empty empty 0 -10 0 12 #fcfcfc #000000 #000000 0 1;
#X obj 728 200 spigot;
#X obj 766 117 tgl 25 0 empty empty empty 0 -10 0 12 #fcfcfc #000000 #000000 0 1;
#X obj 778 199 spigot;
#X obj 816 117 tgl 25 0 empty empty empty 0 -10 0 12 #fcfcfc #000000 #000000 0 1;
#X obj 828 198 spigot;
#X obj 866 117 tgl 25 0 empty empty empty 0 -10 0 12 #fcfcfc #000000 #000000 0 1;
#X obj 875 197 spigot;
#X obj 913 117 tgl 25 0 empty empty empty 0 -10 0 12 #fcfcfc #000000 #000000 0 1;
#X obj 923 198 spigot;
#X obj 961 117 tgl 25 0 empty empty empty 0 -10 0 12 #fcfcfc #000000 #000000 0 1;
#X obj 972 197 spigot;
#X obj 1010 117 tgl 25 0 empty empty empty 0 -10 0 12 #fcfcfc #000000 #000000 0 1;
#X obj 1022 196 spigot;
#X obj 1060 117 tgl 25 0 empty empty empty 0 -10 0 12 #fcfcfc #000000 #000000 0 1;
#X obj 678 173 r nine;
#X obj 728 171 r ten;
#X obj 778 171 r eleven;
#X obj 828 168 r twelve;
#X obj 875 169 r thirt;
#X obj 923 169 r fourt;
#X obj 972 169 r fift;
#X obj 1022 166 r sixt;
#X obj 1022 226 spigot;
#X obj 241 112 tgl 35 0 empty empty empty 0 -10 0 12 #ffffff #ff0400 #000000 0 1;
#X obj 241 56 loadbang;
#X obj 111 106 hsl 101 19 0 100 0 0 empty empty volume 30 10 0 12 #fcfcfc #000000 #000000 0 1;
#X obj 91 164 / 100;
#X msg 108 75 50;
#X obj 136 132 hsl 76 19 1 100 0 0 empty empty reverb 18 10 0 12 #fcfcfc #000000 #000000 0 1;
#X obj 108 132 tgl 19 0 empty empty empty 0 -10 0 12 #ffe3c6 #000000 #000000 0 1;
#X msg 132 75 1;
#X obj 148 160 s \$0-rev6;
#X obj 91 197 s vol6;
#X obj 147 189 s \$0-rev6on;
#X obj 1022 250 s sample6;
#X connect 0 0 4 0;
#X connect 1 0 6 0;
#X connect 2 0 8 0;
#X connect 3 0 10 0;
#X connect 4 0 48 0;
#X connect 5 0 4 1;
#X connect 6 0 48 0;
#X connect 7 0 6 1;
#X connect 8 0 48 0;
#X connect 9 0 8 1;
#X connect 10 0 48 0;
#X connect 11 0 10 1;
#X connect 12 0 48 0;
#X connect 13 0 12 1;
#X connect 14 0 48 0;
#X connect 15 0 14 1;
#X connect 16 0 48 0;
#X connect 17 0 16 1;
#X connect 18 0 48 0;
#X connect 19 0 18 1;
#X connect 20 0 12 0;
#X connect 21 0 14 0;
#X connect 22 0 16 0;
#X connect 23 0 18 0;
#X connect 24 0 48 0;
#X connect 25 0 24 1;
#X connect 26 0 48 0;
#X connect 27 0 26 1;
#X connect 28 0 48 0;
#X connect 29 0 28 1;
#X connect 30 0 48 0;
#X connect 31 0 30 1;
#X connect 32 0 48 0;
#X connect 33 0 32 1;
#X connect 34 0 48 0;
#X connect 35 0 34 1;
#X connect 36 0 48 0;
#X connect 37 0 36 1;
#X connect 38 0 48 0;
#X connect 39 0 38 1;
#X connect 40 0 24 0;
#X connect 41 0 26 0;
#X connect 42 0 28 0;
#X connect 43 0 30 0;
#X connect 44 0 32 0;
#X connect 45 0 34 0;
#X connect 46 0 36 0;
#X connect 47 0 38 0;
#X connect 48 0 60 0;
#X connect 49 0 48 1;
#X connect 50 0 49 0;
#X connect 50 0 53 0;
#X connect 50 0 56 0;
#X connect 51 0 52 0;
#X connect 52 0 58 0;
#X connect 53 0 51 0;
#X connect 54 0 57 0;
#X connect 55 0 59 0;
#X connect 56 0 54 0;
#X coords 0 -1 1 1 1007 57 2 100 100;
#X restore 135 603 pd sample1;
#N canvas 175 91 1265 450 sample1 0;
#X obj 267 178 r one;
#X obj 321 176 r two;
#X obj 366 177 r three;
#X obj 423 173 r four;
#X obj 267 206 spigot;
#X obj 305 117 tgl 25 0 empty empty empty 0 -10 0 12 #fcfcfc #000000 #000000 0 1;
#X obj 321 205 spigot;
#X obj 359 117 tgl 25 0 empty empty empty 0 -10 0 12 #fcfcfc #000000 #000000 0 1;
#X obj 372 204 spigot;
#X obj 410 117 tgl 25 0 empty empty empty 0 -10 0 12 #fcfcfc #000000 #000000 0 1;
#X obj 423 203 spigot;
#X obj 461 117 tgl 25 0 empty empty empty 0 -10 0 12 #fcfcfc #000000 #000000 0 1;
#X obj 476 202 spigot;
#X obj 514 117 tgl 25 0 empty empty empty 0 -10 0 12 #fcfcfc #000000 #000000 0 1;
#X obj 528 203 spigot;
#X obj 566 117 tgl 25 0 empty empty empty 0 -10 0 12 #fcfcfc #000000 #000000 0 1;
#X obj 579 202 spigot;
#X obj 617 117 tgl 25 0 empty empty empty 0 -10 0 12 #fcfcfc #000000 #000000 0 1;
#X obj 629 201 spigot;
#X obj 667 117 tgl 25 0 empty empty empty 0 -10 0 12 #fcfcfc #000000 #000000 0 1;
#X obj 476 174 r five;
#X obj 528 174 r six;
#X obj 574 174 r seven;
#X obj 629 171 r eight;
#X obj 678 201 spigot;
#X obj 716 117 tgl 25 0 empty empty empty 0 -10 0 12 #fcfcfc #000000 #000000 0 1;
#X obj 728 200 spigot;
#X obj 766 117 tgl 25 0 empty empty empty 0 -10 0 12 #fcfcfc #000000 #000000 0 1;
#X obj 778 199 spigot;
#X obj 816 117 tgl 25 0 empty empty empty 0 -10 0 12 #fcfcfc #000000 #000000 0 1;
#X obj 828 198 spigot;
#X obj 866 117 tgl 25 0 empty empty empty 0 -10 0 12 #fcfcfc #000000 #000000 0 1;
#X obj 875 197 spigot;
#X obj 913 117 tgl 25 0 empty empty empty 0 -10 0 12 #fcfcfc #000000 #000000 0 1;
#X obj 923 198 spigot;
#X obj 961 117 tgl 25 0 empty empty empty 0 -10 0 12 #fcfcfc #000000 #000000 0 1;
#X obj 972 197 spigot;
#X obj 1010 117 tgl 25 0 empty empty empty 0 -10 0 12 #fcfcfc #000000 #000000 0 1;
#X obj 1022 196 spigot;
#X obj 1060 117 tgl 25 0 empty empty empty 0 -10 0 12 #fcfcfc #000000 #000000 0 1;
#X obj 678 173 r nine;
#X obj 728 171 r ten;
#X obj 778 171 r eleven;
#X obj 828 168 r twelve;
#X obj 875 169 r thirt;
#X obj 923 169 r fourt;
#X obj 972 169 r fift;
#X obj 1022 166 r sixt;
#X obj 1022 226 spigot;
#X obj 241 112 tgl 35 0 empty empty empty 0 -10 0 12 #ffffff #ff0400 #000000 0 1;
#X obj 241 56 loadbang;
#X obj 111 106 hsl 101 19 0 100 0 0 empty empty volume 30 10 0 12 #fcfcfc #000000 #000000 0 1;
#X obj 91 164 / 100;
#X msg 108 75 50;
#X obj 136 132 hsl 76 19 1 100 0 0 empty empty reverb 18 10 0 12 #fcfcfc #000000 #000000 0 1;
#X obj 108 132 tgl 19 0 empty empty empty 0 -10 0 12 #ffe3c6 #000000 #000000 0 1;
#X msg 132 75 1;
#X obj 91 197 s vol7;
#X obj 148 160 s \$0-rev7;
#X obj 147 189 s \$0-rev7on;
#X obj 1022 250 s sample7;
#X connect 0 0 4 0;
#X connect 1 0 6 0;
#X connect 2 0 8 0;
#X connect 3 0 10 0;
#X connect 4 0 48 0;
#X connect 5 0 4 1;
#X connect 6 0 48 0;
#X connect 7 0 6 1;
#X connect 8 0 48 0;
#X connect 9 0 8 1;
#X connect 10 0 48 0;
#X connect 11 0 10 1;
#X connect 12 0 48 0;
#X connect 13 0 12 1;
#X connect 14 0 48 0;
#X connect 15 0 14 1;
#X connect 16 0 48 0;
#X connect 17 0 16 1;
#X connect 18 0 48 0;
#X connect 19 0 18 1;
#X connect 20 0 12 0;
#X connect 21 0 14 0;
#X connect 22 0 16 0;
#X connect 23 0 18 0;
#X connect 24 0 48 0;
#X connect 25 0 24 1;
#X connect 26 0 48 0;
#X connect 27 0 26 1;
#X connect 28 0 48 0;
#X connect 29 0 28 1;
#X connect 30 0 48 0;
#X connect 31 0 30 1;
#X connect 32 0 48 0;
#X connect 33 0 32 1;
#X connect 34 0 48 0;
#X connect 35 0 34 1;
#X connect 36 0 48 0;
#X connect 37 0 36 1;
#X connect 38 0 48 0;
#X connect 39 0 38 1;
#X connect 40 0 24 0;
#X connect 41 0 26 0;
#X connect 42 0 28 0;
#X connect 43 0 30 0;
#X connect 44 0 32 0;
#X connect 45 0 34 0;
#X connect 46 0 36 0;
#X connect 47 0 38 0;
#X connect 48 0 60 0;
#X connect 49 0 48 1;
#X connect 50 0 49 0;
#X connect 50 0 53 0;
#X connect 50 0 56 0;
#X connect 51 0 52 0;
#X connect 52 0 57 0;
#X connect 53 0 51 0;
#X connect 54 0 58 0;
#X connect 55 0 59 0;
#X connect 56 0 54 0;
#X coords 0 -1 1 1 1007 57 2 100 100;
#X restore 135 670 pd sample1;
