#N canvas 0 25 1440 738 12;
#X obj 136 137 bng 19 250 50 0 empty empty empty 0 -10 0 12 #fcfcfc #000000 #000000;
#X obj 136 200 int 1;
#X obj 88 112 sel 0;
#X obj 88 136 bng 19 250 50 0 empty empty empty 0 -10 0 12 #fcfcfc #000000 #000000;
#X msg 88 160 -1;
#X floatatom 136 224 5 0 0 0 - - - 0;
#X obj 136 247 % 16;
#X floatatom 136 295 5 0 0 0 - - - 0;
#X obj 136 386 sel 1;
#X obj 208 386 sel 2;
#X obj 279 386 sel 3;
#X obj 343 386 sel 4;
#X obj 422 385 sel 5;
#X obj 497 385 sel 6;
#X obj 567 385 sel 7;
#X obj 640 385 sel 8;
#X obj 788 384 sel 10;
#X obj 857 384 sel 11;
#X obj 931 384 sel 12;
#X obj 1002 384 sel 13;
#X obj 1075 384 sel 14;
#X obj 1144 383 sel 15;
#X obj 1219 383 sel 16;
#X obj 716 384 sel 9;
#X obj 215 228 + 1;
#X obj 136 410 bng 19 250 50 0 empty empty empty 0 -10 0 12 #fcfcfc #000000 #000000;
#X obj 208 410 bng 19 250 50 0 empty empty empty 0 -10 0 12 #fcfcfc #000000 #000000;
#X obj 279 410 bng 19 250 50 0 empty empty empty 0 -10 0 12 #fcfcfc #000000 #000000;
#X obj 343 410 bng 19 250 50 0 empty empty empty 0 -10 0 12 #fcfcfc #000000 #000000;
#X obj 422 409 bng 19 250 50 0 empty empty empty 0 -10 0 12 #fcfcfc #000000 #000000;
#X obj 497 409 bng 19 250 50 0 empty empty empty 0 -10 0 12 #fcfcfc #000000 #000000;
#X obj 567 409 bng 19 250 50 0 empty empty empty 0 -10 0 12 #fcfcfc #000000 #000000;
#X obj 640 409 bng 19 250 50 0 empty empty empty 0 -10 0 12 #fcfcfc #000000 #000000;
#X obj 716 408 bng 19 250 50 0 empty empty empty 0 -10 0 12 #fcfcfc #000000 #000000;
#X obj 788 408 bng 19 250 50 0 empty empty empty 0 -10 0 12 #fcfcfc #000000 #000000;
#X obj 857 408 bng 19 250 50 0 empty empty empty 0 -10 0 12 #fcfcfc #000000 #000000;
#X obj 931 408 bng 19 250 50 0 empty empty empty 0 -10 0 12 #fcfcfc #000000 #000000;
#X obj 1002 408 bng 19 250 50 0 empty empty empty 0 -10 0 12 #fcfcfc #000000 #000000;
#X obj 1075 408 bng 19 250 50 0 empty empty empty 0 -10 0 12 #fcfcfc #000000 #000000;
#X obj 1144 407 bng 19 250 50 0 empty empty empty 0 -10 0 12 #fcfcfc #000000 #000000;
#X obj 1219 407 bng 19 250 50 0 empty empty empty 0 -10 0 12 #fcfcfc #000000 #000000;
#X obj 136 434 s one;
#X obj 208 434 s two;
#X obj 279 434 s three;
#X obj 343 434 s four;
#X obj 422 433 s five;
#X obj 497 433 s six;
#X obj 567 433 s seven;
#X obj 716 432 s nine;
#X obj 788 432 s ten;
#X obj 640 433 s eight;
#X obj 931 432 s twelve;
#X obj 857 432 s eleven;
#X obj 1002 432 s thirt;
#X obj 1075 432 s fourt;
#X obj 1144 431 s fift;
#X obj 1219 431 s sixt;
#X obj 134 488 r one;
#X obj 134 517 bng 19 250 50 0 empty empty empty 0 -10 0 12 #fcfcfc #000000 #000000;
#X obj 208 486 r two;
#X obj 279 486 r three;
#X obj 350 483 r four;
#X obj 134 548 spigot;
#X obj 173 514 tgl 25 0 empty empty empty 0 -10 0 12 #fcfcfc #000000 #000000 0 1;
#X obj 208 516 bng 19 250 50 0 empty empty empty 0 -10 0 12 #fcfcfc #000000 #000000;
#X obj 208 547 spigot;
#X obj 247 513 tgl 25 0 empty empty empty 0 -10 0 12 #fcfcfc #000000 #000000 0 1;
#X obj 279 515 bng 19 250 50 0 empty empty empty 0 -10 0 12 #fcfcfc #000000 #000000;
#X obj 279 546 spigot;
#X obj 318 512 tgl 25 0 empty empty empty 0 -10 0 12 #fcfcfc #000000 #000000 0 1;
#X obj 350 514 bng 19 250 50 0 empty empty empty 0 -10 0 12 #fcfcfc #000000 #000000;
#X obj 350 545 spigot;
#X obj 389 511 tgl 25 0 empty empty empty 0 -10 0 12 #fcfcfc #000000 #000000 0 1;
#X obj 423 513 bng 19 250 50 0 empty empty empty 0 -10 0 12 #fcfcfc #000000 #000000;
#X obj 423 544 spigot;
#X obj 462 510 tgl 25 0 empty empty empty 0 -10 0 12 #fcfcfc #000000 #000000 0 1;
#X obj 495 514 bng 19 250 50 0 empty empty empty 0 -10 0 12 #fcfcfc #000000 #000000;
#X obj 495 545 spigot;
#X obj 534 511 tgl 25 0 empty empty empty 0 -10 0 12 #fcfcfc #000000 #000000 0 1;
#X obj 566 513 bng 19 250 50 0 empty empty empty 0 -10 0 12 #fcfcfc #000000 #000000;
#X obj 566 544 spigot;
#X obj 605 510 tgl 25 0 empty empty empty 0 -10 0 12 #fcfcfc #000000 #000000 0 1;
#X obj 639 512 bng 19 250 50 0 empty empty empty 0 -10 0 12 #fcfcfc #000000 #000000;
#X obj 639 543 spigot;
#X obj 678 509 tgl 25 0 empty empty empty 0 -10 0 12 #fcfcfc #000000 #000000 0 1;
#X obj 423 484 r five;
#X obj 495 484 r six;
#X obj 566 484 r seven;
#X obj 639 481 r eight;
#X obj 136 271 + 1;
#X obj 714 512 bng 19 250 50 0 empty empty empty 0 -10 0 12 #fcfcfc #000000 #000000;
#X obj 714 543 spigot;
#X obj 753 509 tgl 25 0 empty empty empty 0 -10 0 12 #fcfcfc #000000 #000000 0 1;
#X obj 788 511 bng 19 250 50 0 empty empty empty 0 -10 0 12 #fcfcfc #000000 #000000;
#X obj 788 542 spigot;
#X obj 827 508 tgl 25 0 empty empty empty 0 -10 0 12 #fcfcfc #000000 #000000 0 1;
#X obj 859 510 bng 19 250 50 0 empty empty empty 0 -10 0 12 #fcfcfc #000000 #000000;
#X obj 859 541 spigot;
#X obj 898 507 tgl 25 0 empty empty empty 0 -10 0 12 #fcfcfc #000000 #000000 0 1;
#X obj 930 509 bng 19 250 50 0 empty empty empty 0 -10 0 12 #fcfcfc #000000 #000000;
#X obj 930 540 spigot;
#X obj 969 506 tgl 25 0 empty empty empty 0 -10 0 12 #fcfcfc #000000 #000000 0 1;
#X obj 1003 508 bng 19 250 50 0 empty empty empty 0 -10 0 12 #fcfcfc #000000 #000000;
#X obj 1003 539 spigot;
#X obj 1042 505 tgl 25 0 empty empty empty 0 -10 0 12 #fcfcfc #000000 #000000 0 1;
#X obj 1075 509 bng 19 250 50 0 empty empty empty 0 -10 0 12 #fcfcfc #000000 #000000;
#X obj 1075 540 spigot;
#X obj 1114 506 tgl 25 0 empty empty empty 0 -10 0 12 #fcfcfc #000000 #000000 0 1;
#X obj 1146 508 bng 19 250 50 0 empty empty empty 0 -10 0 12 #fcfcfc #000000 #000000;
#X obj 1146 539 spigot;
#X obj 1185 505 tgl 25 0 empty empty empty 0 -10 0 12 #fcfcfc #000000 #000000 0 1;
#X obj 1219 507 bng 19 250 50 0 empty empty empty 0 -10 0 12 #fcfcfc #000000 #000000;
#X obj 1219 538 spigot;
#X obj 1258 504 tgl 25 0 empty empty empty 0 -10 0 12 #fcfcfc #000000 #000000 0 1;
#X obj 714 483 r nine;
#X obj 788 481 r ten;
#X obj 859 481 r eleven;
#X obj 930 478 r twelve;
#X obj 1003 479 r thirt;
#X obj 1075 479 r fourt;
#X obj 1146 479 r fift;
#X obj 1219 476 r sixt;
#X obj 134 635 r one;
#X obj 134 664 bng 19 250 50 0 empty empty empty 0 -10 0 12 #fcfcfc #000000 #000000;
#X obj 208 633 r two;
#X obj 279 633 r three;
#X obj 350 630 r four;
#X obj 134 695 spigot;
#X obj 173 661 tgl 25 0 empty empty empty 0 -10 0 12 #fcfcfc #000000 #000000 0 1;
#X obj 208 663 bng 19 250 50 0 empty empty empty 0 -10 0 12 #fcfcfc #000000 #000000;
#X obj 208 694 spigot;
#X obj 247 660 tgl 25 0 empty empty empty 0 -10 0 12 #fcfcfc #000000 #000000 0 1;
#X obj 279 662 bng 19 250 50 0 empty empty empty 0 -10 0 12 #fcfcfc #000000 #000000;
#X obj 279 693 spigot;
#X obj 318 659 tgl 25 0 empty empty empty 0 -10 0 12 #fcfcfc #000000 #000000 0 1;
#X obj 350 661 bng 19 250 50 0 empty empty empty 0 -10 0 12 #fcfcfc #000000 #000000;
#X obj 350 692 spigot;
#X obj 389 658 tgl 25 0 empty empty empty 0 -10 0 12 #fcfcfc #000000 #000000 0 1;
#X obj 423 660 bng 19 250 50 0 empty empty empty 0 -10 0 12 #fcfcfc #000000 #000000;
#X obj 423 691 spigot;
#X obj 462 657 tgl 25 0 empty empty empty 0 -10 0 12 #fcfcfc #000000 #000000 0 1;
#X obj 495 661 bng 19 250 50 0 empty empty empty 0 -10 0 12 #fcfcfc #000000 #000000;
#X obj 495 692 spigot;
#X obj 534 658 tgl 25 0 empty empty empty 0 -10 0 12 #fcfcfc #000000 #000000 0 1;
#X obj 566 660 bng 19 250 50 0 empty empty empty 0 -10 0 12 #fcfcfc #000000 #000000;
#X obj 566 691 spigot;
#X obj 605 657 tgl 25 0 empty empty empty 0 -10 0 12 #fcfcfc #000000 #000000 0 1;
#X obj 639 659 bng 19 250 50 0 empty empty empty 0 -10 0 12 #fcfcfc #000000 #000000;
#X obj 639 690 spigot;
#X obj 678 656 tgl 25 0 empty empty empty 0 -10 0 12 #fcfcfc #000000 #000000 0 1;
#X obj 423 631 r five;
#X obj 495 631 r six;
#X obj 566 631 r seven;
#X obj 639 628 r eight;
#X obj 714 659 bng 19 250 50 0 empty empty empty 0 -10 0 12 #fcfcfc #000000 #000000;
#X obj 714 690 spigot;
#X obj 753 656 tgl 25 0 empty empty empty 0 -10 0 12 #fcfcfc #000000 #000000 0 1;
#X obj 788 658 bng 19 250 50 0 empty empty empty 0 -10 0 12 #fcfcfc #000000 #000000;
#X obj 788 689 spigot;
#X obj 827 655 tgl 25 0 empty empty empty 0 -10 0 12 #fcfcfc #000000 #000000 0 1;
#X obj 859 657 bng 19 250 50 0 empty empty empty 0 -10 0 12 #fcfcfc #000000 #000000;
#X obj 859 688 spigot;
#X obj 898 654 tgl 25 0 empty empty empty 0 -10 0 12 #fcfcfc #000000 #000000 0 1;
#X obj 930 656 bng 19 250 50 0 empty empty empty 0 -10 0 12 #fcfcfc #000000 #000000;
#X obj 930 687 spigot;
#X obj 969 653 tgl 25 0 empty empty empty 0 -10 0 12 #fcfcfc #000000 #000000 0 1;
#X obj 1003 655 bng 19 250 50 0 empty empty empty 0 -10 0 12 #fcfcfc #000000 #000000;
#X obj 1003 686 spigot;
#X obj 1042 652 tgl 25 0 empty empty empty 0 -10 0 12 #fcfcfc #000000 #000000 0 1;
#X obj 1075 656 bng 19 250 50 0 empty empty empty 0 -10 0 12 #fcfcfc #000000 #000000;
#X obj 1075 687 spigot;
#X obj 1114 653 tgl 25 0 empty empty empty 0 -10 0 12 #fcfcfc #000000 #000000 0 1;
#X obj 1146 655 bng 19 250 50 0 empty empty empty 0 -10 0 12 #fcfcfc #000000 #000000;
#X obj 1146 686 spigot;
#X obj 1185 652 tgl 25 0 empty empty empty 0 -10 0 12 #fcfcfc #000000 #000000 0 1;
#X obj 1219 654 bng 19 250 50 0 empty empty empty 0 -10 0 12 #fcfcfc #000000 #000000;
#X obj 1219 685 spigot;
#X obj 1258 651 tgl 25 0 empty empty empty 0 -10 0 12 #fcfcfc #000000 #000000 0 1;
#X obj 714 630 r nine;
#X obj 788 628 r ten;
#X obj 859 628 r eleven;
#X obj 930 625 r twelve;
#X obj 1003 626 r thirt;
#X obj 1075 626 r fourt;
#X obj 1146 626 r fift;
#X obj 1219 623 r sixt;
#X obj 135 781 r one;
#X obj 135 810 bng 19 250 50 0 empty empty empty 0 -10 0 12 #fcfcfc #000000 #000000;
#X obj 209 779 r two;
#X obj 280 779 r three;
#X obj 351 776 r four;
#X obj 135 841 spigot;
#X obj 174 807 tgl 25 0 empty empty empty 0 -10 0 12 #fcfcfc #000000 #000000 0 1;
#X obj 209 809 bng 19 250 50 0 empty empty empty 0 -10 0 12 #fcfcfc #000000 #000000;
#X obj 209 840 spigot;
#X obj 248 806 tgl 25 0 empty empty empty 0 -10 0 12 #fcfcfc #000000 #000000 0 1;
#X obj 280 808 bng 19 250 50 0 empty empty empty 0 -10 0 12 #fcfcfc #000000 #000000;
#X obj 280 839 spigot;
#X obj 319 805 tgl 25 0 empty empty empty 0 -10 0 12 #fcfcfc #000000 #000000 0 1;
#X obj 351 807 bng 19 250 50 0 empty empty empty 0 -10 0 12 #fcfcfc #000000 #000000;
#X obj 351 838 spigot;
#X obj 390 804 tgl 25 0 empty empty empty 0 -10 0 12 #fcfcfc #000000 #000000 0 1;
#X obj 424 806 bng 19 250 50 0 empty empty empty 0 -10 0 12 #fcfcfc #000000 #000000;
#X obj 424 837 spigot;
#X obj 463 803 tgl 25 0 empty empty empty 0 -10 0 12 #fcfcfc #000000 #000000 0 1;
#X obj 496 807 bng 19 250 50 0 empty empty empty 0 -10 0 12 #fcfcfc #000000 #000000;
#X obj 496 838 spigot;
#X obj 535 804 tgl 25 0 empty empty empty 0 -10 0 12 #fcfcfc #000000 #000000 0 1;
#X obj 567 806 bng 19 250 50 0 empty empty empty 0 -10 0 12 #fcfcfc #000000 #000000;
#X obj 567 837 spigot;
#X obj 606 803 tgl 25 0 empty empty empty 0 -10 0 12 #fcfcfc #000000 #000000 0 1;
#X obj 640 805 bng 19 250 50 0 empty empty empty 0 -10 0 12 #fcfcfc #000000 #000000;
#X obj 640 836 spigot;
#X obj 679 802 tgl 25 0 empty empty empty 0 -10 0 12 #fcfcfc #000000 #000000 0 1;
#X obj 424 777 r five;
#X obj 496 777 r six;
#X obj 567 777 r seven;
#X obj 640 774 r eight;
#X obj 715 805 bng 19 250 50 0 empty empty empty 0 -10 0 12 #fcfcfc #000000 #000000;
#X obj 715 836 spigot;
#X obj 754 802 tgl 25 0 empty empty empty 0 -10 0 12 #fcfcfc #000000 #000000 0 1;
#X obj 789 804 bng 19 250 50 0 empty empty empty 0 -10 0 12 #fcfcfc #000000 #000000;
#X obj 789 835 spigot;
#X obj 828 801 tgl 25 0 empty empty empty 0 -10 0 12 #fcfcfc #000000 #000000 0 1;
#X obj 860 803 bng 19 250 50 0 empty empty empty 0 -10 0 12 #fcfcfc #000000 #000000;
#X obj 860 834 spigot;
#X obj 899 800 tgl 25 0 empty empty empty 0 -10 0 12 #fcfcfc #000000 #000000 0 1;
#X obj 931 802 bng 19 250 50 0 empty empty empty 0 -10 0 12 #fcfcfc #000000 #000000;
#X obj 931 833 spigot;
#X obj 970 799 tgl 25 0 empty empty empty 0 -10 0 12 #fcfcfc #000000 #000000 0 1;
#X obj 1004 801 bng 19 250 50 0 empty empty empty 0 -10 0 12 #fcfcfc #000000 #000000;
#X obj 1004 832 spigot;
#X obj 1043 798 tgl 25 0 empty empty empty 0 -10 0 12 #fcfcfc #000000 #000000 0 1;
#X obj 1076 802 bng 19 250 50 0 empty empty empty 0 -10 0 12 #fcfcfc #000000 #000000;
#X obj 1076 833 spigot;
#X obj 1115 799 tgl 25 0 empty empty empty 0 -10 0 12 #fcfcfc #000000 #000000 0 1;
#X obj 1147 801 bng 19 250 50 0 empty empty empty 0 -10 0 12 #fcfcfc #000000 #000000;
#X obj 1147 832 spigot;
#X obj 1186 798 tgl 25 0 empty empty empty 0 -10 0 12 #fcfcfc #000000 #000000 0 1;
#X obj 1220 800 bng 19 250 50 0 empty empty empty 0 -10 0 12 #fcfcfc #000000 #000000;
#X obj 1220 831 spigot;
#X obj 1259 797 tgl 25 0 empty empty empty 0 -10 0 12 #fcfcfc #000000 #000000 0 1;
#X obj 715 776 r nine;
#X obj 789 774 r ten;
#X obj 860 774 r eleven;
#X obj 931 771 r twelve;
#X obj 1004 772 r thirt;
#X obj 1076 772 r fourt;
#X obj 1147 772 r fift;
#X obj 1220 769 r sixt;
#X obj 136 112 metro 1 120 permin, f 19;
#X obj 88 59 tgl 19 0 empty empty empty 17 7 0 10 #dfdfdf #000000 #000000 0 1;
#X msg 266 37 4;
#X msg 136 87 tempo \$1 permin;
#X floatatom 136 65 5 0 0 0 - - - 0;
#X floatatom 266 86 5 0 0 0 - - - 0;
#X obj 266 62 expr 1/$f1;
#X obj 266 15 loadbang;
#X obj 1219 568 spigot;
#X obj 1220 717 spigot;
#X obj 1323 496 tgl 35 0 empty empty empty 0 -10 0 12 #ffffff #ff0400 #000000 0 1;
#X obj 1220 869 spigot;
#X obj 1323 472 loadbang;
#X obj 1325 651 tgl 35 0 empty empty empty 0 -10 0 12 #ffffff #ff0400 #000000 0 1;
#X obj 1325 627 loadbang;
#X obj 1324 793 tgl 35 0 empty empty empty 0 -10 0 12 #ffffff #ff0400 #000000 0 1;
#X obj 1324 769 loadbang;
#X obj 412 80 hsl 162 19 1 250 0 0 empty empty empty -2 -10 0 12 #fcfcfc #000000 #000000 0 1;
#X obj 409 104 s bpm;
#X obj 137 41 r bpm;
#X obj 409 33 loadbang;
#X msg 409 57 120;
#N canvas 431 320 945 411 play_audio 0;
#X obj 35 20 inlet;
#X obj 34 196 *~ 0.5;
#X obj 34 220 dac~;
#X obj 35 44 openpanel;
#N canvas 266 291 450 278 (subpatch) 0;
#X array sample1 56088 float 2;
#X coords 0 1 56088 -1 127 70 1 0 0;
#X restore 34 268 graph;
#X obj 35 94 soundfiler;
#X floatatom 35 120 7 0 0 0 - - - 0;
#X obj 211 19 inlet;
#X obj 210 195 *~ 0.5;
#X obj 210 219 dac~;
#X obj 211 43 openpanel;
#X obj 211 93 soundfiler;
#X floatatom 211 119 7 0 0 0 - - - 0;
#X obj 395 19 inlet;
#X obj 394 195 *~ 0.5;
#X obj 394 219 dac~;
#X obj 395 43 openpanel;
#X obj 395 93 soundfiler;
#X floatatom 395 119 7 0 0 0 - - - 0;
#X obj 575 17 inlet;
#X obj 574 192 *~ 0.5;
#X obj 574 216 dac~;
#X obj 575 41 openpanel;
#X obj 575 91 soundfiler;
#X floatatom 575 117 7 0 0 0 - - - 0;
#X obj 34 143 r sample1;
#X msg 35 69 read -resize \$1 sample1;
#N canvas 266 291 450 278 (subpatch) 0;
#X array sample2 18162 float 2;
#X coords 0 1 18162 -1 127 70 1 0 0;
#X restore 210 267 graph;
#N canvas 266 291 450 278 (subpatch) 0;
#X array sample3 9680 float 2;
#X coords 0 1 9680 -1 127 70 1 0 0;
#X restore 393 266 graph;
#N canvas 266 291 450 278 (subpatch) 0;
#X array sample4 10944 float 2;
#X coords 0 1 10944 -1 127 70 1 0 0;
#X restore 574 262 graph;
#X msg 211 68 read -resize \$1 sample2;
#X msg 395 68 read -resize \$1 sample3;
#X msg 575 66 read -resize \$1 sample4;
#X obj 210 142 r sample2;
#X obj 394 142 r sample3;
#X obj 574 140 r sample4;
#X obj 34 170 tabplay~ sample1;
#X obj 210 169 tabplay~ sample2;
#X obj 394 169 tabplay~ sample3;
#X obj 574 166 tabplay~ sample4;
#X obj 756 17 inlet;
#X obj 756 41 openpanel;
#X obj 756 91 soundfiler;
#X floatatom 756 117 7 0 0 0 - - - 0;
#N canvas 266 291 450 278 (subpatch) 0;
#X array sample5 25152 float 2;
#X coords 0 1 25152 -1 127 70 1 0 0;
#X restore 755 262 graph;
#X msg 756 66 read -resize \$1 sample5;
#X obj 755 190 *~ 0.5;
#X obj 755 214 dac~;
#X obj 755 164 tabplay~ sample5;
#X obj 755 140 r sample5;
#X connect 0 0 3 0;
#X connect 1 0 2 0;
#X connect 1 0 2 1;
#X connect 3 0 26 0;
#X connect 5 0 6 0;
#X connect 7 0 10 0;
#X connect 8 0 9 0;
#X connect 8 0 9 1;
#X connect 10 0 30 0;
#X connect 11 0 12 0;
#X connect 13 0 16 0;
#X connect 14 0 15 0;
#X connect 14 0 15 1;
#X connect 16 0 31 0;
#X connect 17 0 18 0;
#X connect 19 0 22 0;
#X connect 20 0 21 0;
#X connect 20 0 21 1;
#X connect 22 0 32 0;
#X connect 23 0 24 0;
#X connect 25 0 36 0;
#X connect 26 0 5 0;
#X connect 30 0 11 0;
#X connect 31 0 17 0;
#X connect 32 0 23 0;
#X connect 33 0 37 0;
#X connect 34 0 38 0;
#X connect 35 0 39 0;
#X connect 36 0 1 0;
#X connect 37 0 8 0;
#X connect 38 0 14 0;
#X connect 39 0 20 0;
#X connect 40 0 41 0;
#X connect 41 0 45 0;
#X connect 42 0 43 0;
#X connect 45 0 42 0;
#X connect 46 0 47 0;
#X connect 46 0 47 1;
#X connect 48 0 46 0;
#X restore 409 189 pd play_audio;
#X f 17;
#X obj 205 167 s snap;
#X obj 136 935 r one;
#X obj 136 964 bng 19 250 50 0 empty empty empty 0 -10 0 12 #fcfcfc #000000 #000000;
#X obj 210 933 r two;
#X obj 281 933 r three;
#X obj 352 930 r four;
#X obj 136 995 spigot;
#X obj 175 961 tgl 25 0 empty empty empty 0 -10 0 12 #fcfcfc #000000 #000000 0 1;
#X obj 210 963 bng 19 250 50 0 empty empty empty 0 -10 0 12 #fcfcfc #000000 #000000;
#X obj 210 994 spigot;
#X obj 249 960 tgl 25 0 empty empty empty 0 -10 0 12 #fcfcfc #000000 #000000 0 1;
#X obj 281 962 bng 19 250 50 0 empty empty empty 0 -10 0 12 #fcfcfc #000000 #000000;
#X obj 281 993 spigot;
#X obj 320 959 tgl 25 0 empty empty empty 0 -10 0 12 #fcfcfc #000000 #000000 0 1;
#X obj 352 961 bng 19 250 50 0 empty empty empty 0 -10 0 12 #fcfcfc #000000 #000000;
#X obj 352 992 spigot;
#X obj 391 958 tgl 25 0 empty empty empty 0 -10 0 12 #fcfcfc #000000 #000000 0 1;
#X obj 425 960 bng 19 250 50 0 empty empty empty 0 -10 0 12 #fcfcfc #000000 #000000;
#X obj 425 991 spigot;
#X obj 464 957 tgl 25 0 empty empty empty 0 -10 0 12 #fcfcfc #000000 #000000 0 1;
#X obj 497 961 bng 19 250 50 0 empty empty empty 0 -10 0 12 #fcfcfc #000000 #000000;
#X obj 497 992 spigot;
#X obj 536 958 tgl 25 0 empty empty empty 0 -10 0 12 #fcfcfc #000000 #000000 0 1;
#X obj 568 960 bng 19 250 50 0 empty empty empty 0 -10 0 12 #fcfcfc #000000 #000000;
#X obj 568 991 spigot;
#X obj 607 957 tgl 25 0 empty empty empty 0 -10 0 12 #fcfcfc #000000 #000000 0 1;
#X obj 641 959 bng 19 250 50 0 empty empty empty 0 -10 0 12 #fcfcfc #000000 #000000;
#X obj 641 990 spigot;
#X obj 680 956 tgl 25 0 empty empty empty 0 -10 0 12 #fcfcfc #000000 #000000 0 1;
#X obj 425 931 r five;
#X obj 497 931 r six;
#X obj 568 931 r seven;
#X obj 641 928 r eight;
#X obj 716 959 bng 19 250 50 0 empty empty empty 0 -10 0 12 #fcfcfc #000000 #000000;
#X obj 716 990 spigot;
#X obj 755 956 tgl 25 0 empty empty empty 0 -10 0 12 #fcfcfc #000000 #000000 0 1;
#X obj 790 958 bng 19 250 50 0 empty empty empty 0 -10 0 12 #fcfcfc #000000 #000000;
#X obj 790 989 spigot;
#X obj 829 955 tgl 25 0 empty empty empty 0 -10 0 12 #fcfcfc #000000 #000000 0 1;
#X obj 861 957 bng 19 250 50 0 empty empty empty 0 -10 0 12 #fcfcfc #000000 #000000;
#X obj 861 988 spigot;
#X obj 900 954 tgl 25 0 empty empty empty 0 -10 0 12 #fcfcfc #000000 #000000 0 1;
#X obj 932 956 bng 19 250 50 0 empty empty empty 0 -10 0 12 #fcfcfc #000000 #000000;
#X obj 932 987 spigot;
#X obj 971 953 tgl 25 0 empty empty empty 0 -10 0 12 #fcfcfc #000000 #000000 0 1;
#X obj 1005 955 bng 19 250 50 0 empty empty empty 0 -10 0 12 #fcfcfc #000000 #000000;
#X obj 1005 986 spigot;
#X obj 1044 952 tgl 25 0 empty empty empty 0 -10 0 12 #fcfcfc #000000 #000000 0 1;
#X obj 1077 956 bng 19 250 50 0 empty empty empty 0 -10 0 12 #fcfcfc #000000 #000000;
#X obj 1077 987 spigot;
#X obj 1116 953 tgl 25 0 empty empty empty 0 -10 0 12 #fcfcfc #000000 #000000 0 1;
#X obj 1148 955 bng 19 250 50 0 empty empty empty 0 -10 0 12 #fcfcfc #000000 #000000;
#X obj 1148 986 spigot;
#X obj 1187 952 tgl 25 0 empty empty empty 0 -10 0 12 #fcfcfc #000000 #000000 0 1;
#X obj 1221 954 bng 19 250 50 0 empty empty empty 0 -10 0 12 #fcfcfc #000000 #000000;
#X obj 1221 985 spigot;
#X obj 1260 951 tgl 25 0 empty empty empty 0 -10 0 12 #fcfcfc #000000 #000000 0 1;
#X obj 716 930 r nine;
#X obj 790 928 r ten;
#X obj 861 928 r eleven;
#X obj 932 925 r twelve;
#X obj 1005 926 r thirt;
#X obj 1077 926 r fourt;
#X obj 1148 926 r fift;
#X obj 1221 923 r sixt;
#X obj 1221 1023 spigot;
#X obj 1325 947 tgl 35 0 empty empty empty 0 -10 0 12 #ffffff #ff0400 #000000 0 1;
#X obj 1325 923 loadbang;
#X obj 409 166 bng 19 250 50 0 empty empty empty 0 -10 0 12 #fcfcfc #000000 #000000;
#X text 405 146 select samples;
#X obj 438 166 bng 19 250 50 0 empty empty empty 0 -10 0 12 #fcfcfc #000000 #000000;
#X obj 467 166 bng 19 250 50 0 empty empty empty 0 -10 0 12 #fcfcfc #000000 #000000;
#X obj 496 166 bng 19 250 50 0 empty empty empty 0 -10 0 12 #fcfcfc #000000 #000000;
#X obj 1219 592 s sample1;
#X obj 1220 741 s sample2;
#X obj 1220 893 s sample3;
#X obj 1221 1047 s sample4;
#X obj 525 166 bng 19 250 50 0 empty empty empty 0 -10 0 12 #fcfcfc #000000 #000000;
#X obj 136 1095 r one;
#X obj 136 1124 bng 19 250 50 0 empty empty empty 0 -10 0 12 #fcfcfc #000000 #000000;
#X obj 210 1093 r two;
#X obj 281 1093 r three;
#X obj 352 1090 r four;
#X obj 136 1155 spigot;
#X obj 175 1121 tgl 25 0 empty empty empty 0 -10 0 12 #fcfcfc #000000 #000000 0 1;
#X obj 210 1123 bng 19 250 50 0 empty empty empty 0 -10 0 12 #fcfcfc #000000 #000000;
#X obj 210 1154 spigot;
#X obj 249 1120 tgl 25 0 empty empty empty 0 -10 0 12 #fcfcfc #000000 #000000 0 1;
#X obj 281 1122 bng 19 250 50 0 empty empty empty 0 -10 0 12 #fcfcfc #000000 #000000;
#X obj 281 1153 spigot;
#X obj 320 1119 tgl 25 0 empty empty empty 0 -10 0 12 #fcfcfc #000000 #000000 0 1;
#X obj 352 1121 bng 19 250 50 0 empty empty empty 0 -10 0 12 #fcfcfc #000000 #000000;
#X obj 352 1152 spigot;
#X obj 391 1118 tgl 25 0 empty empty empty 0 -10 0 12 #fcfcfc #000000 #000000 0 1;
#X obj 425 1120 bng 19 250 50 0 empty empty empty 0 -10 0 12 #fcfcfc #000000 #000000;
#X obj 425 1151 spigot;
#X obj 464 1117 tgl 25 0 empty empty empty 0 -10 0 12 #fcfcfc #000000 #000000 0 1;
#X obj 497 1121 bng 19 250 50 0 empty empty empty 0 -10 0 12 #fcfcfc #000000 #000000;
#X obj 497 1152 spigot;
#X obj 536 1118 tgl 25 0 empty empty empty 0 -10 0 12 #fcfcfc #000000 #000000 0 1;
#X obj 568 1120 bng 19 250 50 0 empty empty empty 0 -10 0 12 #fcfcfc #000000 #000000;
#X obj 568 1151 spigot;
#X obj 607 1117 tgl 25 0 empty empty empty 0 -10 0 12 #fcfcfc #000000 #000000 0 1;
#X obj 641 1119 bng 19 250 50 0 empty empty empty 0 -10 0 12 #fcfcfc #000000 #000000;
#X obj 641 1150 spigot;
#X obj 680 1116 tgl 25 0 empty empty empty 0 -10 0 12 #fcfcfc #000000 #000000 0 1;
#X obj 425 1091 r five;
#X obj 497 1091 r six;
#X obj 568 1091 r seven;
#X obj 641 1088 r eight;
#X obj 716 1119 bng 19 250 50 0 empty empty empty 0 -10 0 12 #fcfcfc #000000 #000000;
#X obj 716 1150 spigot;
#X obj 755 1116 tgl 25 0 empty empty empty 0 -10 0 12 #fcfcfc #000000 #000000 0 1;
#X obj 790 1118 bng 19 250 50 0 empty empty empty 0 -10 0 12 #fcfcfc #000000 #000000;
#X obj 790 1149 spigot;
#X obj 829 1115 tgl 25 0 empty empty empty 0 -10 0 12 #fcfcfc #000000 #000000 0 1;
#X obj 861 1117 bng 19 250 50 0 empty empty empty 0 -10 0 12 #fcfcfc #000000 #000000;
#X obj 861 1148 spigot;
#X obj 900 1114 tgl 25 0 empty empty empty 0 -10 0 12 #fcfcfc #000000 #000000 0 1;
#X obj 932 1116 bng 19 250 50 0 empty empty empty 0 -10 0 12 #fcfcfc #000000 #000000;
#X obj 932 1147 spigot;
#X obj 971 1113 tgl 25 0 empty empty empty 0 -10 0 12 #fcfcfc #000000 #000000 0 1;
#X obj 1005 1115 bng 19 250 50 0 empty empty empty 0 -10 0 12 #fcfcfc #000000 #000000;
#X obj 1005 1146 spigot;
#X obj 1044 1112 tgl 25 0 empty empty empty 0 -10 0 12 #fcfcfc #000000 #000000 0 1;
#X obj 1077 1116 bng 19 250 50 0 empty empty empty 0 -10 0 12 #fcfcfc #000000 #000000;
#X obj 1077 1147 spigot;
#X obj 1116 1113 tgl 25 0 empty empty empty 0 -10 0 12 #fcfcfc #000000 #000000 0 1;
#X obj 1148 1115 bng 19 250 50 0 empty empty empty 0 -10 0 12 #fcfcfc #000000 #000000;
#X obj 1148 1146 spigot;
#X obj 1187 1112 tgl 25 0 empty empty empty 0 -10 0 12 #fcfcfc #000000 #000000 0 1;
#X obj 1221 1114 bng 19 250 50 0 empty empty empty 0 -10 0 12 #fcfcfc #000000 #000000;
#X obj 1221 1145 spigot;
#X obj 1260 1111 tgl 25 0 empty empty empty 0 -10 0 12 #fcfcfc #000000 #000000 0 1;
#X obj 716 1090 r nine;
#X obj 790 1088 r ten;
#X obj 861 1088 r eleven;
#X obj 932 1085 r twelve;
#X obj 1005 1086 r thirt;
#X obj 1077 1086 r fourt;
#X obj 1148 1086 r fift;
#X obj 1221 1083 r sixt;
#X obj 1221 1183 spigot;
#X obj 1325 1107 tgl 35 0 empty empty empty 0 -10 0 12 #ffffff #ff0400 #000000 0 1;
#X obj 1325 1083 loadbang;
#X obj 1221 1207 s sample5;
#X connect 0 0 1 0;
#X connect 0 0 273 0;
#X connect 1 0 5 0;
#X connect 1 0 24 0;
#X connect 2 0 3 0;
#X connect 3 0 4 0;
#X connect 4 0 1 0;
#X connect 5 0 6 0;
#X connect 6 0 89 0;
#X connect 7 0 8 0;
#X connect 7 0 9 0;
#X connect 7 0 23 0;
#X connect 7 0 22 0;
#X connect 7 0 21 0;
#X connect 7 0 20 0;
#X connect 7 0 19 0;
#X connect 7 0 18 0;
#X connect 7 0 17 0;
#X connect 7 0 16 0;
#X connect 7 0 15 0;
#X connect 7 0 14 0;
#X connect 7 0 13 0;
#X connect 7 0 12 0;
#X connect 7 0 11 0;
#X connect 7 0 10 0;
#X connect 8 0 25 0;
#X connect 9 0 26 0;
#X connect 10 0 27 0;
#X connect 11 0 28 0;
#X connect 12 0 29 0;
#X connect 13 0 30 0;
#X connect 14 0 31 0;
#X connect 15 0 32 0;
#X connect 16 0 34 0;
#X connect 17 0 35 0;
#X connect 18 0 36 0;
#X connect 19 0 37 0;
#X connect 20 0 38 0;
#X connect 21 0 39 0;
#X connect 22 0 40 0;
#X connect 23 0 33 0;
#X connect 24 0 1 1;
#X connect 25 0 41 0;
#X connect 26 0 42 0;
#X connect 27 0 43 0;
#X connect 28 0 44 0;
#X connect 29 0 45 0;
#X connect 30 0 46 0;
#X connect 31 0 47 0;
#X connect 32 0 50 0;
#X connect 33 0 48 0;
#X connect 34 0 49 0;
#X connect 35 0 52 0;
#X connect 36 0 51 0;
#X connect 37 0 53 0;
#X connect 38 0 54 0;
#X connect 39 0 55 0;
#X connect 40 0 56 0;
#X connect 57 0 58 0;
#X connect 58 0 62 0;
#X connect 59 0 64 0;
#X connect 60 0 67 0;
#X connect 61 0 70 0;
#X connect 62 0 258 0;
#X connect 63 0 62 1;
#X connect 64 0 65 0;
#X connect 65 0 258 0;
#X connect 66 0 65 1;
#X connect 67 0 68 0;
#X connect 68 0 258 0;
#X connect 69 0 68 1;
#X connect 70 0 71 0;
#X connect 71 0 258 0;
#X connect 72 0 71 1;
#X connect 73 0 74 0;
#X connect 74 0 258 0;
#X connect 75 0 74 1;
#X connect 76 0 77 0;
#X connect 77 0 258 0;
#X connect 78 0 77 1;
#X connect 79 0 80 0;
#X connect 80 0 258 0;
#X connect 81 0 80 1;
#X connect 82 0 83 0;
#X connect 83 0 258 0;
#X connect 84 0 83 1;
#X connect 85 0 73 0;
#X connect 86 0 76 0;
#X connect 87 0 79 0;
#X connect 88 0 82 0;
#X connect 89 0 7 0;
#X connect 90 0 91 0;
#X connect 91 0 258 0;
#X connect 92 0 91 1;
#X connect 93 0 94 0;
#X connect 94 0 258 0;
#X connect 95 0 94 1;
#X connect 96 0 97 0;
#X connect 97 0 258 0;
#X connect 98 0 97 1;
#X connect 99 0 100 0;
#X connect 100 0 258 0;
#X connect 101 0 100 1;
#X connect 102 0 103 0;
#X connect 103 0 258 0;
#X connect 104 0 103 1;
#X connect 105 0 106 0;
#X connect 106 0 258 0;
#X connect 107 0 106 1;
#X connect 108 0 109 0;
#X connect 109 0 258 0;
#X connect 110 0 109 1;
#X connect 111 0 112 0;
#X connect 112 0 258 0;
#X connect 113 0 112 1;
#X connect 114 0 90 0;
#X connect 115 0 93 0;
#X connect 116 0 96 0;
#X connect 117 0 99 0;
#X connect 118 0 102 0;
#X connect 119 0 105 0;
#X connect 120 0 108 0;
#X connect 121 0 111 0;
#X connect 122 0 123 0;
#X connect 123 0 127 0;
#X connect 124 0 129 0;
#X connect 125 0 132 0;
#X connect 126 0 135 0;
#X connect 127 0 259 0;
#X connect 128 0 127 1;
#X connect 129 0 130 0;
#X connect 130 0 259 0;
#X connect 131 0 130 1;
#X connect 132 0 133 0;
#X connect 133 0 259 0;
#X connect 134 0 133 1;
#X connect 135 0 136 0;
#X connect 136 0 259 0;
#X connect 137 0 136 1;
#X connect 138 0 139 0;
#X connect 139 0 259 0;
#X connect 140 0 139 1;
#X connect 141 0 142 0;
#X connect 142 0 259 0;
#X connect 143 0 142 1;
#X connect 144 0 145 0;
#X connect 145 0 259 0;
#X connect 146 0 145 1;
#X connect 147 0 148 0;
#X connect 148 0 259 0;
#X connect 149 0 148 1;
#X connect 150 0 138 0;
#X connect 151 0 141 0;
#X connect 152 0 144 0;
#X connect 153 0 147 0;
#X connect 154 0 155 0;
#X connect 155 0 259 0;
#X connect 156 0 155 1;
#X connect 157 0 158 0;
#X connect 158 0 259 0;
#X connect 159 0 158 1;
#X connect 160 0 161 0;
#X connect 161 0 259 0;
#X connect 162 0 161 1;
#X connect 163 0 164 0;
#X connect 164 0 259 0;
#X connect 165 0 164 1;
#X connect 166 0 167 0;
#X connect 167 0 259 0;
#X connect 168 0 167 1;
#X connect 169 0 170 0;
#X connect 170 0 259 0;
#X connect 171 0 170 1;
#X connect 172 0 173 0;
#X connect 173 0 259 0;
#X connect 174 0 173 1;
#X connect 175 0 176 0;
#X connect 176 0 259 0;
#X connect 177 0 176 1;
#X connect 178 0 154 0;
#X connect 179 0 157 0;
#X connect 180 0 160 0;
#X connect 181 0 163 0;
#X connect 182 0 166 0;
#X connect 183 0 169 0;
#X connect 184 0 172 0;
#X connect 185 0 175 0;
#X connect 186 0 187 0;
#X connect 187 0 191 0;
#X connect 188 0 193 0;
#X connect 189 0 196 0;
#X connect 190 0 199 0;
#X connect 191 0 261 0;
#X connect 192 0 191 1;
#X connect 193 0 194 0;
#X connect 194 0 261 0;
#X connect 195 0 194 1;
#X connect 196 0 197 0;
#X connect 197 0 261 0;
#X connect 198 0 197 1;
#X connect 199 0 200 0;
#X connect 200 0 261 0;
#X connect 201 0 200 1;
#X connect 202 0 203 0;
#X connect 203 0 261 0;
#X connect 204 0 203 1;
#X connect 205 0 206 0;
#X connect 206 0 261 0;
#X connect 207 0 206 1;
#X connect 208 0 209 0;
#X connect 209 0 261 0;
#X connect 210 0 209 1;
#X connect 211 0 212 0;
#X connect 212 0 261 0;
#X connect 213 0 212 1;
#X connect 214 0 202 0;
#X connect 215 0 205 0;
#X connect 216 0 208 0;
#X connect 217 0 211 0;
#X connect 218 0 219 0;
#X connect 219 0 261 0;
#X connect 220 0 219 1;
#X connect 221 0 222 0;
#X connect 222 0 261 0;
#X connect 223 0 222 1;
#X connect 224 0 225 0;
#X connect 225 0 261 0;
#X connect 226 0 225 1;
#X connect 227 0 228 0;
#X connect 228 0 261 0;
#X connect 229 0 228 1;
#X connect 230 0 231 0;
#X connect 231 0 261 0;
#X connect 232 0 231 1;
#X connect 233 0 234 0;
#X connect 234 0 261 0;
#X connect 235 0 234 1;
#X connect 236 0 237 0;
#X connect 237 0 261 0;
#X connect 238 0 237 1;
#X connect 239 0 240 0;
#X connect 240 0 261 0;
#X connect 241 0 240 1;
#X connect 242 0 218 0;
#X connect 243 0 221 0;
#X connect 244 0 224 0;
#X connect 245 0 227 0;
#X connect 246 0 230 0;
#X connect 247 0 233 0;
#X connect 248 0 236 0;
#X connect 249 0 239 0;
#X connect 250 0 0 0;
#X connect 251 0 250 0;
#X connect 251 0 2 0;
#X connect 252 0 256 0;
#X connect 253 0 250 0;
#X connect 254 0 253 0;
#X connect 255 0 250 1;
#X connect 256 0 255 0;
#X connect 257 0 252 0;
#X connect 257 0 3 0;
#X connect 258 0 346 0;
#X connect 259 0 347 0;
#X connect 260 0 258 1;
#X connect 261 0 348 0;
#X connect 262 0 260 0;
#X connect 263 0 259 1;
#X connect 264 0 263 0;
#X connect 265 0 261 1;
#X connect 266 0 265 0;
#X connect 267 0 268 0;
#X connect 269 0 254 0;
#X connect 270 0 271 0;
#X connect 271 0 267 0;
#X connect 274 0 275 0;
#X connect 275 0 279 0;
#X connect 276 0 281 0;
#X connect 277 0 284 0;
#X connect 278 0 287 0;
#X connect 279 0 338 0;
#X connect 280 0 279 1;
#X connect 281 0 282 0;
#X connect 282 0 338 0;
#X connect 283 0 282 1;
#X connect 284 0 285 0;
#X connect 285 0 338 0;
#X connect 286 0 285 1;
#X connect 287 0 288 0;
#X connect 288 0 338 0;
#X connect 289 0 288 1;
#X connect 290 0 291 0;
#X connect 291 0 338 0;
#X connect 292 0 291 1;
#X connect 293 0 294 0;
#X connect 294 0 338 0;
#X connect 295 0 294 1;
#X connect 296 0 297 0;
#X connect 297 0 338 0;
#X connect 298 0 297 1;
#X connect 299 0 300 0;
#X connect 300 0 338 0;
#X connect 301 0 300 1;
#X connect 302 0 290 0;
#X connect 303 0 293 0;
#X connect 304 0 296 0;
#X connect 305 0 299 0;
#X connect 306 0 307 0;
#X connect 307 0 338 0;
#X connect 308 0 307 1;
#X connect 309 0 310 0;
#X connect 310 0 338 0;
#X connect 311 0 310 1;
#X connect 312 0 313 0;
#X connect 313 0 338 0;
#X connect 314 0 313 1;
#X connect 315 0 316 0;
#X connect 316 0 338 0;
#X connect 317 0 316 1;
#X connect 318 0 319 0;
#X connect 319 0 338 0;
#X connect 320 0 319 1;
#X connect 321 0 322 0;
#X connect 322 0 338 0;
#X connect 323 0 322 1;
#X connect 324 0 325 0;
#X connect 325 0 338 0;
#X connect 326 0 325 1;
#X connect 327 0 328 0;
#X connect 328 0 338 0;
#X connect 329 0 328 1;
#X connect 330 0 306 0;
#X connect 331 0 309 0;
#X connect 332 0 312 0;
#X connect 333 0 315 0;
#X connect 334 0 318 0;
#X connect 335 0 321 0;
#X connect 336 0 324 0;
#X connect 337 0 327 0;
#X connect 338 0 349 0;
#X connect 339 0 338 1;
#X connect 340 0 339 0;
#X connect 341 0 272 0;
#X connect 343 0 272 1;
#X connect 344 0 272 2;
#X connect 345 0 272 3;
#X connect 350 0 272 4;
#X connect 351 0 352 0;
#X connect 352 0 356 0;
#X connect 353 0 358 0;
#X connect 354 0 361 0;
#X connect 355 0 364 0;
#X connect 356 0 415 0;
#X connect 357 0 356 1;
#X connect 358 0 359 0;
#X connect 359 0 415 0;
#X connect 360 0 359 1;
#X connect 361 0 362 0;
#X connect 362 0 415 0;
#X connect 363 0 362 1;
#X connect 364 0 365 0;
#X connect 365 0 415 0;
#X connect 366 0 365 1;
#X connect 367 0 368 0;
#X connect 368 0 415 0;
#X connect 369 0 368 1;
#X connect 370 0 371 0;
#X connect 371 0 415 0;
#X connect 372 0 371 1;
#X connect 373 0 374 0;
#X connect 374 0 415 0;
#X connect 375 0 374 1;
#X connect 376 0 377 0;
#X connect 377 0 415 0;
#X connect 378 0 377 1;
#X connect 379 0 367 0;
#X connect 380 0 370 0;
#X connect 381 0 373 0;
#X connect 382 0 376 0;
#X connect 383 0 384 0;
#X connect 384 0 415 0;
#X connect 385 0 384 1;
#X connect 386 0 387 0;
#X connect 387 0 415 0;
#X connect 388 0 387 1;
#X connect 389 0 390 0;
#X connect 390 0 415 0;
#X connect 391 0 390 1;
#X connect 392 0 393 0;
#X connect 393 0 415 0;
#X connect 394 0 393 1;
#X connect 395 0 396 0;
#X connect 396 0 415 0;
#X connect 397 0 396 1;
#X connect 398 0 399 0;
#X connect 399 0 415 0;
#X connect 400 0 399 1;
#X connect 401 0 402 0;
#X connect 402 0 415 0;
#X connect 403 0 402 1;
#X connect 404 0 405 0;
#X connect 405 0 415 0;
#X connect 406 0 405 1;
#X connect 407 0 383 0;
#X connect 408 0 386 0;
#X connect 409 0 389 0;
#X connect 410 0 392 0;
#X connect 411 0 395 0;
#X connect 412 0 398 0;
#X connect 413 0 401 0;
#X connect 414 0 404 0;
#X connect 415 0 418 0;
#X connect 416 0 415 1;
#X connect 417 0 416 0;
