#N canvas 97 165 434 300 12;
#X obj 192 84 *~ 12;
#X obj 192 132 mtof~;
#X obj 192 156 osc~;
#X obj 228 248 dac~;
#X obj 192 60 phasor~;
#X floatatom 192 36 5 0 0 0 - - - 0;
#X obj 268 82 *~ 12;
#X obj 268 130 mtof~;
#X obj 268 154 osc~;
#X obj 268 58 phasor~;
#X floatatom 268 35 5 0 0 0 - - - 0;
#X obj 268 179 *~ 0.2;
#X obj 192 180 *~ 0.2;
#X obj 192 108 +~ 48;
#X obj 268 106 +~ 48;
#X connect 0 0 13 0;
#X connect 1 0 2 0;
#X connect 2 0 12 0;
#X connect 4 0 0 0;
#X connect 5 0 4 0;
#X connect 6 0 14 0;
#X connect 7 0 8 0;
#X connect 8 0 11 0;
#X connect 9 0 6 0;
#X connect 10 0 9 0;
#X connect 11 0 3 1;
#X connect 12 0 3 0;
#X connect 13 0 1 0;
#X connect 14 0 7 0;
