#N canvas 65 99 1029 654 12;
#X floatatom 90 52 10 0 0 0 - - - 10;
#X obj 90 578 dac~;
#X floatatom 173 129 8 0 0 0 - - - 10;
#X floatatom 271 516 10 0 0 0 - - - 12;
#X obj 90 237 phasor~;
#X obj 173 237 phasor~;
#X obj 248 237 phasor~;
#X obj 325 237 phasor~;
#X obj 398 237 phasor~;
#X obj 173 102 * 1.17;
#X obj 248 102 * 1.35;
#X obj 609 442 hsl 162 19 0 1000 0 0 empty empty empty -2 -10 0 12 #fcfcfc #000000 #000000 0 1;
#X obj 609 375 hsl 162 19 10 1000 1 0 empty empty empty -2 -10 0 12 #fcfcfc #000000 #000000 0 1;
#X obj 609 498 hsl 162 19 100 10000 1 0 empty empty empty -2 -10 0 12 #fcfcfc #000000 #000000 0 1;
#X obj 609 469 s hz;
#X obj 90 19 r hz;
#X obj 609 409 s gap;
#X obj 609 525 s lows;
#X obj 271 488 r lows;
#X obj 173 211 + 0;
#X obj 192 150 r gap;
#X obj 248 210 + 0;
#X obj 267 149 r gap;
#X obj 325 211 + 0;
#X obj 344 150 r gap;
#X obj 398 211 + 0;
#X obj 417 150 r gap;
#X obj 471 211 + 0;
#X obj 490 150 r gap;
#X obj 549 211 + 0;
#X obj 568 150 r gap;
#X floatatom 248 129 8 0 0 0 - - - 10;
#X floatatom 325 129 8 0 0 0 - - - 10;
#X floatatom 398 129 8 0 0 0 - - - 10;
#X floatatom 471 129 8 0 0 0 - - - 10;
#X floatatom 549 128 8 0 0 0 - - - 10;
#X obj 624 211 + 0;
#X obj 643 150 r gap;
#X floatatom 624 128 8 0 0 0 - - - 10;
#X obj 705 212 + 0;
#X obj 724 151 r gap;
#X floatatom 705 129 8 0 0 0 - - - 10;
#X obj 804 151 r gap;
#X floatatom 785 129 8 0 0 0 - - - 10;
#X obj 325 102 * 1.52;
#X obj 398 102 * 1.7;
#X obj 471 102 * 1.87;
#X obj 549 102 * 2.05;
#X obj 624 101 * 2.22;
#X obj 705 102 * 2.4;
#X obj 785 102 * 2.57;
#X obj 192 179 * 1.11;
#X obj 267 178 * 1.22;
#X obj 344 179 * 1.33;
#X obj 417 179 * 1.44;
#X obj 490 179 * 1.55;
#X obj 568 179 * 1.66;
#X obj 643 179 * 1.77;
#X obj 724 180 * 1.88;
#X obj 804 180 * 1.99;
#X obj 471 237 phasor~;
#X obj 549 237 phasor~;
#X obj 624 237 phasor~;
#X obj 705 237 phasor~;
#X obj 785 237 phasor~;
#X obj 609 553 hsl 162 19 0.1 10 1 0 empty empty empty -2 -10 0 12 #fcfcfc #000000 #000000 0 1;
#X obj 90 266 *~ 0.2;
#X obj 173 261 *~ 0.2;
#X obj 248 261 *~ 0.2;
#X obj 325 261 *~ 0.2;
#X obj 398 261 *~ 0.2;
#X obj 471 261 *~ 0.2;
#X obj 549 261 *~ 0.2;
#X obj 624 261 *~ 0.2;
#X obj 705 261 *~ 0.2;
#X obj 785 261 *~ 0.2;
#X obj 90 545 *~ 0.2;
#X obj 553 429 bng 25 250 50 0 empty empty empty 17 7 0 10 #191919 #ffffff #ffffff;
#X obj 90 449 vcf~;
#X obj 609 580 s resonance;
#X floatatom 271 462 10 0 0 0 - - - 12;
#X obj 271 434 r resonance;
#X obj 785 212 + 0;
#X connect 0 0 4 0;
#X connect 0 0 9 0;
#X connect 0 0 10 0;
#X connect 0 0 44 0;
#X connect 0 0 45 0;
#X connect 0 0 46 0;
#X connect 0 0 47 0;
#X connect 0 0 48 0;
#X connect 0 0 49 0;
#X connect 0 0 50 0;
#X connect 2 0 19 0;
#X connect 3 0 78 1;
#X connect 4 0 66 0;
#X connect 5 0 67 0;
#X connect 6 0 68 0;
#X connect 7 0 69 0;
#X connect 8 0 70 0;
#X connect 9 0 2 0;
#X connect 10 0 31 0;
#X connect 11 0 14 0;
#X connect 12 0 16 0;
#X connect 12 0 77 0;
#X connect 13 0 17 0;
#X connect 15 0 0 0;
#X connect 18 0 3 0;
#X connect 19 0 5 0;
#X connect 20 0 51 0;
#X connect 21 0 6 0;
#X connect 22 0 52 0;
#X connect 23 0 7 0;
#X connect 24 0 53 0;
#X connect 25 0 8 0;
#X connect 26 0 54 0;
#X connect 27 0 60 0;
#X connect 28 0 55 0;
#X connect 29 0 61 0;
#X connect 30 0 56 0;
#X connect 31 0 21 0;
#X connect 32 0 23 0;
#X connect 33 0 25 0;
#X connect 34 0 27 0;
#X connect 35 0 29 0;
#X connect 36 0 62 0;
#X connect 37 0 57 0;
#X connect 38 0 36 0;
#X connect 39 0 63 0;
#X connect 40 0 58 0;
#X connect 41 0 39 0;
#X connect 42 0 59 0;
#X connect 43 0 82 0;
#X connect 44 0 32 0;
#X connect 45 0 33 0;
#X connect 46 0 34 0;
#X connect 47 0 35 0;
#X connect 48 0 38 0;
#X connect 49 0 41 0;
#X connect 50 0 43 0;
#X connect 51 0 19 1;
#X connect 52 0 21 1;
#X connect 53 0 23 1;
#X connect 54 0 25 1;
#X connect 55 0 27 1;
#X connect 56 0 29 1;
#X connect 57 0 36 1;
#X connect 58 0 39 1;
#X connect 59 0 82 1;
#X connect 60 0 71 0;
#X connect 61 0 72 0;
#X connect 62 0 73 0;
#X connect 63 0 74 0;
#X connect 64 0 75 0;
#X connect 65 0 79 0;
#X connect 66 0 78 0;
#X connect 67 0 78 0;
#X connect 68 0 78 0;
#X connect 69 0 78 0;
#X connect 70 0 78 0;
#X connect 71 0 78 0;
#X connect 72 0 78 0;
#X connect 73 0 78 0;
#X connect 74 0 78 0;
#X connect 75 0 78 0;
#X connect 76 0 1 0;
#X connect 76 0 1 1;
#X connect 77 0 14 0;
#X connect 78 0 76 0;
#X connect 80 0 78 2;
#X connect 81 0 80 0;
#X connect 82 0 64 0;
