#N canvas 47 74 450 522 12;
#X obj 90 163 osc~;
#X floatatom 90 99 5 0 0 0 - - - 0;
#X obj 134 145 * 2;
#X obj 134 199 osc~;
#X obj 91 425 dac~;
#X floatatom 134 173 5 0 0 0 - - - 0;
#X obj 201 199 osc~;
#X floatatom 201 173 5 0 0 0 - - - 0;
#X obj 260 200 osc~;
#X floatatom 260 174 5 0 0 0 - - - 0;
#X obj 201 145 * 3;
#X obj 260 146 * 4;
#X obj 134 223 *~ 0.75;
#X obj 201 223 *~ 0.5;
#X obj 260 224 *~ 0.35;
#X obj 324 200 osc~;
#X floatatom 324 174 5 0 0 0 - - - 0;
#X obj 324 146 * 5;
#X obj 324 224 *~ 0.25;
#X obj 90 42 loadbang;
#X msg 90 66 440;
#X obj 91 392 *~ 0.25;
#X floatatom 219 287 5 0 0 0 - - - 0;
#X floatatom 219 319 5 0 0 0 - - - 0;
#X obj 91 322 lop~;
#X obj 194 352 hip~;
#X connect 0 0 24 0;
#X connect 1 0 2 0;
#X connect 1 0 0 0;
#X connect 1 0 10 0;
#X connect 1 0 11 0;
#X connect 1 0 17 0;
#X connect 2 0 5 0;
#X connect 3 0 12 0;
#X connect 5 0 3 0;
#X connect 6 0 13 0;
#X connect 7 0 6 0;
#X connect 8 0 14 0;
#X connect 9 0 8 0;
#X connect 10 0 7 0;
#X connect 11 0 9 0;
#X connect 12 0 24 0;
#X connect 13 0 24 0;
#X connect 14 0 24 0;
#X connect 15 0 18 0;
#X connect 16 0 15 0;
#X connect 17 0 16 0;
#X connect 18 0 24 0;
#X connect 19 0 20 0;
#X connect 20 0 1 0;
#X connect 21 0 4 0;
#X connect 21 0 4 1;
#X connect 22 0 24 1;
#X connect 23 0 25 1;
#X connect 24 0 21 0;
